M48
; DRILL file {KiCad 9.0.6} date 2025-12-01T13:51:24+0900
; FORMAT={-:-/ absolute / metric / decimal}
; #@! TF.CreationDate,2025-12-01T13:51:24+09:00
; #@! TF.GenerationSoftware,Kicad,Pcbnew,9.0.6
; #@! TF.FileFunction,MixedPlating,1,6
FMAT,2
METRIC
; #@! TA.AperFunction,Plated,PTH,ComponentDrill
T1C0.890
; #@! TA.AperFunction,Plated,PTH,ComponentDrill
T2C0.920
; #@! TA.AperFunction,Plated,PTH,ComponentDrill
T3C1.000
; #@! TA.AperFunction,Plated,PTH,ComponentDrill
T4C1.020
; #@! TA.AperFunction,Plated,PTH,ComponentDrill
T5C1.630
; #@! TA.AperFunction,Plated,PTH,ComponentDrill
T6C2.300
; #@! TA.AperFunction,Plated,PTH,ComponentDrill
T7C3.200
; #@! TA.AperFunction,NonPlated,NPTH,ComponentDrill
T8C3.250
%
G90
G05
T1
X293.56Y-172.61
X293.56Y-175.15
X293.56Y-177.69
X293.56Y-180.23
X296.1Y-173.87
X296.1Y-176.41
X296.1Y-178.95
X296.1Y-181.49
T2
X269.67Y-24.51
X269.67Y-27.01
X269.67Y-29.01
X269.67Y-31.51
X269.67Y-36.51
X269.67Y-39.01
X269.67Y-41.01
X269.67Y-43.51
X269.67Y-48.51
X269.67Y-51.01
X269.67Y-53.01
X269.67Y-55.51
X269.67Y-60.51
X269.67Y-63.01
X269.67Y-65.01
X269.67Y-67.51
T3
X103.825Y-37.445
X103.825Y-39.985
X103.825Y-47.445
X103.825Y-49.985
X103.825Y-57.445
X103.825Y-59.985
X113.825Y-37.445
X113.825Y-39.985
X113.825Y-57.445
X113.825Y-59.985
T4
X307.36Y-170.425
X307.36Y-172.965
X307.36Y-181.135
X307.36Y-183.675
T5
X299.41Y-169.305
X299.41Y-184.795
T6
X272.38Y-21.44
X272.38Y-33.44
X272.38Y-34.58
X272.38Y-45.44
X272.38Y-46.58
X272.38Y-57.44
X272.38Y-58.58
X272.38Y-70.58
T7
X105.0Y-105.0
X105.0Y-195.0
X245.0Y-105.0
X245.0Y-195.0
T8
X302.46Y-171.335
X302.46Y-182.765
T3
X71.77Y-172.15G85X71.77Y-170.15
G05
X75.77Y-175.85G85X73.77Y-175.85
G05
X77.77Y-172.15G85X77.77Y-170.15
G05
M30
