%TF.GenerationSoftware,KiCad,Pcbnew,9.0.6*%
%TF.CreationDate,2025-12-01T13:51:19+09:00*%
%TF.ProjectId,fcBoard,6663426f-6172-4642-9e6b-696361645f70,0.2*%
%TF.SameCoordinates,Original*%
%TF.FileFunction,OtherDrawing,Comment*%
%FSLAX46Y46*%
G04 Gerber Fmt 4.6, Leading zero omitted, Abs format (unit mm)*
G04 Created by KiCad (PCBNEW 9.0.6) date 2025-12-01 13:51:19*
%MOMM*%
%LPD*%
G01*
G04 APERTURE LIST*
%ADD10C,0.150000*%
%ADD11C,0.100000*%
G04 APERTURE END LIST*
D10*
X167491428Y-385354819D02*
X167491428Y-384354819D01*
X167491428Y-384354819D02*
X167872380Y-384354819D01*
X167872380Y-384354819D02*
X167967618Y-384402438D01*
X167967618Y-384402438D02*
X168015237Y-384450057D01*
X168015237Y-384450057D02*
X168062856Y-384545295D01*
X168062856Y-384545295D02*
X168062856Y-384688152D01*
X168062856Y-384688152D02*
X168015237Y-384783390D01*
X168015237Y-384783390D02*
X167967618Y-384831009D01*
X167967618Y-384831009D02*
X167872380Y-384878628D01*
X167872380Y-384878628D02*
X167491428Y-384878628D01*
X169062856Y-385259580D02*
X169015237Y-385307200D01*
X169015237Y-385307200D02*
X168872380Y-385354819D01*
X168872380Y-385354819D02*
X168777142Y-385354819D01*
X168777142Y-385354819D02*
X168634285Y-385307200D01*
X168634285Y-385307200D02*
X168539047Y-385211961D01*
X168539047Y-385211961D02*
X168491428Y-385116723D01*
X168491428Y-385116723D02*
X168443809Y-384926247D01*
X168443809Y-384926247D02*
X168443809Y-384783390D01*
X168443809Y-384783390D02*
X168491428Y-384592914D01*
X168491428Y-384592914D02*
X168539047Y-384497676D01*
X168539047Y-384497676D02*
X168634285Y-384402438D01*
X168634285Y-384402438D02*
X168777142Y-384354819D01*
X168777142Y-384354819D02*
X168872380Y-384354819D01*
X168872380Y-384354819D02*
X169015237Y-384402438D01*
X169015237Y-384402438D02*
X169062856Y-384450057D01*
X169824761Y-384831009D02*
X169967618Y-384878628D01*
X169967618Y-384878628D02*
X170015237Y-384926247D01*
X170015237Y-384926247D02*
X170062856Y-385021485D01*
X170062856Y-385021485D02*
X170062856Y-385164342D01*
X170062856Y-385164342D02*
X170015237Y-385259580D01*
X170015237Y-385259580D02*
X169967618Y-385307200D01*
X169967618Y-385307200D02*
X169872380Y-385354819D01*
X169872380Y-385354819D02*
X169491428Y-385354819D01*
X169491428Y-385354819D02*
X169491428Y-384354819D01*
X169491428Y-384354819D02*
X169824761Y-384354819D01*
X169824761Y-384354819D02*
X169919999Y-384402438D01*
X169919999Y-384402438D02*
X169967618Y-384450057D01*
X169967618Y-384450057D02*
X170015237Y-384545295D01*
X170015237Y-384545295D02*
X170015237Y-384640533D01*
X170015237Y-384640533D02*
X169967618Y-384735771D01*
X169967618Y-384735771D02*
X169919999Y-384783390D01*
X169919999Y-384783390D02*
X169824761Y-384831009D01*
X169824761Y-384831009D02*
X169491428Y-384831009D01*
X171253333Y-384831009D02*
X171586666Y-384831009D01*
X171729523Y-385354819D02*
X171253333Y-385354819D01*
X171253333Y-385354819D02*
X171253333Y-384354819D01*
X171253333Y-384354819D02*
X171729523Y-384354819D01*
X172586666Y-385354819D02*
X172586666Y-384354819D01*
X172586666Y-385307200D02*
X172491428Y-385354819D01*
X172491428Y-385354819D02*
X172300952Y-385354819D01*
X172300952Y-385354819D02*
X172205714Y-385307200D01*
X172205714Y-385307200D02*
X172158095Y-385259580D01*
X172158095Y-385259580D02*
X172110476Y-385164342D01*
X172110476Y-385164342D02*
X172110476Y-384878628D01*
X172110476Y-384878628D02*
X172158095Y-384783390D01*
X172158095Y-384783390D02*
X172205714Y-384735771D01*
X172205714Y-384735771D02*
X172300952Y-384688152D01*
X172300952Y-384688152D02*
X172491428Y-384688152D01*
X172491428Y-384688152D02*
X172586666Y-384735771D01*
X173491428Y-384688152D02*
X173491428Y-385497676D01*
X173491428Y-385497676D02*
X173443809Y-385592914D01*
X173443809Y-385592914D02*
X173396190Y-385640533D01*
X173396190Y-385640533D02*
X173300952Y-385688152D01*
X173300952Y-385688152D02*
X173158095Y-385688152D01*
X173158095Y-385688152D02*
X173062857Y-385640533D01*
X173491428Y-385307200D02*
X173396190Y-385354819D01*
X173396190Y-385354819D02*
X173205714Y-385354819D01*
X173205714Y-385354819D02*
X173110476Y-385307200D01*
X173110476Y-385307200D02*
X173062857Y-385259580D01*
X173062857Y-385259580D02*
X173015238Y-385164342D01*
X173015238Y-385164342D02*
X173015238Y-384878628D01*
X173015238Y-384878628D02*
X173062857Y-384783390D01*
X173062857Y-384783390D02*
X173110476Y-384735771D01*
X173110476Y-384735771D02*
X173205714Y-384688152D01*
X173205714Y-384688152D02*
X173396190Y-384688152D01*
X173396190Y-384688152D02*
X173491428Y-384735771D01*
X174348571Y-385307200D02*
X174253333Y-385354819D01*
X174253333Y-385354819D02*
X174062857Y-385354819D01*
X174062857Y-385354819D02*
X173967619Y-385307200D01*
X173967619Y-385307200D02*
X173920000Y-385211961D01*
X173920000Y-385211961D02*
X173920000Y-384831009D01*
X173920000Y-384831009D02*
X173967619Y-384735771D01*
X173967619Y-384735771D02*
X174062857Y-384688152D01*
X174062857Y-384688152D02*
X174253333Y-384688152D01*
X174253333Y-384688152D02*
X174348571Y-384735771D01*
X174348571Y-384735771D02*
X174396190Y-384831009D01*
X174396190Y-384831009D02*
X174396190Y-384926247D01*
X174396190Y-384926247D02*
X173920000Y-385021485D01*
X147571428Y-386769819D02*
X147571428Y-385769819D01*
X147571428Y-385769819D02*
X147952380Y-385769819D01*
X147952380Y-385769819D02*
X148047618Y-385817438D01*
X148047618Y-385817438D02*
X148095237Y-385865057D01*
X148095237Y-385865057D02*
X148142856Y-385960295D01*
X148142856Y-385960295D02*
X148142856Y-386103152D01*
X148142856Y-386103152D02*
X148095237Y-386198390D01*
X148095237Y-386198390D02*
X148047618Y-386246009D01*
X148047618Y-386246009D02*
X147952380Y-386293628D01*
X147952380Y-386293628D02*
X147571428Y-386293628D01*
X149142856Y-386674580D02*
X149095237Y-386722200D01*
X149095237Y-386722200D02*
X148952380Y-386769819D01*
X148952380Y-386769819D02*
X148857142Y-386769819D01*
X148857142Y-386769819D02*
X148714285Y-386722200D01*
X148714285Y-386722200D02*
X148619047Y-386626961D01*
X148619047Y-386626961D02*
X148571428Y-386531723D01*
X148571428Y-386531723D02*
X148523809Y-386341247D01*
X148523809Y-386341247D02*
X148523809Y-386198390D01*
X148523809Y-386198390D02*
X148571428Y-386007914D01*
X148571428Y-386007914D02*
X148619047Y-385912676D01*
X148619047Y-385912676D02*
X148714285Y-385817438D01*
X148714285Y-385817438D02*
X148857142Y-385769819D01*
X148857142Y-385769819D02*
X148952380Y-385769819D01*
X148952380Y-385769819D02*
X149095237Y-385817438D01*
X149095237Y-385817438D02*
X149142856Y-385865057D01*
X149904761Y-386246009D02*
X150047618Y-386293628D01*
X150047618Y-386293628D02*
X150095237Y-386341247D01*
X150095237Y-386341247D02*
X150142856Y-386436485D01*
X150142856Y-386436485D02*
X150142856Y-386579342D01*
X150142856Y-386579342D02*
X150095237Y-386674580D01*
X150095237Y-386674580D02*
X150047618Y-386722200D01*
X150047618Y-386722200D02*
X149952380Y-386769819D01*
X149952380Y-386769819D02*
X149571428Y-386769819D01*
X149571428Y-386769819D02*
X149571428Y-385769819D01*
X149571428Y-385769819D02*
X149904761Y-385769819D01*
X149904761Y-385769819D02*
X149999999Y-385817438D01*
X149999999Y-385817438D02*
X150047618Y-385865057D01*
X150047618Y-385865057D02*
X150095237Y-385960295D01*
X150095237Y-385960295D02*
X150095237Y-386055533D01*
X150095237Y-386055533D02*
X150047618Y-386150771D01*
X150047618Y-386150771D02*
X149999999Y-386198390D01*
X149999999Y-386198390D02*
X149904761Y-386246009D01*
X149904761Y-386246009D02*
X149571428Y-386246009D01*
X151333333Y-386246009D02*
X151666666Y-386246009D01*
X151809523Y-386769819D02*
X151333333Y-386769819D01*
X151333333Y-386769819D02*
X151333333Y-385769819D01*
X151333333Y-385769819D02*
X151809523Y-385769819D01*
X152666666Y-386769819D02*
X152666666Y-385769819D01*
X152666666Y-386722200D02*
X152571428Y-386769819D01*
X152571428Y-386769819D02*
X152380952Y-386769819D01*
X152380952Y-386769819D02*
X152285714Y-386722200D01*
X152285714Y-386722200D02*
X152238095Y-386674580D01*
X152238095Y-386674580D02*
X152190476Y-386579342D01*
X152190476Y-386579342D02*
X152190476Y-386293628D01*
X152190476Y-386293628D02*
X152238095Y-386198390D01*
X152238095Y-386198390D02*
X152285714Y-386150771D01*
X152285714Y-386150771D02*
X152380952Y-386103152D01*
X152380952Y-386103152D02*
X152571428Y-386103152D01*
X152571428Y-386103152D02*
X152666666Y-386150771D01*
X153571428Y-386103152D02*
X153571428Y-386912676D01*
X153571428Y-386912676D02*
X153523809Y-387007914D01*
X153523809Y-387007914D02*
X153476190Y-387055533D01*
X153476190Y-387055533D02*
X153380952Y-387103152D01*
X153380952Y-387103152D02*
X153238095Y-387103152D01*
X153238095Y-387103152D02*
X153142857Y-387055533D01*
X153571428Y-386722200D02*
X153476190Y-386769819D01*
X153476190Y-386769819D02*
X153285714Y-386769819D01*
X153285714Y-386769819D02*
X153190476Y-386722200D01*
X153190476Y-386722200D02*
X153142857Y-386674580D01*
X153142857Y-386674580D02*
X153095238Y-386579342D01*
X153095238Y-386579342D02*
X153095238Y-386293628D01*
X153095238Y-386293628D02*
X153142857Y-386198390D01*
X153142857Y-386198390D02*
X153190476Y-386150771D01*
X153190476Y-386150771D02*
X153285714Y-386103152D01*
X153285714Y-386103152D02*
X153476190Y-386103152D01*
X153476190Y-386103152D02*
X153571428Y-386150771D01*
X154428571Y-386722200D02*
X154333333Y-386769819D01*
X154333333Y-386769819D02*
X154142857Y-386769819D01*
X154142857Y-386769819D02*
X154047619Y-386722200D01*
X154047619Y-386722200D02*
X154000000Y-386626961D01*
X154000000Y-386626961D02*
X154000000Y-386246009D01*
X154000000Y-386246009D02*
X154047619Y-386150771D01*
X154047619Y-386150771D02*
X154142857Y-386103152D01*
X154142857Y-386103152D02*
X154333333Y-386103152D01*
X154333333Y-386103152D02*
X154428571Y-386150771D01*
X154428571Y-386150771D02*
X154476190Y-386246009D01*
X154476190Y-386246009D02*
X154476190Y-386341247D01*
X154476190Y-386341247D02*
X154000000Y-386436485D01*
D11*
%TO.C,J23*%
X170120000Y-391850000D02*
X170120000Y-377950000D01*
%TO.C,J24*%
X150200000Y-393265000D02*
X150200000Y-379365000D01*
%TD*%
M02*
