%TF.GenerationSoftware,KiCad,Pcbnew,9.0.6*%
%TF.CreationDate,2025-12-01T13:51:19+09:00*%
%TF.ProjectId,fcBoard,6663426f-6172-4642-9e6b-696361645f70,0.2*%
%TF.SameCoordinates,Original*%
%TF.FileFunction,Legend,Top*%
%TF.FilePolarity,Positive*%
%FSLAX46Y46*%
G04 Gerber Fmt 4.6, Leading zero omitted, Abs format (unit mm)*
G04 Created by KiCad (PCBNEW 9.0.6) date 2025-12-01 13:51:19*
%MOMM*%
%LPD*%
G01*
G04 APERTURE LIST*
%ADD10C,0.150000*%
%ADD11C,0.120000*%
G04 APERTURE END LIST*
D10*
X32040714Y-127969819D02*
X32040714Y-126969819D01*
X32040714Y-126969819D02*
X32278809Y-126969819D01*
X32278809Y-126969819D02*
X32421666Y-127017438D01*
X32421666Y-127017438D02*
X32516904Y-127112676D01*
X32516904Y-127112676D02*
X32564523Y-127207914D01*
X32564523Y-127207914D02*
X32612142Y-127398390D01*
X32612142Y-127398390D02*
X32612142Y-127541247D01*
X32612142Y-127541247D02*
X32564523Y-127731723D01*
X32564523Y-127731723D02*
X32516904Y-127826961D01*
X32516904Y-127826961D02*
X32421666Y-127922200D01*
X32421666Y-127922200D02*
X32278809Y-127969819D01*
X32278809Y-127969819D02*
X32040714Y-127969819D01*
X33564523Y-127969819D02*
X32993095Y-127969819D01*
X33278809Y-127969819D02*
X33278809Y-126969819D01*
X33278809Y-126969819D02*
X33183571Y-127112676D01*
X33183571Y-127112676D02*
X33088333Y-127207914D01*
X33088333Y-127207914D02*
X32993095Y-127255533D01*
X34421666Y-126969819D02*
X34231190Y-126969819D01*
X34231190Y-126969819D02*
X34135952Y-127017438D01*
X34135952Y-127017438D02*
X34088333Y-127065057D01*
X34088333Y-127065057D02*
X33993095Y-127207914D01*
X33993095Y-127207914D02*
X33945476Y-127398390D01*
X33945476Y-127398390D02*
X33945476Y-127779342D01*
X33945476Y-127779342D02*
X33993095Y-127874580D01*
X33993095Y-127874580D02*
X34040714Y-127922200D01*
X34040714Y-127922200D02*
X34135952Y-127969819D01*
X34135952Y-127969819D02*
X34326428Y-127969819D01*
X34326428Y-127969819D02*
X34421666Y-127922200D01*
X34421666Y-127922200D02*
X34469285Y-127874580D01*
X34469285Y-127874580D02*
X34516904Y-127779342D01*
X34516904Y-127779342D02*
X34516904Y-127541247D01*
X34516904Y-127541247D02*
X34469285Y-127446009D01*
X34469285Y-127446009D02*
X34421666Y-127398390D01*
X34421666Y-127398390D02*
X34326428Y-127350771D01*
X34326428Y-127350771D02*
X34135952Y-127350771D01*
X34135952Y-127350771D02*
X34040714Y-127398390D01*
X34040714Y-127398390D02*
X33993095Y-127446009D01*
X33993095Y-127446009D02*
X33945476Y-127541247D01*
X121131905Y-372394819D02*
X121131905Y-373204342D01*
X121131905Y-373204342D02*
X121179524Y-373299580D01*
X121179524Y-373299580D02*
X121227143Y-373347200D01*
X121227143Y-373347200D02*
X121322381Y-373394819D01*
X121322381Y-373394819D02*
X121512857Y-373394819D01*
X121512857Y-373394819D02*
X121608095Y-373347200D01*
X121608095Y-373347200D02*
X121655714Y-373299580D01*
X121655714Y-373299580D02*
X121703333Y-373204342D01*
X121703333Y-373204342D02*
X121703333Y-372394819D01*
X122608095Y-372728152D02*
X122608095Y-373394819D01*
X122370000Y-372347200D02*
X122131905Y-373061485D01*
X122131905Y-373061485D02*
X122750952Y-373061485D01*
X123084286Y-372490057D02*
X123131905Y-372442438D01*
X123131905Y-372442438D02*
X123227143Y-372394819D01*
X123227143Y-372394819D02*
X123465238Y-372394819D01*
X123465238Y-372394819D02*
X123560476Y-372442438D01*
X123560476Y-372442438D02*
X123608095Y-372490057D01*
X123608095Y-372490057D02*
X123655714Y-372585295D01*
X123655714Y-372585295D02*
X123655714Y-372680533D01*
X123655714Y-372680533D02*
X123608095Y-372823390D01*
X123608095Y-372823390D02*
X123036667Y-373394819D01*
X123036667Y-373394819D02*
X123655714Y-373394819D01*
X290766666Y-176504819D02*
X290766666Y-177219104D01*
X290766666Y-177219104D02*
X290719047Y-177361961D01*
X290719047Y-177361961D02*
X290623809Y-177457200D01*
X290623809Y-177457200D02*
X290480952Y-177504819D01*
X290480952Y-177504819D02*
X290385714Y-177504819D01*
X291671428Y-176504819D02*
X291480952Y-176504819D01*
X291480952Y-176504819D02*
X291385714Y-176552438D01*
X291385714Y-176552438D02*
X291338095Y-176600057D01*
X291338095Y-176600057D02*
X291242857Y-176742914D01*
X291242857Y-176742914D02*
X291195238Y-176933390D01*
X291195238Y-176933390D02*
X291195238Y-177314342D01*
X291195238Y-177314342D02*
X291242857Y-177409580D01*
X291242857Y-177409580D02*
X291290476Y-177457200D01*
X291290476Y-177457200D02*
X291385714Y-177504819D01*
X291385714Y-177504819D02*
X291576190Y-177504819D01*
X291576190Y-177504819D02*
X291671428Y-177457200D01*
X291671428Y-177457200D02*
X291719047Y-177409580D01*
X291719047Y-177409580D02*
X291766666Y-177314342D01*
X291766666Y-177314342D02*
X291766666Y-177076247D01*
X291766666Y-177076247D02*
X291719047Y-176981009D01*
X291719047Y-176981009D02*
X291671428Y-176933390D01*
X291671428Y-176933390D02*
X291576190Y-176885771D01*
X291576190Y-176885771D02*
X291385714Y-176885771D01*
X291385714Y-176885771D02*
X291290476Y-176933390D01*
X291290476Y-176933390D02*
X291242857Y-176981009D01*
X291242857Y-176981009D02*
X291195238Y-177076247D01*
X103491666Y-34519819D02*
X103491666Y-35234104D01*
X103491666Y-35234104D02*
X103444047Y-35376961D01*
X103444047Y-35376961D02*
X103348809Y-35472200D01*
X103348809Y-35472200D02*
X103205952Y-35519819D01*
X103205952Y-35519819D02*
X103110714Y-35519819D01*
X103872619Y-34519819D02*
X104539285Y-34519819D01*
X104539285Y-34519819D02*
X104110714Y-35519819D01*
X226908095Y-42134819D02*
X226908095Y-42944342D01*
X226908095Y-42944342D02*
X226955714Y-43039580D01*
X226955714Y-43039580D02*
X227003333Y-43087200D01*
X227003333Y-43087200D02*
X227098571Y-43134819D01*
X227098571Y-43134819D02*
X227289047Y-43134819D01*
X227289047Y-43134819D02*
X227384285Y-43087200D01*
X227384285Y-43087200D02*
X227431904Y-43039580D01*
X227431904Y-43039580D02*
X227479523Y-42944342D01*
X227479523Y-42944342D02*
X227479523Y-42134819D01*
X228479523Y-43134819D02*
X227908095Y-43134819D01*
X228193809Y-43134819D02*
X228193809Y-42134819D01*
X228193809Y-42134819D02*
X228098571Y-42277676D01*
X228098571Y-42277676D02*
X228003333Y-42372914D01*
X228003333Y-42372914D02*
X227908095Y-42420533D01*
X136131905Y-354194819D02*
X136131905Y-355004342D01*
X136131905Y-355004342D02*
X136179524Y-355099580D01*
X136179524Y-355099580D02*
X136227143Y-355147200D01*
X136227143Y-355147200D02*
X136322381Y-355194819D01*
X136322381Y-355194819D02*
X136512857Y-355194819D01*
X136512857Y-355194819D02*
X136608095Y-355147200D01*
X136608095Y-355147200D02*
X136655714Y-355099580D01*
X136655714Y-355099580D02*
X136703333Y-355004342D01*
X136703333Y-355004342D02*
X136703333Y-354194819D01*
X137608095Y-354528152D02*
X137608095Y-355194819D01*
X137370000Y-354147200D02*
X137131905Y-354861485D01*
X137131905Y-354861485D02*
X137750952Y-354861485D01*
X138036667Y-354194819D02*
X138655714Y-354194819D01*
X138655714Y-354194819D02*
X138322381Y-354575771D01*
X138322381Y-354575771D02*
X138465238Y-354575771D01*
X138465238Y-354575771D02*
X138560476Y-354623390D01*
X138560476Y-354623390D02*
X138608095Y-354671009D01*
X138608095Y-354671009D02*
X138655714Y-354766247D01*
X138655714Y-354766247D02*
X138655714Y-355004342D01*
X138655714Y-355004342D02*
X138608095Y-355099580D01*
X138608095Y-355099580D02*
X138560476Y-355147200D01*
X138560476Y-355147200D02*
X138465238Y-355194819D01*
X138465238Y-355194819D02*
X138179524Y-355194819D01*
X138179524Y-355194819D02*
X138084286Y-355147200D01*
X138084286Y-355147200D02*
X138036667Y-355099580D01*
X126417619Y-383118628D02*
X126417619Y-383594819D01*
X126084286Y-382594819D02*
X126417619Y-383118628D01*
X126417619Y-383118628D02*
X126750952Y-382594819D01*
X127608095Y-383594819D02*
X127036667Y-383594819D01*
X127322381Y-383594819D02*
X127322381Y-382594819D01*
X127322381Y-382594819D02*
X127227143Y-382737676D01*
X127227143Y-382737676D02*
X127131905Y-382832914D01*
X127131905Y-382832914D02*
X127036667Y-382880533D01*
X128227143Y-382594819D02*
X128322381Y-382594819D01*
X128322381Y-382594819D02*
X128417619Y-382642438D01*
X128417619Y-382642438D02*
X128465238Y-382690057D01*
X128465238Y-382690057D02*
X128512857Y-382785295D01*
X128512857Y-382785295D02*
X128560476Y-382975771D01*
X128560476Y-382975771D02*
X128560476Y-383213866D01*
X128560476Y-383213866D02*
X128512857Y-383404342D01*
X128512857Y-383404342D02*
X128465238Y-383499580D01*
X128465238Y-383499580D02*
X128417619Y-383547200D01*
X128417619Y-383547200D02*
X128322381Y-383594819D01*
X128322381Y-383594819D02*
X128227143Y-383594819D01*
X128227143Y-383594819D02*
X128131905Y-383547200D01*
X128131905Y-383547200D02*
X128084286Y-383499580D01*
X128084286Y-383499580D02*
X128036667Y-383404342D01*
X128036667Y-383404342D02*
X127989048Y-383213866D01*
X127989048Y-383213866D02*
X127989048Y-382975771D01*
X127989048Y-382975771D02*
X128036667Y-382785295D01*
X128036667Y-382785295D02*
X128084286Y-382690057D01*
X128084286Y-382690057D02*
X128131905Y-382642438D01*
X128131905Y-382642438D02*
X128227143Y-382594819D01*
X126893809Y-367118628D02*
X126893809Y-367594819D01*
X126560476Y-366594819D02*
X126893809Y-367118628D01*
X126893809Y-367118628D02*
X127227142Y-366594819D01*
X127608095Y-367594819D02*
X127798571Y-367594819D01*
X127798571Y-367594819D02*
X127893809Y-367547200D01*
X127893809Y-367547200D02*
X127941428Y-367499580D01*
X127941428Y-367499580D02*
X128036666Y-367356723D01*
X128036666Y-367356723D02*
X128084285Y-367166247D01*
X128084285Y-367166247D02*
X128084285Y-366785295D01*
X128084285Y-366785295D02*
X128036666Y-366690057D01*
X128036666Y-366690057D02*
X127989047Y-366642438D01*
X127989047Y-366642438D02*
X127893809Y-366594819D01*
X127893809Y-366594819D02*
X127703333Y-366594819D01*
X127703333Y-366594819D02*
X127608095Y-366642438D01*
X127608095Y-366642438D02*
X127560476Y-366690057D01*
X127560476Y-366690057D02*
X127512857Y-366785295D01*
X127512857Y-366785295D02*
X127512857Y-367023390D01*
X127512857Y-367023390D02*
X127560476Y-367118628D01*
X127560476Y-367118628D02*
X127608095Y-367166247D01*
X127608095Y-367166247D02*
X127703333Y-367213866D01*
X127703333Y-367213866D02*
X127893809Y-367213866D01*
X127893809Y-367213866D02*
X127989047Y-367166247D01*
X127989047Y-367166247D02*
X128036666Y-367118628D01*
X128036666Y-367118628D02*
X128084285Y-367023390D01*
X251908095Y-33564819D02*
X251908095Y-34374342D01*
X251908095Y-34374342D02*
X251955714Y-34469580D01*
X251955714Y-34469580D02*
X252003333Y-34517200D01*
X252003333Y-34517200D02*
X252098571Y-34564819D01*
X252098571Y-34564819D02*
X252289047Y-34564819D01*
X252289047Y-34564819D02*
X252384285Y-34517200D01*
X252384285Y-34517200D02*
X252431904Y-34469580D01*
X252431904Y-34469580D02*
X252479523Y-34374342D01*
X252479523Y-34374342D02*
X252479523Y-33564819D01*
X253098571Y-33993390D02*
X253003333Y-33945771D01*
X253003333Y-33945771D02*
X252955714Y-33898152D01*
X252955714Y-33898152D02*
X252908095Y-33802914D01*
X252908095Y-33802914D02*
X252908095Y-33755295D01*
X252908095Y-33755295D02*
X252955714Y-33660057D01*
X252955714Y-33660057D02*
X253003333Y-33612438D01*
X253003333Y-33612438D02*
X253098571Y-33564819D01*
X253098571Y-33564819D02*
X253289047Y-33564819D01*
X253289047Y-33564819D02*
X253384285Y-33612438D01*
X253384285Y-33612438D02*
X253431904Y-33660057D01*
X253431904Y-33660057D02*
X253479523Y-33755295D01*
X253479523Y-33755295D02*
X253479523Y-33802914D01*
X253479523Y-33802914D02*
X253431904Y-33898152D01*
X253431904Y-33898152D02*
X253384285Y-33945771D01*
X253384285Y-33945771D02*
X253289047Y-33993390D01*
X253289047Y-33993390D02*
X253098571Y-33993390D01*
X253098571Y-33993390D02*
X253003333Y-34041009D01*
X253003333Y-34041009D02*
X252955714Y-34088628D01*
X252955714Y-34088628D02*
X252908095Y-34183866D01*
X252908095Y-34183866D02*
X252908095Y-34374342D01*
X252908095Y-34374342D02*
X252955714Y-34469580D01*
X252955714Y-34469580D02*
X253003333Y-34517200D01*
X253003333Y-34517200D02*
X253098571Y-34564819D01*
X253098571Y-34564819D02*
X253289047Y-34564819D01*
X253289047Y-34564819D02*
X253384285Y-34517200D01*
X253384285Y-34517200D02*
X253431904Y-34469580D01*
X253431904Y-34469580D02*
X253479523Y-34374342D01*
X253479523Y-34374342D02*
X253479523Y-34183866D01*
X253479523Y-34183866D02*
X253431904Y-34088628D01*
X253431904Y-34088628D02*
X253384285Y-34041009D01*
X253384285Y-34041009D02*
X253289047Y-33993390D01*
X133658333Y-21729819D02*
X133325000Y-21253628D01*
X133086905Y-21729819D02*
X133086905Y-20729819D01*
X133086905Y-20729819D02*
X133467857Y-20729819D01*
X133467857Y-20729819D02*
X133563095Y-20777438D01*
X133563095Y-20777438D02*
X133610714Y-20825057D01*
X133610714Y-20825057D02*
X133658333Y-20920295D01*
X133658333Y-20920295D02*
X133658333Y-21063152D01*
X133658333Y-21063152D02*
X133610714Y-21158390D01*
X133610714Y-21158390D02*
X133563095Y-21206009D01*
X133563095Y-21206009D02*
X133467857Y-21253628D01*
X133467857Y-21253628D02*
X133086905Y-21253628D01*
X134515476Y-21063152D02*
X134515476Y-21729819D01*
X134277381Y-20682200D02*
X134039286Y-21396485D01*
X134039286Y-21396485D02*
X134658333Y-21396485D01*
X327923809Y-177718628D02*
X327923809Y-178194819D01*
X327590476Y-177194819D02*
X327923809Y-177718628D01*
X327923809Y-177718628D02*
X328257142Y-177194819D01*
X328542857Y-177290057D02*
X328590476Y-177242438D01*
X328590476Y-177242438D02*
X328685714Y-177194819D01*
X328685714Y-177194819D02*
X328923809Y-177194819D01*
X328923809Y-177194819D02*
X329019047Y-177242438D01*
X329019047Y-177242438D02*
X329066666Y-177290057D01*
X329066666Y-177290057D02*
X329114285Y-177385295D01*
X329114285Y-177385295D02*
X329114285Y-177480533D01*
X329114285Y-177480533D02*
X329066666Y-177623390D01*
X329066666Y-177623390D02*
X328495238Y-178194819D01*
X328495238Y-178194819D02*
X329114285Y-178194819D01*
X46412142Y-146399819D02*
X46078809Y-145923628D01*
X45840714Y-146399819D02*
X45840714Y-145399819D01*
X45840714Y-145399819D02*
X46221666Y-145399819D01*
X46221666Y-145399819D02*
X46316904Y-145447438D01*
X46316904Y-145447438D02*
X46364523Y-145495057D01*
X46364523Y-145495057D02*
X46412142Y-145590295D01*
X46412142Y-145590295D02*
X46412142Y-145733152D01*
X46412142Y-145733152D02*
X46364523Y-145828390D01*
X46364523Y-145828390D02*
X46316904Y-145876009D01*
X46316904Y-145876009D02*
X46221666Y-145923628D01*
X46221666Y-145923628D02*
X45840714Y-145923628D01*
X46793095Y-145495057D02*
X46840714Y-145447438D01*
X46840714Y-145447438D02*
X46935952Y-145399819D01*
X46935952Y-145399819D02*
X47174047Y-145399819D01*
X47174047Y-145399819D02*
X47269285Y-145447438D01*
X47269285Y-145447438D02*
X47316904Y-145495057D01*
X47316904Y-145495057D02*
X47364523Y-145590295D01*
X47364523Y-145590295D02*
X47364523Y-145685533D01*
X47364523Y-145685533D02*
X47316904Y-145828390D01*
X47316904Y-145828390D02*
X46745476Y-146399819D01*
X46745476Y-146399819D02*
X47364523Y-146399819D01*
X47983571Y-145399819D02*
X48078809Y-145399819D01*
X48078809Y-145399819D02*
X48174047Y-145447438D01*
X48174047Y-145447438D02*
X48221666Y-145495057D01*
X48221666Y-145495057D02*
X48269285Y-145590295D01*
X48269285Y-145590295D02*
X48316904Y-145780771D01*
X48316904Y-145780771D02*
X48316904Y-146018866D01*
X48316904Y-146018866D02*
X48269285Y-146209342D01*
X48269285Y-146209342D02*
X48221666Y-146304580D01*
X48221666Y-146304580D02*
X48174047Y-146352200D01*
X48174047Y-146352200D02*
X48078809Y-146399819D01*
X48078809Y-146399819D02*
X47983571Y-146399819D01*
X47983571Y-146399819D02*
X47888333Y-146352200D01*
X47888333Y-146352200D02*
X47840714Y-146304580D01*
X47840714Y-146304580D02*
X47793095Y-146209342D01*
X47793095Y-146209342D02*
X47745476Y-146018866D01*
X47745476Y-146018866D02*
X47745476Y-145780771D01*
X47745476Y-145780771D02*
X47793095Y-145590295D01*
X47793095Y-145590295D02*
X47840714Y-145495057D01*
X47840714Y-145495057D02*
X47888333Y-145447438D01*
X47888333Y-145447438D02*
X47983571Y-145399819D01*
X128658333Y-21729819D02*
X128325000Y-21253628D01*
X128086905Y-21729819D02*
X128086905Y-20729819D01*
X128086905Y-20729819D02*
X128467857Y-20729819D01*
X128467857Y-20729819D02*
X128563095Y-20777438D01*
X128563095Y-20777438D02*
X128610714Y-20825057D01*
X128610714Y-20825057D02*
X128658333Y-20920295D01*
X128658333Y-20920295D02*
X128658333Y-21063152D01*
X128658333Y-21063152D02*
X128610714Y-21158390D01*
X128610714Y-21158390D02*
X128563095Y-21206009D01*
X128563095Y-21206009D02*
X128467857Y-21253628D01*
X128467857Y-21253628D02*
X128086905Y-21253628D01*
X128991667Y-20729819D02*
X129610714Y-20729819D01*
X129610714Y-20729819D02*
X129277381Y-21110771D01*
X129277381Y-21110771D02*
X129420238Y-21110771D01*
X129420238Y-21110771D02*
X129515476Y-21158390D01*
X129515476Y-21158390D02*
X129563095Y-21206009D01*
X129563095Y-21206009D02*
X129610714Y-21301247D01*
X129610714Y-21301247D02*
X129610714Y-21539342D01*
X129610714Y-21539342D02*
X129563095Y-21634580D01*
X129563095Y-21634580D02*
X129515476Y-21682200D01*
X129515476Y-21682200D02*
X129420238Y-21729819D01*
X129420238Y-21729819D02*
X129134524Y-21729819D01*
X129134524Y-21729819D02*
X129039286Y-21682200D01*
X129039286Y-21682200D02*
X128991667Y-21634580D01*
X123658333Y-21729819D02*
X123325000Y-21253628D01*
X123086905Y-21729819D02*
X123086905Y-20729819D01*
X123086905Y-20729819D02*
X123467857Y-20729819D01*
X123467857Y-20729819D02*
X123563095Y-20777438D01*
X123563095Y-20777438D02*
X123610714Y-20825057D01*
X123610714Y-20825057D02*
X123658333Y-20920295D01*
X123658333Y-20920295D02*
X123658333Y-21063152D01*
X123658333Y-21063152D02*
X123610714Y-21158390D01*
X123610714Y-21158390D02*
X123563095Y-21206009D01*
X123563095Y-21206009D02*
X123467857Y-21253628D01*
X123467857Y-21253628D02*
X123086905Y-21253628D01*
X124039286Y-20825057D02*
X124086905Y-20777438D01*
X124086905Y-20777438D02*
X124182143Y-20729819D01*
X124182143Y-20729819D02*
X124420238Y-20729819D01*
X124420238Y-20729819D02*
X124515476Y-20777438D01*
X124515476Y-20777438D02*
X124563095Y-20825057D01*
X124563095Y-20825057D02*
X124610714Y-20920295D01*
X124610714Y-20920295D02*
X124610714Y-21015533D01*
X124610714Y-21015533D02*
X124563095Y-21158390D01*
X124563095Y-21158390D02*
X123991667Y-21729819D01*
X123991667Y-21729819D02*
X124610714Y-21729819D01*
X68510476Y-176354819D02*
X68510476Y-177069104D01*
X68510476Y-177069104D02*
X68462857Y-177211961D01*
X68462857Y-177211961D02*
X68367619Y-177307200D01*
X68367619Y-177307200D02*
X68224762Y-177354819D01*
X68224762Y-177354819D02*
X68129524Y-177354819D01*
X69510476Y-177354819D02*
X68939048Y-177354819D01*
X69224762Y-177354819D02*
X69224762Y-176354819D01*
X69224762Y-176354819D02*
X69129524Y-176497676D01*
X69129524Y-176497676D02*
X69034286Y-176592914D01*
X69034286Y-176592914D02*
X68939048Y-176640533D01*
X70367619Y-176354819D02*
X70177143Y-176354819D01*
X70177143Y-176354819D02*
X70081905Y-176402438D01*
X70081905Y-176402438D02*
X70034286Y-176450057D01*
X70034286Y-176450057D02*
X69939048Y-176592914D01*
X69939048Y-176592914D02*
X69891429Y-176783390D01*
X69891429Y-176783390D02*
X69891429Y-177164342D01*
X69891429Y-177164342D02*
X69939048Y-177259580D01*
X69939048Y-177259580D02*
X69986667Y-177307200D01*
X69986667Y-177307200D02*
X70081905Y-177354819D01*
X70081905Y-177354819D02*
X70272381Y-177354819D01*
X70272381Y-177354819D02*
X70367619Y-177307200D01*
X70367619Y-177307200D02*
X70415238Y-177259580D01*
X70415238Y-177259580D02*
X70462857Y-177164342D01*
X70462857Y-177164342D02*
X70462857Y-176926247D01*
X70462857Y-176926247D02*
X70415238Y-176831009D01*
X70415238Y-176831009D02*
X70367619Y-176783390D01*
X70367619Y-176783390D02*
X70272381Y-176735771D01*
X70272381Y-176735771D02*
X70081905Y-176735771D01*
X70081905Y-176735771D02*
X69986667Y-176783390D01*
X69986667Y-176783390D02*
X69939048Y-176831009D01*
X69939048Y-176831009D02*
X69891429Y-176926247D01*
X29016905Y-138749819D02*
X29016905Y-139559342D01*
X29016905Y-139559342D02*
X29064524Y-139654580D01*
X29064524Y-139654580D02*
X29112143Y-139702200D01*
X29112143Y-139702200D02*
X29207381Y-139749819D01*
X29207381Y-139749819D02*
X29397857Y-139749819D01*
X29397857Y-139749819D02*
X29493095Y-139702200D01*
X29493095Y-139702200D02*
X29540714Y-139654580D01*
X29540714Y-139654580D02*
X29588333Y-139559342D01*
X29588333Y-139559342D02*
X29588333Y-138749819D01*
X30016905Y-138845057D02*
X30064524Y-138797438D01*
X30064524Y-138797438D02*
X30159762Y-138749819D01*
X30159762Y-138749819D02*
X30397857Y-138749819D01*
X30397857Y-138749819D02*
X30493095Y-138797438D01*
X30493095Y-138797438D02*
X30540714Y-138845057D01*
X30540714Y-138845057D02*
X30588333Y-138940295D01*
X30588333Y-138940295D02*
X30588333Y-139035533D01*
X30588333Y-139035533D02*
X30540714Y-139178390D01*
X30540714Y-139178390D02*
X29969286Y-139749819D01*
X29969286Y-139749819D02*
X30588333Y-139749819D01*
X31445476Y-138749819D02*
X31255000Y-138749819D01*
X31255000Y-138749819D02*
X31159762Y-138797438D01*
X31159762Y-138797438D02*
X31112143Y-138845057D01*
X31112143Y-138845057D02*
X31016905Y-138987914D01*
X31016905Y-138987914D02*
X30969286Y-139178390D01*
X30969286Y-139178390D02*
X30969286Y-139559342D01*
X30969286Y-139559342D02*
X31016905Y-139654580D01*
X31016905Y-139654580D02*
X31064524Y-139702200D01*
X31064524Y-139702200D02*
X31159762Y-139749819D01*
X31159762Y-139749819D02*
X31350238Y-139749819D01*
X31350238Y-139749819D02*
X31445476Y-139702200D01*
X31445476Y-139702200D02*
X31493095Y-139654580D01*
X31493095Y-139654580D02*
X31540714Y-139559342D01*
X31540714Y-139559342D02*
X31540714Y-139321247D01*
X31540714Y-139321247D02*
X31493095Y-139226009D01*
X31493095Y-139226009D02*
X31445476Y-139178390D01*
X31445476Y-139178390D02*
X31350238Y-139130771D01*
X31350238Y-139130771D02*
X31159762Y-139130771D01*
X31159762Y-139130771D02*
X31064524Y-139178390D01*
X31064524Y-139178390D02*
X31016905Y-139226009D01*
X31016905Y-139226009D02*
X30969286Y-139321247D01*
X118658333Y-21729819D02*
X118325000Y-21253628D01*
X118086905Y-21729819D02*
X118086905Y-20729819D01*
X118086905Y-20729819D02*
X118467857Y-20729819D01*
X118467857Y-20729819D02*
X118563095Y-20777438D01*
X118563095Y-20777438D02*
X118610714Y-20825057D01*
X118610714Y-20825057D02*
X118658333Y-20920295D01*
X118658333Y-20920295D02*
X118658333Y-21063152D01*
X118658333Y-21063152D02*
X118610714Y-21158390D01*
X118610714Y-21158390D02*
X118563095Y-21206009D01*
X118563095Y-21206009D02*
X118467857Y-21253628D01*
X118467857Y-21253628D02*
X118086905Y-21253628D01*
X119610714Y-21729819D02*
X119039286Y-21729819D01*
X119325000Y-21729819D02*
X119325000Y-20729819D01*
X119325000Y-20729819D02*
X119229762Y-20872676D01*
X119229762Y-20872676D02*
X119134524Y-20967914D01*
X119134524Y-20967914D02*
X119039286Y-21015533D01*
X327923809Y-167718628D02*
X327923809Y-168194819D01*
X327590476Y-167194819D02*
X327923809Y-167718628D01*
X327923809Y-167718628D02*
X328257142Y-167194819D01*
X329114285Y-168194819D02*
X328542857Y-168194819D01*
X328828571Y-168194819D02*
X328828571Y-167194819D01*
X328828571Y-167194819D02*
X328733333Y-167337676D01*
X328733333Y-167337676D02*
X328638095Y-167432914D01*
X328638095Y-167432914D02*
X328542857Y-167480533D01*
X113015476Y-34519819D02*
X113015476Y-35234104D01*
X113015476Y-35234104D02*
X112967857Y-35376961D01*
X112967857Y-35376961D02*
X112872619Y-35472200D01*
X112872619Y-35472200D02*
X112729762Y-35519819D01*
X112729762Y-35519819D02*
X112634524Y-35519819D01*
X114015476Y-35519819D02*
X113444048Y-35519819D01*
X113729762Y-35519819D02*
X113729762Y-34519819D01*
X113729762Y-34519819D02*
X113634524Y-34662676D01*
X113634524Y-34662676D02*
X113539286Y-34757914D01*
X113539286Y-34757914D02*
X113444048Y-34805533D01*
X114634524Y-34519819D02*
X114729762Y-34519819D01*
X114729762Y-34519819D02*
X114825000Y-34567438D01*
X114825000Y-34567438D02*
X114872619Y-34615057D01*
X114872619Y-34615057D02*
X114920238Y-34710295D01*
X114920238Y-34710295D02*
X114967857Y-34900771D01*
X114967857Y-34900771D02*
X114967857Y-35138866D01*
X114967857Y-35138866D02*
X114920238Y-35329342D01*
X114920238Y-35329342D02*
X114872619Y-35424580D01*
X114872619Y-35424580D02*
X114825000Y-35472200D01*
X114825000Y-35472200D02*
X114729762Y-35519819D01*
X114729762Y-35519819D02*
X114634524Y-35519819D01*
X114634524Y-35519819D02*
X114539286Y-35472200D01*
X114539286Y-35472200D02*
X114491667Y-35424580D01*
X114491667Y-35424580D02*
X114444048Y-35329342D01*
X114444048Y-35329342D02*
X114396429Y-35138866D01*
X114396429Y-35138866D02*
X114396429Y-34900771D01*
X114396429Y-34900771D02*
X114444048Y-34710295D01*
X114444048Y-34710295D02*
X114491667Y-34615057D01*
X114491667Y-34615057D02*
X114539286Y-34567438D01*
X114539286Y-34567438D02*
X114634524Y-34519819D01*
X113015476Y-54519819D02*
X113015476Y-55234104D01*
X113015476Y-55234104D02*
X112967857Y-55376961D01*
X112967857Y-55376961D02*
X112872619Y-55472200D01*
X112872619Y-55472200D02*
X112729762Y-55519819D01*
X112729762Y-55519819D02*
X112634524Y-55519819D01*
X114015476Y-55519819D02*
X113444048Y-55519819D01*
X113729762Y-55519819D02*
X113729762Y-54519819D01*
X113729762Y-54519819D02*
X113634524Y-54662676D01*
X113634524Y-54662676D02*
X113539286Y-54757914D01*
X113539286Y-54757914D02*
X113444048Y-54805533D01*
X114396429Y-54615057D02*
X114444048Y-54567438D01*
X114444048Y-54567438D02*
X114539286Y-54519819D01*
X114539286Y-54519819D02*
X114777381Y-54519819D01*
X114777381Y-54519819D02*
X114872619Y-54567438D01*
X114872619Y-54567438D02*
X114920238Y-54615057D01*
X114920238Y-54615057D02*
X114967857Y-54710295D01*
X114967857Y-54710295D02*
X114967857Y-54805533D01*
X114967857Y-54805533D02*
X114920238Y-54948390D01*
X114920238Y-54948390D02*
X114348810Y-55519819D01*
X114348810Y-55519819D02*
X114967857Y-55519819D01*
X40088333Y-151799819D02*
X39612143Y-151799819D01*
X39612143Y-151799819D02*
X39612143Y-150799819D01*
X40850238Y-150799819D02*
X40659762Y-150799819D01*
X40659762Y-150799819D02*
X40564524Y-150847438D01*
X40564524Y-150847438D02*
X40516905Y-150895057D01*
X40516905Y-150895057D02*
X40421667Y-151037914D01*
X40421667Y-151037914D02*
X40374048Y-151228390D01*
X40374048Y-151228390D02*
X40374048Y-151609342D01*
X40374048Y-151609342D02*
X40421667Y-151704580D01*
X40421667Y-151704580D02*
X40469286Y-151752200D01*
X40469286Y-151752200D02*
X40564524Y-151799819D01*
X40564524Y-151799819D02*
X40755000Y-151799819D01*
X40755000Y-151799819D02*
X40850238Y-151752200D01*
X40850238Y-151752200D02*
X40897857Y-151704580D01*
X40897857Y-151704580D02*
X40945476Y-151609342D01*
X40945476Y-151609342D02*
X40945476Y-151371247D01*
X40945476Y-151371247D02*
X40897857Y-151276009D01*
X40897857Y-151276009D02*
X40850238Y-151228390D01*
X40850238Y-151228390D02*
X40755000Y-151180771D01*
X40755000Y-151180771D02*
X40564524Y-151180771D01*
X40564524Y-151180771D02*
X40469286Y-151228390D01*
X40469286Y-151228390D02*
X40421667Y-151276009D01*
X40421667Y-151276009D02*
X40374048Y-151371247D01*
X32040714Y-121969819D02*
X32040714Y-120969819D01*
X32040714Y-120969819D02*
X32278809Y-120969819D01*
X32278809Y-120969819D02*
X32421666Y-121017438D01*
X32421666Y-121017438D02*
X32516904Y-121112676D01*
X32516904Y-121112676D02*
X32564523Y-121207914D01*
X32564523Y-121207914D02*
X32612142Y-121398390D01*
X32612142Y-121398390D02*
X32612142Y-121541247D01*
X32612142Y-121541247D02*
X32564523Y-121731723D01*
X32564523Y-121731723D02*
X32516904Y-121826961D01*
X32516904Y-121826961D02*
X32421666Y-121922200D01*
X32421666Y-121922200D02*
X32278809Y-121969819D01*
X32278809Y-121969819D02*
X32040714Y-121969819D01*
X33564523Y-121969819D02*
X32993095Y-121969819D01*
X33278809Y-121969819D02*
X33278809Y-120969819D01*
X33278809Y-120969819D02*
X33183571Y-121112676D01*
X33183571Y-121112676D02*
X33088333Y-121207914D01*
X33088333Y-121207914D02*
X32993095Y-121255533D01*
X33945476Y-121065057D02*
X33993095Y-121017438D01*
X33993095Y-121017438D02*
X34088333Y-120969819D01*
X34088333Y-120969819D02*
X34326428Y-120969819D01*
X34326428Y-120969819D02*
X34421666Y-121017438D01*
X34421666Y-121017438D02*
X34469285Y-121065057D01*
X34469285Y-121065057D02*
X34516904Y-121160295D01*
X34516904Y-121160295D02*
X34516904Y-121255533D01*
X34516904Y-121255533D02*
X34469285Y-121398390D01*
X34469285Y-121398390D02*
X33897857Y-121969819D01*
X33897857Y-121969819D02*
X34516904Y-121969819D01*
X107586905Y-35499819D02*
X107586905Y-36309342D01*
X107586905Y-36309342D02*
X107634524Y-36404580D01*
X107634524Y-36404580D02*
X107682143Y-36452200D01*
X107682143Y-36452200D02*
X107777381Y-36499819D01*
X107777381Y-36499819D02*
X107967857Y-36499819D01*
X107967857Y-36499819D02*
X108063095Y-36452200D01*
X108063095Y-36452200D02*
X108110714Y-36404580D01*
X108110714Y-36404580D02*
X108158333Y-36309342D01*
X108158333Y-36309342D02*
X108158333Y-35499819D01*
X109158333Y-36499819D02*
X108586905Y-36499819D01*
X108872619Y-36499819D02*
X108872619Y-35499819D01*
X108872619Y-35499819D02*
X108777381Y-35642676D01*
X108777381Y-35642676D02*
X108682143Y-35737914D01*
X108682143Y-35737914D02*
X108586905Y-35785533D01*
X109491667Y-35499819D02*
X110110714Y-35499819D01*
X110110714Y-35499819D02*
X109777381Y-35880771D01*
X109777381Y-35880771D02*
X109920238Y-35880771D01*
X109920238Y-35880771D02*
X110015476Y-35928390D01*
X110015476Y-35928390D02*
X110063095Y-35976009D01*
X110063095Y-35976009D02*
X110110714Y-36071247D01*
X110110714Y-36071247D02*
X110110714Y-36309342D01*
X110110714Y-36309342D02*
X110063095Y-36404580D01*
X110063095Y-36404580D02*
X110015476Y-36452200D01*
X110015476Y-36452200D02*
X109920238Y-36499819D01*
X109920238Y-36499819D02*
X109634524Y-36499819D01*
X109634524Y-36499819D02*
X109539286Y-36452200D01*
X109539286Y-36452200D02*
X109491667Y-36404580D01*
X205240595Y-60734819D02*
X205240595Y-61544342D01*
X205240595Y-61544342D02*
X205288214Y-61639580D01*
X205288214Y-61639580D02*
X205335833Y-61687200D01*
X205335833Y-61687200D02*
X205431071Y-61734819D01*
X205431071Y-61734819D02*
X205621547Y-61734819D01*
X205621547Y-61734819D02*
X205716785Y-61687200D01*
X205716785Y-61687200D02*
X205764404Y-61639580D01*
X205764404Y-61639580D02*
X205812023Y-61544342D01*
X205812023Y-61544342D02*
X205812023Y-60734819D01*
X206335833Y-61734819D02*
X206526309Y-61734819D01*
X206526309Y-61734819D02*
X206621547Y-61687200D01*
X206621547Y-61687200D02*
X206669166Y-61639580D01*
X206669166Y-61639580D02*
X206764404Y-61496723D01*
X206764404Y-61496723D02*
X206812023Y-61306247D01*
X206812023Y-61306247D02*
X206812023Y-60925295D01*
X206812023Y-60925295D02*
X206764404Y-60830057D01*
X206764404Y-60830057D02*
X206716785Y-60782438D01*
X206716785Y-60782438D02*
X206621547Y-60734819D01*
X206621547Y-60734819D02*
X206431071Y-60734819D01*
X206431071Y-60734819D02*
X206335833Y-60782438D01*
X206335833Y-60782438D02*
X206288214Y-60830057D01*
X206288214Y-60830057D02*
X206240595Y-60925295D01*
X206240595Y-60925295D02*
X206240595Y-61163390D01*
X206240595Y-61163390D02*
X206288214Y-61258628D01*
X206288214Y-61258628D02*
X206335833Y-61306247D01*
X206335833Y-61306247D02*
X206431071Y-61353866D01*
X206431071Y-61353866D02*
X206621547Y-61353866D01*
X206621547Y-61353866D02*
X206716785Y-61306247D01*
X206716785Y-61306247D02*
X206764404Y-61258628D01*
X206764404Y-61258628D02*
X206812023Y-61163390D01*
X30088333Y-151799819D02*
X29612143Y-151799819D01*
X29612143Y-151799819D02*
X29612143Y-150799819D01*
X30897857Y-150799819D02*
X30421667Y-150799819D01*
X30421667Y-150799819D02*
X30374048Y-151276009D01*
X30374048Y-151276009D02*
X30421667Y-151228390D01*
X30421667Y-151228390D02*
X30516905Y-151180771D01*
X30516905Y-151180771D02*
X30755000Y-151180771D01*
X30755000Y-151180771D02*
X30850238Y-151228390D01*
X30850238Y-151228390D02*
X30897857Y-151276009D01*
X30897857Y-151276009D02*
X30945476Y-151371247D01*
X30945476Y-151371247D02*
X30945476Y-151609342D01*
X30945476Y-151609342D02*
X30897857Y-151704580D01*
X30897857Y-151704580D02*
X30850238Y-151752200D01*
X30850238Y-151752200D02*
X30755000Y-151799819D01*
X30755000Y-151799819D02*
X30516905Y-151799819D01*
X30516905Y-151799819D02*
X30421667Y-151752200D01*
X30421667Y-151752200D02*
X30374048Y-151704580D01*
X26040714Y-121969819D02*
X26040714Y-120969819D01*
X26040714Y-120969819D02*
X26278809Y-120969819D01*
X26278809Y-120969819D02*
X26421666Y-121017438D01*
X26421666Y-121017438D02*
X26516904Y-121112676D01*
X26516904Y-121112676D02*
X26564523Y-121207914D01*
X26564523Y-121207914D02*
X26612142Y-121398390D01*
X26612142Y-121398390D02*
X26612142Y-121541247D01*
X26612142Y-121541247D02*
X26564523Y-121731723D01*
X26564523Y-121731723D02*
X26516904Y-121826961D01*
X26516904Y-121826961D02*
X26421666Y-121922200D01*
X26421666Y-121922200D02*
X26278809Y-121969819D01*
X26278809Y-121969819D02*
X26040714Y-121969819D01*
X27564523Y-121969819D02*
X26993095Y-121969819D01*
X27278809Y-121969819D02*
X27278809Y-120969819D01*
X27278809Y-120969819D02*
X27183571Y-121112676D01*
X27183571Y-121112676D02*
X27088333Y-121207914D01*
X27088333Y-121207914D02*
X26993095Y-121255533D01*
X28516904Y-121969819D02*
X27945476Y-121969819D01*
X28231190Y-121969819D02*
X28231190Y-120969819D01*
X28231190Y-120969819D02*
X28135952Y-121112676D01*
X28135952Y-121112676D02*
X28040714Y-121207914D01*
X28040714Y-121207914D02*
X27945476Y-121255533D01*
X267076666Y-63464819D02*
X267076666Y-64179104D01*
X267076666Y-64179104D02*
X267029047Y-64321961D01*
X267029047Y-64321961D02*
X266933809Y-64417200D01*
X266933809Y-64417200D02*
X266790952Y-64464819D01*
X266790952Y-64464819D02*
X266695714Y-64464819D01*
X267981428Y-63798152D02*
X267981428Y-64464819D01*
X267743333Y-63417200D02*
X267505238Y-64131485D01*
X267505238Y-64131485D02*
X268124285Y-64131485D01*
X105727142Y-396339580D02*
X105679523Y-396387200D01*
X105679523Y-396387200D02*
X105536666Y-396434819D01*
X105536666Y-396434819D02*
X105441428Y-396434819D01*
X105441428Y-396434819D02*
X105298571Y-396387200D01*
X105298571Y-396387200D02*
X105203333Y-396291961D01*
X105203333Y-396291961D02*
X105155714Y-396196723D01*
X105155714Y-396196723D02*
X105108095Y-396006247D01*
X105108095Y-396006247D02*
X105108095Y-395863390D01*
X105108095Y-395863390D02*
X105155714Y-395672914D01*
X105155714Y-395672914D02*
X105203333Y-395577676D01*
X105203333Y-395577676D02*
X105298571Y-395482438D01*
X105298571Y-395482438D02*
X105441428Y-395434819D01*
X105441428Y-395434819D02*
X105536666Y-395434819D01*
X105536666Y-395434819D02*
X105679523Y-395482438D01*
X105679523Y-395482438D02*
X105727142Y-395530057D01*
X106060476Y-395434819D02*
X106679523Y-395434819D01*
X106679523Y-395434819D02*
X106346190Y-395815771D01*
X106346190Y-395815771D02*
X106489047Y-395815771D01*
X106489047Y-395815771D02*
X106584285Y-395863390D01*
X106584285Y-395863390D02*
X106631904Y-395911009D01*
X106631904Y-395911009D02*
X106679523Y-396006247D01*
X106679523Y-396006247D02*
X106679523Y-396244342D01*
X106679523Y-396244342D02*
X106631904Y-396339580D01*
X106631904Y-396339580D02*
X106584285Y-396387200D01*
X106584285Y-396387200D02*
X106489047Y-396434819D01*
X106489047Y-396434819D02*
X106203333Y-396434819D01*
X106203333Y-396434819D02*
X106108095Y-396387200D01*
X106108095Y-396387200D02*
X106060476Y-396339580D01*
X107012857Y-395434819D02*
X107679523Y-395434819D01*
X107679523Y-395434819D02*
X107250952Y-396434819D01*
X44612142Y-190144580D02*
X44564523Y-190192200D01*
X44564523Y-190192200D02*
X44421666Y-190239819D01*
X44421666Y-190239819D02*
X44326428Y-190239819D01*
X44326428Y-190239819D02*
X44183571Y-190192200D01*
X44183571Y-190192200D02*
X44088333Y-190096961D01*
X44088333Y-190096961D02*
X44040714Y-190001723D01*
X44040714Y-190001723D02*
X43993095Y-189811247D01*
X43993095Y-189811247D02*
X43993095Y-189668390D01*
X43993095Y-189668390D02*
X44040714Y-189477914D01*
X44040714Y-189477914D02*
X44088333Y-189382676D01*
X44088333Y-189382676D02*
X44183571Y-189287438D01*
X44183571Y-189287438D02*
X44326428Y-189239819D01*
X44326428Y-189239819D02*
X44421666Y-189239819D01*
X44421666Y-189239819D02*
X44564523Y-189287438D01*
X44564523Y-189287438D02*
X44612142Y-189335057D01*
X44993095Y-189335057D02*
X45040714Y-189287438D01*
X45040714Y-189287438D02*
X45135952Y-189239819D01*
X45135952Y-189239819D02*
X45374047Y-189239819D01*
X45374047Y-189239819D02*
X45469285Y-189287438D01*
X45469285Y-189287438D02*
X45516904Y-189335057D01*
X45516904Y-189335057D02*
X45564523Y-189430295D01*
X45564523Y-189430295D02*
X45564523Y-189525533D01*
X45564523Y-189525533D02*
X45516904Y-189668390D01*
X45516904Y-189668390D02*
X44945476Y-190239819D01*
X44945476Y-190239819D02*
X45564523Y-190239819D01*
X45897857Y-189239819D02*
X46516904Y-189239819D01*
X46516904Y-189239819D02*
X46183571Y-189620771D01*
X46183571Y-189620771D02*
X46326428Y-189620771D01*
X46326428Y-189620771D02*
X46421666Y-189668390D01*
X46421666Y-189668390D02*
X46469285Y-189716009D01*
X46469285Y-189716009D02*
X46516904Y-189811247D01*
X46516904Y-189811247D02*
X46516904Y-190049342D01*
X46516904Y-190049342D02*
X46469285Y-190144580D01*
X46469285Y-190144580D02*
X46421666Y-190192200D01*
X46421666Y-190192200D02*
X46326428Y-190239819D01*
X46326428Y-190239819D02*
X46040714Y-190239819D01*
X46040714Y-190239819D02*
X45945476Y-190192200D01*
X45945476Y-190192200D02*
X45897857Y-190144580D01*
X49016905Y-173749819D02*
X49016905Y-174559342D01*
X49016905Y-174559342D02*
X49064524Y-174654580D01*
X49064524Y-174654580D02*
X49112143Y-174702200D01*
X49112143Y-174702200D02*
X49207381Y-174749819D01*
X49207381Y-174749819D02*
X49397857Y-174749819D01*
X49397857Y-174749819D02*
X49493095Y-174702200D01*
X49493095Y-174702200D02*
X49540714Y-174654580D01*
X49540714Y-174654580D02*
X49588333Y-174559342D01*
X49588333Y-174559342D02*
X49588333Y-173749819D01*
X50016905Y-173845057D02*
X50064524Y-173797438D01*
X50064524Y-173797438D02*
X50159762Y-173749819D01*
X50159762Y-173749819D02*
X50397857Y-173749819D01*
X50397857Y-173749819D02*
X50493095Y-173797438D01*
X50493095Y-173797438D02*
X50540714Y-173845057D01*
X50540714Y-173845057D02*
X50588333Y-173940295D01*
X50588333Y-173940295D02*
X50588333Y-174035533D01*
X50588333Y-174035533D02*
X50540714Y-174178390D01*
X50540714Y-174178390D02*
X49969286Y-174749819D01*
X49969286Y-174749819D02*
X50588333Y-174749819D01*
X51159762Y-174178390D02*
X51064524Y-174130771D01*
X51064524Y-174130771D02*
X51016905Y-174083152D01*
X51016905Y-174083152D02*
X50969286Y-173987914D01*
X50969286Y-173987914D02*
X50969286Y-173940295D01*
X50969286Y-173940295D02*
X51016905Y-173845057D01*
X51016905Y-173845057D02*
X51064524Y-173797438D01*
X51064524Y-173797438D02*
X51159762Y-173749819D01*
X51159762Y-173749819D02*
X51350238Y-173749819D01*
X51350238Y-173749819D02*
X51445476Y-173797438D01*
X51445476Y-173797438D02*
X51493095Y-173845057D01*
X51493095Y-173845057D02*
X51540714Y-173940295D01*
X51540714Y-173940295D02*
X51540714Y-173987914D01*
X51540714Y-173987914D02*
X51493095Y-174083152D01*
X51493095Y-174083152D02*
X51445476Y-174130771D01*
X51445476Y-174130771D02*
X51350238Y-174178390D01*
X51350238Y-174178390D02*
X51159762Y-174178390D01*
X51159762Y-174178390D02*
X51064524Y-174226009D01*
X51064524Y-174226009D02*
X51016905Y-174273628D01*
X51016905Y-174273628D02*
X50969286Y-174368866D01*
X50969286Y-174368866D02*
X50969286Y-174559342D01*
X50969286Y-174559342D02*
X51016905Y-174654580D01*
X51016905Y-174654580D02*
X51064524Y-174702200D01*
X51064524Y-174702200D02*
X51159762Y-174749819D01*
X51159762Y-174749819D02*
X51350238Y-174749819D01*
X51350238Y-174749819D02*
X51445476Y-174702200D01*
X51445476Y-174702200D02*
X51493095Y-174654580D01*
X51493095Y-174654580D02*
X51540714Y-174559342D01*
X51540714Y-174559342D02*
X51540714Y-174368866D01*
X51540714Y-174368866D02*
X51493095Y-174273628D01*
X51493095Y-174273628D02*
X51445476Y-174226009D01*
X51445476Y-174226009D02*
X51350238Y-174178390D01*
X243666667Y-101454819D02*
X243666667Y-100454819D01*
X243666667Y-100454819D02*
X244000000Y-101169104D01*
X244000000Y-101169104D02*
X244333333Y-100454819D01*
X244333333Y-100454819D02*
X244333333Y-101454819D01*
X244809524Y-101454819D02*
X244809524Y-100454819D01*
X244809524Y-100931009D02*
X245380952Y-100931009D01*
X245380952Y-101454819D02*
X245380952Y-100454819D01*
X245809524Y-100550057D02*
X245857143Y-100502438D01*
X245857143Y-100502438D02*
X245952381Y-100454819D01*
X245952381Y-100454819D02*
X246190476Y-100454819D01*
X246190476Y-100454819D02*
X246285714Y-100502438D01*
X246285714Y-100502438D02*
X246333333Y-100550057D01*
X246333333Y-100550057D02*
X246380952Y-100645295D01*
X246380952Y-100645295D02*
X246380952Y-100740533D01*
X246380952Y-100740533D02*
X246333333Y-100883390D01*
X246333333Y-100883390D02*
X245761905Y-101454819D01*
X245761905Y-101454819D02*
X246380952Y-101454819D01*
X307161905Y-149364819D02*
X307161905Y-150174342D01*
X307161905Y-150174342D02*
X307209524Y-150269580D01*
X307209524Y-150269580D02*
X307257143Y-150317200D01*
X307257143Y-150317200D02*
X307352381Y-150364819D01*
X307352381Y-150364819D02*
X307542857Y-150364819D01*
X307542857Y-150364819D02*
X307638095Y-150317200D01*
X307638095Y-150317200D02*
X307685714Y-150269580D01*
X307685714Y-150269580D02*
X307733333Y-150174342D01*
X307733333Y-150174342D02*
X307733333Y-149364819D01*
X308733333Y-150364819D02*
X308161905Y-150364819D01*
X308447619Y-150364819D02*
X308447619Y-149364819D01*
X308447619Y-149364819D02*
X308352381Y-149507676D01*
X308352381Y-149507676D02*
X308257143Y-149602914D01*
X308257143Y-149602914D02*
X308161905Y-149650533D01*
X309685714Y-150364819D02*
X309114286Y-150364819D01*
X309400000Y-150364819D02*
X309400000Y-149364819D01*
X309400000Y-149364819D02*
X309304762Y-149507676D01*
X309304762Y-149507676D02*
X309209524Y-149602914D01*
X309209524Y-149602914D02*
X309114286Y-149650533D01*
X61412142Y-141399819D02*
X61078809Y-140923628D01*
X60840714Y-141399819D02*
X60840714Y-140399819D01*
X60840714Y-140399819D02*
X61221666Y-140399819D01*
X61221666Y-140399819D02*
X61316904Y-140447438D01*
X61316904Y-140447438D02*
X61364523Y-140495057D01*
X61364523Y-140495057D02*
X61412142Y-140590295D01*
X61412142Y-140590295D02*
X61412142Y-140733152D01*
X61412142Y-140733152D02*
X61364523Y-140828390D01*
X61364523Y-140828390D02*
X61316904Y-140876009D01*
X61316904Y-140876009D02*
X61221666Y-140923628D01*
X61221666Y-140923628D02*
X60840714Y-140923628D01*
X62364523Y-141399819D02*
X61793095Y-141399819D01*
X62078809Y-141399819D02*
X62078809Y-140399819D01*
X62078809Y-140399819D02*
X61983571Y-140542676D01*
X61983571Y-140542676D02*
X61888333Y-140637914D01*
X61888333Y-140637914D02*
X61793095Y-140685533D01*
X62697857Y-140399819D02*
X63364523Y-140399819D01*
X63364523Y-140399819D02*
X62935952Y-141399819D01*
X122586905Y-47099819D02*
X122586905Y-47909342D01*
X122586905Y-47909342D02*
X122634524Y-48004580D01*
X122634524Y-48004580D02*
X122682143Y-48052200D01*
X122682143Y-48052200D02*
X122777381Y-48099819D01*
X122777381Y-48099819D02*
X122967857Y-48099819D01*
X122967857Y-48099819D02*
X123063095Y-48052200D01*
X123063095Y-48052200D02*
X123110714Y-48004580D01*
X123110714Y-48004580D02*
X123158333Y-47909342D01*
X123158333Y-47909342D02*
X123158333Y-47099819D01*
X124158333Y-48099819D02*
X123586905Y-48099819D01*
X123872619Y-48099819D02*
X123872619Y-47099819D01*
X123872619Y-47099819D02*
X123777381Y-47242676D01*
X123777381Y-47242676D02*
X123682143Y-47337914D01*
X123682143Y-47337914D02*
X123586905Y-47385533D01*
X124491667Y-47099819D02*
X125158333Y-47099819D01*
X125158333Y-47099819D02*
X124729762Y-48099819D01*
X56412142Y-141399819D02*
X56078809Y-140923628D01*
X55840714Y-141399819D02*
X55840714Y-140399819D01*
X55840714Y-140399819D02*
X56221666Y-140399819D01*
X56221666Y-140399819D02*
X56316904Y-140447438D01*
X56316904Y-140447438D02*
X56364523Y-140495057D01*
X56364523Y-140495057D02*
X56412142Y-140590295D01*
X56412142Y-140590295D02*
X56412142Y-140733152D01*
X56412142Y-140733152D02*
X56364523Y-140828390D01*
X56364523Y-140828390D02*
X56316904Y-140876009D01*
X56316904Y-140876009D02*
X56221666Y-140923628D01*
X56221666Y-140923628D02*
X55840714Y-140923628D01*
X57364523Y-141399819D02*
X56793095Y-141399819D01*
X57078809Y-141399819D02*
X57078809Y-140399819D01*
X57078809Y-140399819D02*
X56983571Y-140542676D01*
X56983571Y-140542676D02*
X56888333Y-140637914D01*
X56888333Y-140637914D02*
X56793095Y-140685533D01*
X58221666Y-140399819D02*
X58031190Y-140399819D01*
X58031190Y-140399819D02*
X57935952Y-140447438D01*
X57935952Y-140447438D02*
X57888333Y-140495057D01*
X57888333Y-140495057D02*
X57793095Y-140637914D01*
X57793095Y-140637914D02*
X57745476Y-140828390D01*
X57745476Y-140828390D02*
X57745476Y-141209342D01*
X57745476Y-141209342D02*
X57793095Y-141304580D01*
X57793095Y-141304580D02*
X57840714Y-141352200D01*
X57840714Y-141352200D02*
X57935952Y-141399819D01*
X57935952Y-141399819D02*
X58126428Y-141399819D01*
X58126428Y-141399819D02*
X58221666Y-141352200D01*
X58221666Y-141352200D02*
X58269285Y-141304580D01*
X58269285Y-141304580D02*
X58316904Y-141209342D01*
X58316904Y-141209342D02*
X58316904Y-140971247D01*
X58316904Y-140971247D02*
X58269285Y-140876009D01*
X58269285Y-140876009D02*
X58221666Y-140828390D01*
X58221666Y-140828390D02*
X58126428Y-140780771D01*
X58126428Y-140780771D02*
X57935952Y-140780771D01*
X57935952Y-140780771D02*
X57840714Y-140828390D01*
X57840714Y-140828390D02*
X57793095Y-140876009D01*
X57793095Y-140876009D02*
X57745476Y-140971247D01*
X231908095Y-63564819D02*
X231908095Y-64374342D01*
X231908095Y-64374342D02*
X231955714Y-64469580D01*
X231955714Y-64469580D02*
X232003333Y-64517200D01*
X232003333Y-64517200D02*
X232098571Y-64564819D01*
X232098571Y-64564819D02*
X232289047Y-64564819D01*
X232289047Y-64564819D02*
X232384285Y-64517200D01*
X232384285Y-64517200D02*
X232431904Y-64469580D01*
X232431904Y-64469580D02*
X232479523Y-64374342D01*
X232479523Y-64374342D02*
X232479523Y-63564819D01*
X232860476Y-63564819D02*
X233527142Y-63564819D01*
X233527142Y-63564819D02*
X233098571Y-64564819D01*
X75086905Y-26469819D02*
X75086905Y-25469819D01*
X75086905Y-25469819D02*
X75325000Y-25469819D01*
X75325000Y-25469819D02*
X75467857Y-25517438D01*
X75467857Y-25517438D02*
X75563095Y-25612676D01*
X75563095Y-25612676D02*
X75610714Y-25707914D01*
X75610714Y-25707914D02*
X75658333Y-25898390D01*
X75658333Y-25898390D02*
X75658333Y-26041247D01*
X75658333Y-26041247D02*
X75610714Y-26231723D01*
X75610714Y-26231723D02*
X75563095Y-26326961D01*
X75563095Y-26326961D02*
X75467857Y-26422200D01*
X75467857Y-26422200D02*
X75325000Y-26469819D01*
X75325000Y-26469819D02*
X75086905Y-26469819D01*
X75991667Y-25469819D02*
X76610714Y-25469819D01*
X76610714Y-25469819D02*
X76277381Y-25850771D01*
X76277381Y-25850771D02*
X76420238Y-25850771D01*
X76420238Y-25850771D02*
X76515476Y-25898390D01*
X76515476Y-25898390D02*
X76563095Y-25946009D01*
X76563095Y-25946009D02*
X76610714Y-26041247D01*
X76610714Y-26041247D02*
X76610714Y-26279342D01*
X76610714Y-26279342D02*
X76563095Y-26374580D01*
X76563095Y-26374580D02*
X76515476Y-26422200D01*
X76515476Y-26422200D02*
X76420238Y-26469819D01*
X76420238Y-26469819D02*
X76134524Y-26469819D01*
X76134524Y-26469819D02*
X76039286Y-26422200D01*
X76039286Y-26422200D02*
X75991667Y-26374580D01*
X277161905Y-161364819D02*
X277161905Y-162174342D01*
X277161905Y-162174342D02*
X277209524Y-162269580D01*
X277209524Y-162269580D02*
X277257143Y-162317200D01*
X277257143Y-162317200D02*
X277352381Y-162364819D01*
X277352381Y-162364819D02*
X277542857Y-162364819D01*
X277542857Y-162364819D02*
X277638095Y-162317200D01*
X277638095Y-162317200D02*
X277685714Y-162269580D01*
X277685714Y-162269580D02*
X277733333Y-162174342D01*
X277733333Y-162174342D02*
X277733333Y-161364819D01*
X278733333Y-162364819D02*
X278161905Y-162364819D01*
X278447619Y-162364819D02*
X278447619Y-161364819D01*
X278447619Y-161364819D02*
X278352381Y-161507676D01*
X278352381Y-161507676D02*
X278257143Y-161602914D01*
X278257143Y-161602914D02*
X278161905Y-161650533D01*
X279114286Y-161460057D02*
X279161905Y-161412438D01*
X279161905Y-161412438D02*
X279257143Y-161364819D01*
X279257143Y-161364819D02*
X279495238Y-161364819D01*
X279495238Y-161364819D02*
X279590476Y-161412438D01*
X279590476Y-161412438D02*
X279638095Y-161460057D01*
X279638095Y-161460057D02*
X279685714Y-161555295D01*
X279685714Y-161555295D02*
X279685714Y-161650533D01*
X279685714Y-161650533D02*
X279638095Y-161793390D01*
X279638095Y-161793390D02*
X279066667Y-162364819D01*
X279066667Y-162364819D02*
X279685714Y-162364819D01*
X66412142Y-141399819D02*
X66078809Y-140923628D01*
X65840714Y-141399819D02*
X65840714Y-140399819D01*
X65840714Y-140399819D02*
X66221666Y-140399819D01*
X66221666Y-140399819D02*
X66316904Y-140447438D01*
X66316904Y-140447438D02*
X66364523Y-140495057D01*
X66364523Y-140495057D02*
X66412142Y-140590295D01*
X66412142Y-140590295D02*
X66412142Y-140733152D01*
X66412142Y-140733152D02*
X66364523Y-140828390D01*
X66364523Y-140828390D02*
X66316904Y-140876009D01*
X66316904Y-140876009D02*
X66221666Y-140923628D01*
X66221666Y-140923628D02*
X65840714Y-140923628D01*
X67364523Y-141399819D02*
X66793095Y-141399819D01*
X67078809Y-141399819D02*
X67078809Y-140399819D01*
X67078809Y-140399819D02*
X66983571Y-140542676D01*
X66983571Y-140542676D02*
X66888333Y-140637914D01*
X66888333Y-140637914D02*
X66793095Y-140685533D01*
X67935952Y-140828390D02*
X67840714Y-140780771D01*
X67840714Y-140780771D02*
X67793095Y-140733152D01*
X67793095Y-140733152D02*
X67745476Y-140637914D01*
X67745476Y-140637914D02*
X67745476Y-140590295D01*
X67745476Y-140590295D02*
X67793095Y-140495057D01*
X67793095Y-140495057D02*
X67840714Y-140447438D01*
X67840714Y-140447438D02*
X67935952Y-140399819D01*
X67935952Y-140399819D02*
X68126428Y-140399819D01*
X68126428Y-140399819D02*
X68221666Y-140447438D01*
X68221666Y-140447438D02*
X68269285Y-140495057D01*
X68269285Y-140495057D02*
X68316904Y-140590295D01*
X68316904Y-140590295D02*
X68316904Y-140637914D01*
X68316904Y-140637914D02*
X68269285Y-140733152D01*
X68269285Y-140733152D02*
X68221666Y-140780771D01*
X68221666Y-140780771D02*
X68126428Y-140828390D01*
X68126428Y-140828390D02*
X67935952Y-140828390D01*
X67935952Y-140828390D02*
X67840714Y-140876009D01*
X67840714Y-140876009D02*
X67793095Y-140923628D01*
X67793095Y-140923628D02*
X67745476Y-141018866D01*
X67745476Y-141018866D02*
X67745476Y-141209342D01*
X67745476Y-141209342D02*
X67793095Y-141304580D01*
X67793095Y-141304580D02*
X67840714Y-141352200D01*
X67840714Y-141352200D02*
X67935952Y-141399819D01*
X67935952Y-141399819D02*
X68126428Y-141399819D01*
X68126428Y-141399819D02*
X68221666Y-141352200D01*
X68221666Y-141352200D02*
X68269285Y-141304580D01*
X68269285Y-141304580D02*
X68316904Y-141209342D01*
X68316904Y-141209342D02*
X68316904Y-141018866D01*
X68316904Y-141018866D02*
X68269285Y-140923628D01*
X68269285Y-140923628D02*
X68221666Y-140876009D01*
X68221666Y-140876009D02*
X68126428Y-140828390D01*
X267076666Y-51464819D02*
X267076666Y-52179104D01*
X267076666Y-52179104D02*
X267029047Y-52321961D01*
X267029047Y-52321961D02*
X266933809Y-52417200D01*
X266933809Y-52417200D02*
X266790952Y-52464819D01*
X266790952Y-52464819D02*
X266695714Y-52464819D01*
X267457619Y-51464819D02*
X268076666Y-51464819D01*
X268076666Y-51464819D02*
X267743333Y-51845771D01*
X267743333Y-51845771D02*
X267886190Y-51845771D01*
X267886190Y-51845771D02*
X267981428Y-51893390D01*
X267981428Y-51893390D02*
X268029047Y-51941009D01*
X268029047Y-51941009D02*
X268076666Y-52036247D01*
X268076666Y-52036247D02*
X268076666Y-52274342D01*
X268076666Y-52274342D02*
X268029047Y-52369580D01*
X268029047Y-52369580D02*
X267981428Y-52417200D01*
X267981428Y-52417200D02*
X267886190Y-52464819D01*
X267886190Y-52464819D02*
X267600476Y-52464819D01*
X267600476Y-52464819D02*
X267505238Y-52417200D01*
X267505238Y-52417200D02*
X267457619Y-52369580D01*
X113015476Y-38909819D02*
X113015476Y-39624104D01*
X113015476Y-39624104D02*
X112967857Y-39766961D01*
X112967857Y-39766961D02*
X112872619Y-39862200D01*
X112872619Y-39862200D02*
X112729762Y-39909819D01*
X112729762Y-39909819D02*
X112634524Y-39909819D01*
X114015476Y-39909819D02*
X113444048Y-39909819D01*
X113729762Y-39909819D02*
X113729762Y-38909819D01*
X113729762Y-38909819D02*
X113634524Y-39052676D01*
X113634524Y-39052676D02*
X113539286Y-39147914D01*
X113539286Y-39147914D02*
X113444048Y-39195533D01*
X114967857Y-39909819D02*
X114396429Y-39909819D01*
X114682143Y-39909819D02*
X114682143Y-38909819D01*
X114682143Y-38909819D02*
X114586905Y-39052676D01*
X114586905Y-39052676D02*
X114491667Y-39147914D01*
X114491667Y-39147914D02*
X114396429Y-39195533D01*
X76096667Y-35187200D02*
X76239524Y-35234819D01*
X76239524Y-35234819D02*
X76477619Y-35234819D01*
X76477619Y-35234819D02*
X76572857Y-35187200D01*
X76572857Y-35187200D02*
X76620476Y-35139580D01*
X76620476Y-35139580D02*
X76668095Y-35044342D01*
X76668095Y-35044342D02*
X76668095Y-34949104D01*
X76668095Y-34949104D02*
X76620476Y-34853866D01*
X76620476Y-34853866D02*
X76572857Y-34806247D01*
X76572857Y-34806247D02*
X76477619Y-34758628D01*
X76477619Y-34758628D02*
X76287143Y-34711009D01*
X76287143Y-34711009D02*
X76191905Y-34663390D01*
X76191905Y-34663390D02*
X76144286Y-34615771D01*
X76144286Y-34615771D02*
X76096667Y-34520533D01*
X76096667Y-34520533D02*
X76096667Y-34425295D01*
X76096667Y-34425295D02*
X76144286Y-34330057D01*
X76144286Y-34330057D02*
X76191905Y-34282438D01*
X76191905Y-34282438D02*
X76287143Y-34234819D01*
X76287143Y-34234819D02*
X76525238Y-34234819D01*
X76525238Y-34234819D02*
X76668095Y-34282438D01*
X77001429Y-34234819D02*
X77239524Y-35234819D01*
X77239524Y-35234819D02*
X77430000Y-34520533D01*
X77430000Y-34520533D02*
X77620476Y-35234819D01*
X77620476Y-35234819D02*
X77858572Y-34234819D01*
X78191905Y-34330057D02*
X78239524Y-34282438D01*
X78239524Y-34282438D02*
X78334762Y-34234819D01*
X78334762Y-34234819D02*
X78572857Y-34234819D01*
X78572857Y-34234819D02*
X78668095Y-34282438D01*
X78668095Y-34282438D02*
X78715714Y-34330057D01*
X78715714Y-34330057D02*
X78763333Y-34425295D01*
X78763333Y-34425295D02*
X78763333Y-34520533D01*
X78763333Y-34520533D02*
X78715714Y-34663390D01*
X78715714Y-34663390D02*
X78144286Y-35234819D01*
X78144286Y-35234819D02*
X78763333Y-35234819D01*
X81086905Y-26469819D02*
X81086905Y-25469819D01*
X81086905Y-25469819D02*
X81325000Y-25469819D01*
X81325000Y-25469819D02*
X81467857Y-25517438D01*
X81467857Y-25517438D02*
X81563095Y-25612676D01*
X81563095Y-25612676D02*
X81610714Y-25707914D01*
X81610714Y-25707914D02*
X81658333Y-25898390D01*
X81658333Y-25898390D02*
X81658333Y-26041247D01*
X81658333Y-26041247D02*
X81610714Y-26231723D01*
X81610714Y-26231723D02*
X81563095Y-26326961D01*
X81563095Y-26326961D02*
X81467857Y-26422200D01*
X81467857Y-26422200D02*
X81325000Y-26469819D01*
X81325000Y-26469819D02*
X81086905Y-26469819D01*
X82515476Y-25803152D02*
X82515476Y-26469819D01*
X82277381Y-25422200D02*
X82039286Y-26136485D01*
X82039286Y-26136485D02*
X82658333Y-26136485D01*
X231908095Y-33764819D02*
X231908095Y-34574342D01*
X231908095Y-34574342D02*
X231955714Y-34669580D01*
X231955714Y-34669580D02*
X232003333Y-34717200D01*
X232003333Y-34717200D02*
X232098571Y-34764819D01*
X232098571Y-34764819D02*
X232289047Y-34764819D01*
X232289047Y-34764819D02*
X232384285Y-34717200D01*
X232384285Y-34717200D02*
X232431904Y-34669580D01*
X232431904Y-34669580D02*
X232479523Y-34574342D01*
X232479523Y-34574342D02*
X232479523Y-33764819D01*
X233431904Y-33764819D02*
X232955714Y-33764819D01*
X232955714Y-33764819D02*
X232908095Y-34241009D01*
X232908095Y-34241009D02*
X232955714Y-34193390D01*
X232955714Y-34193390D02*
X233050952Y-34145771D01*
X233050952Y-34145771D02*
X233289047Y-34145771D01*
X233289047Y-34145771D02*
X233384285Y-34193390D01*
X233384285Y-34193390D02*
X233431904Y-34241009D01*
X233431904Y-34241009D02*
X233479523Y-34336247D01*
X233479523Y-34336247D02*
X233479523Y-34574342D01*
X233479523Y-34574342D02*
X233431904Y-34669580D01*
X233431904Y-34669580D02*
X233384285Y-34717200D01*
X233384285Y-34717200D02*
X233289047Y-34764819D01*
X233289047Y-34764819D02*
X233050952Y-34764819D01*
X233050952Y-34764819D02*
X232955714Y-34717200D01*
X232955714Y-34717200D02*
X232908095Y-34669580D01*
X241908095Y-31134819D02*
X241908095Y-31944342D01*
X241908095Y-31944342D02*
X241955714Y-32039580D01*
X241955714Y-32039580D02*
X242003333Y-32087200D01*
X242003333Y-32087200D02*
X242098571Y-32134819D01*
X242098571Y-32134819D02*
X242289047Y-32134819D01*
X242289047Y-32134819D02*
X242384285Y-32087200D01*
X242384285Y-32087200D02*
X242431904Y-32039580D01*
X242431904Y-32039580D02*
X242479523Y-31944342D01*
X242479523Y-31944342D02*
X242479523Y-31134819D01*
X242908095Y-31230057D02*
X242955714Y-31182438D01*
X242955714Y-31182438D02*
X243050952Y-31134819D01*
X243050952Y-31134819D02*
X243289047Y-31134819D01*
X243289047Y-31134819D02*
X243384285Y-31182438D01*
X243384285Y-31182438D02*
X243431904Y-31230057D01*
X243431904Y-31230057D02*
X243479523Y-31325295D01*
X243479523Y-31325295D02*
X243479523Y-31420533D01*
X243479523Y-31420533D02*
X243431904Y-31563390D01*
X243431904Y-31563390D02*
X242860476Y-32134819D01*
X242860476Y-32134819D02*
X243479523Y-32134819D01*
X241908095Y-63764819D02*
X241908095Y-64574342D01*
X241908095Y-64574342D02*
X241955714Y-64669580D01*
X241955714Y-64669580D02*
X242003333Y-64717200D01*
X242003333Y-64717200D02*
X242098571Y-64764819D01*
X242098571Y-64764819D02*
X242289047Y-64764819D01*
X242289047Y-64764819D02*
X242384285Y-64717200D01*
X242384285Y-64717200D02*
X242431904Y-64669580D01*
X242431904Y-64669580D02*
X242479523Y-64574342D01*
X242479523Y-64574342D02*
X242479523Y-63764819D01*
X243384285Y-64098152D02*
X243384285Y-64764819D01*
X243146190Y-63717200D02*
X242908095Y-64431485D01*
X242908095Y-64431485D02*
X243527142Y-64431485D01*
X219764405Y-60734819D02*
X219764405Y-61544342D01*
X219764405Y-61544342D02*
X219812024Y-61639580D01*
X219812024Y-61639580D02*
X219859643Y-61687200D01*
X219859643Y-61687200D02*
X219954881Y-61734819D01*
X219954881Y-61734819D02*
X220145357Y-61734819D01*
X220145357Y-61734819D02*
X220240595Y-61687200D01*
X220240595Y-61687200D02*
X220288214Y-61639580D01*
X220288214Y-61639580D02*
X220335833Y-61544342D01*
X220335833Y-61544342D02*
X220335833Y-60734819D01*
X221335833Y-61734819D02*
X220764405Y-61734819D01*
X221050119Y-61734819D02*
X221050119Y-60734819D01*
X221050119Y-60734819D02*
X220954881Y-60877676D01*
X220954881Y-60877676D02*
X220859643Y-60972914D01*
X220859643Y-60972914D02*
X220764405Y-61020533D01*
X221954881Y-60734819D02*
X222050119Y-60734819D01*
X222050119Y-60734819D02*
X222145357Y-60782438D01*
X222145357Y-60782438D02*
X222192976Y-60830057D01*
X222192976Y-60830057D02*
X222240595Y-60925295D01*
X222240595Y-60925295D02*
X222288214Y-61115771D01*
X222288214Y-61115771D02*
X222288214Y-61353866D01*
X222288214Y-61353866D02*
X222240595Y-61544342D01*
X222240595Y-61544342D02*
X222192976Y-61639580D01*
X222192976Y-61639580D02*
X222145357Y-61687200D01*
X222145357Y-61687200D02*
X222050119Y-61734819D01*
X222050119Y-61734819D02*
X221954881Y-61734819D01*
X221954881Y-61734819D02*
X221859643Y-61687200D01*
X221859643Y-61687200D02*
X221812024Y-61639580D01*
X221812024Y-61639580D02*
X221764405Y-61544342D01*
X221764405Y-61544342D02*
X221716786Y-61353866D01*
X221716786Y-61353866D02*
X221716786Y-61115771D01*
X221716786Y-61115771D02*
X221764405Y-60925295D01*
X221764405Y-60925295D02*
X221812024Y-60830057D01*
X221812024Y-60830057D02*
X221859643Y-60782438D01*
X221859643Y-60782438D02*
X221954881Y-60734819D01*
X51412142Y-141399819D02*
X51078809Y-140923628D01*
X50840714Y-141399819D02*
X50840714Y-140399819D01*
X50840714Y-140399819D02*
X51221666Y-140399819D01*
X51221666Y-140399819D02*
X51316904Y-140447438D01*
X51316904Y-140447438D02*
X51364523Y-140495057D01*
X51364523Y-140495057D02*
X51412142Y-140590295D01*
X51412142Y-140590295D02*
X51412142Y-140733152D01*
X51412142Y-140733152D02*
X51364523Y-140828390D01*
X51364523Y-140828390D02*
X51316904Y-140876009D01*
X51316904Y-140876009D02*
X51221666Y-140923628D01*
X51221666Y-140923628D02*
X50840714Y-140923628D01*
X52364523Y-141399819D02*
X51793095Y-141399819D01*
X52078809Y-141399819D02*
X52078809Y-140399819D01*
X52078809Y-140399819D02*
X51983571Y-140542676D01*
X51983571Y-140542676D02*
X51888333Y-140637914D01*
X51888333Y-140637914D02*
X51793095Y-140685533D01*
X53269285Y-140399819D02*
X52793095Y-140399819D01*
X52793095Y-140399819D02*
X52745476Y-140876009D01*
X52745476Y-140876009D02*
X52793095Y-140828390D01*
X52793095Y-140828390D02*
X52888333Y-140780771D01*
X52888333Y-140780771D02*
X53126428Y-140780771D01*
X53126428Y-140780771D02*
X53221666Y-140828390D01*
X53221666Y-140828390D02*
X53269285Y-140876009D01*
X53269285Y-140876009D02*
X53316904Y-140971247D01*
X53316904Y-140971247D02*
X53316904Y-141209342D01*
X53316904Y-141209342D02*
X53269285Y-141304580D01*
X53269285Y-141304580D02*
X53221666Y-141352200D01*
X53221666Y-141352200D02*
X53126428Y-141399819D01*
X53126428Y-141399819D02*
X52888333Y-141399819D01*
X52888333Y-141399819D02*
X52793095Y-141352200D01*
X52793095Y-141352200D02*
X52745476Y-141304580D01*
X267076666Y-39464819D02*
X267076666Y-40179104D01*
X267076666Y-40179104D02*
X267029047Y-40321961D01*
X267029047Y-40321961D02*
X266933809Y-40417200D01*
X266933809Y-40417200D02*
X266790952Y-40464819D01*
X266790952Y-40464819D02*
X266695714Y-40464819D01*
X267505238Y-39560057D02*
X267552857Y-39512438D01*
X267552857Y-39512438D02*
X267648095Y-39464819D01*
X267648095Y-39464819D02*
X267886190Y-39464819D01*
X267886190Y-39464819D02*
X267981428Y-39512438D01*
X267981428Y-39512438D02*
X268029047Y-39560057D01*
X268029047Y-39560057D02*
X268076666Y-39655295D01*
X268076666Y-39655295D02*
X268076666Y-39750533D01*
X268076666Y-39750533D02*
X268029047Y-39893390D01*
X268029047Y-39893390D02*
X267457619Y-40464819D01*
X267457619Y-40464819D02*
X268076666Y-40464819D01*
X51412142Y-146399819D02*
X51078809Y-145923628D01*
X50840714Y-146399819D02*
X50840714Y-145399819D01*
X50840714Y-145399819D02*
X51221666Y-145399819D01*
X51221666Y-145399819D02*
X51316904Y-145447438D01*
X51316904Y-145447438D02*
X51364523Y-145495057D01*
X51364523Y-145495057D02*
X51412142Y-145590295D01*
X51412142Y-145590295D02*
X51412142Y-145733152D01*
X51412142Y-145733152D02*
X51364523Y-145828390D01*
X51364523Y-145828390D02*
X51316904Y-145876009D01*
X51316904Y-145876009D02*
X51221666Y-145923628D01*
X51221666Y-145923628D02*
X50840714Y-145923628D01*
X51793095Y-145495057D02*
X51840714Y-145447438D01*
X51840714Y-145447438D02*
X51935952Y-145399819D01*
X51935952Y-145399819D02*
X52174047Y-145399819D01*
X52174047Y-145399819D02*
X52269285Y-145447438D01*
X52269285Y-145447438D02*
X52316904Y-145495057D01*
X52316904Y-145495057D02*
X52364523Y-145590295D01*
X52364523Y-145590295D02*
X52364523Y-145685533D01*
X52364523Y-145685533D02*
X52316904Y-145828390D01*
X52316904Y-145828390D02*
X51745476Y-146399819D01*
X51745476Y-146399819D02*
X52364523Y-146399819D01*
X53316904Y-146399819D02*
X52745476Y-146399819D01*
X53031190Y-146399819D02*
X53031190Y-145399819D01*
X53031190Y-145399819D02*
X52935952Y-145542676D01*
X52935952Y-145542676D02*
X52840714Y-145637914D01*
X52840714Y-145637914D02*
X52745476Y-145685533D01*
X267076666Y-27464819D02*
X267076666Y-28179104D01*
X267076666Y-28179104D02*
X267029047Y-28321961D01*
X267029047Y-28321961D02*
X266933809Y-28417200D01*
X266933809Y-28417200D02*
X266790952Y-28464819D01*
X266790952Y-28464819D02*
X266695714Y-28464819D01*
X268076666Y-28464819D02*
X267505238Y-28464819D01*
X267790952Y-28464819D02*
X267790952Y-27464819D01*
X267790952Y-27464819D02*
X267695714Y-27607676D01*
X267695714Y-27607676D02*
X267600476Y-27702914D01*
X267600476Y-27702914D02*
X267505238Y-27750533D01*
X20040714Y-127969819D02*
X20040714Y-126969819D01*
X20040714Y-126969819D02*
X20278809Y-126969819D01*
X20278809Y-126969819D02*
X20421666Y-127017438D01*
X20421666Y-127017438D02*
X20516904Y-127112676D01*
X20516904Y-127112676D02*
X20564523Y-127207914D01*
X20564523Y-127207914D02*
X20612142Y-127398390D01*
X20612142Y-127398390D02*
X20612142Y-127541247D01*
X20612142Y-127541247D02*
X20564523Y-127731723D01*
X20564523Y-127731723D02*
X20516904Y-127826961D01*
X20516904Y-127826961D02*
X20421666Y-127922200D01*
X20421666Y-127922200D02*
X20278809Y-127969819D01*
X20278809Y-127969819D02*
X20040714Y-127969819D01*
X21564523Y-127969819D02*
X20993095Y-127969819D01*
X21278809Y-127969819D02*
X21278809Y-126969819D01*
X21278809Y-126969819D02*
X21183571Y-127112676D01*
X21183571Y-127112676D02*
X21088333Y-127207914D01*
X21088333Y-127207914D02*
X20993095Y-127255533D01*
X22421666Y-127303152D02*
X22421666Y-127969819D01*
X22183571Y-126922200D02*
X21945476Y-127636485D01*
X21945476Y-127636485D02*
X22564523Y-127636485D01*
X14040714Y-127969819D02*
X14040714Y-126969819D01*
X14040714Y-126969819D02*
X14278809Y-126969819D01*
X14278809Y-126969819D02*
X14421666Y-127017438D01*
X14421666Y-127017438D02*
X14516904Y-127112676D01*
X14516904Y-127112676D02*
X14564523Y-127207914D01*
X14564523Y-127207914D02*
X14612142Y-127398390D01*
X14612142Y-127398390D02*
X14612142Y-127541247D01*
X14612142Y-127541247D02*
X14564523Y-127731723D01*
X14564523Y-127731723D02*
X14516904Y-127826961D01*
X14516904Y-127826961D02*
X14421666Y-127922200D01*
X14421666Y-127922200D02*
X14278809Y-127969819D01*
X14278809Y-127969819D02*
X14040714Y-127969819D01*
X15564523Y-127969819D02*
X14993095Y-127969819D01*
X15278809Y-127969819D02*
X15278809Y-126969819D01*
X15278809Y-126969819D02*
X15183571Y-127112676D01*
X15183571Y-127112676D02*
X15088333Y-127207914D01*
X15088333Y-127207914D02*
X14993095Y-127255533D01*
X15897857Y-126969819D02*
X16516904Y-126969819D01*
X16516904Y-126969819D02*
X16183571Y-127350771D01*
X16183571Y-127350771D02*
X16326428Y-127350771D01*
X16326428Y-127350771D02*
X16421666Y-127398390D01*
X16421666Y-127398390D02*
X16469285Y-127446009D01*
X16469285Y-127446009D02*
X16516904Y-127541247D01*
X16516904Y-127541247D02*
X16516904Y-127779342D01*
X16516904Y-127779342D02*
X16469285Y-127874580D01*
X16469285Y-127874580D02*
X16421666Y-127922200D01*
X16421666Y-127922200D02*
X16326428Y-127969819D01*
X16326428Y-127969819D02*
X16040714Y-127969819D01*
X16040714Y-127969819D02*
X15945476Y-127922200D01*
X15945476Y-127922200D02*
X15897857Y-127874580D01*
X19612142Y-165144580D02*
X19564523Y-165192200D01*
X19564523Y-165192200D02*
X19421666Y-165239819D01*
X19421666Y-165239819D02*
X19326428Y-165239819D01*
X19326428Y-165239819D02*
X19183571Y-165192200D01*
X19183571Y-165192200D02*
X19088333Y-165096961D01*
X19088333Y-165096961D02*
X19040714Y-165001723D01*
X19040714Y-165001723D02*
X18993095Y-164811247D01*
X18993095Y-164811247D02*
X18993095Y-164668390D01*
X18993095Y-164668390D02*
X19040714Y-164477914D01*
X19040714Y-164477914D02*
X19088333Y-164382676D01*
X19088333Y-164382676D02*
X19183571Y-164287438D01*
X19183571Y-164287438D02*
X19326428Y-164239819D01*
X19326428Y-164239819D02*
X19421666Y-164239819D01*
X19421666Y-164239819D02*
X19564523Y-164287438D01*
X19564523Y-164287438D02*
X19612142Y-164335057D01*
X19993095Y-164335057D02*
X20040714Y-164287438D01*
X20040714Y-164287438D02*
X20135952Y-164239819D01*
X20135952Y-164239819D02*
X20374047Y-164239819D01*
X20374047Y-164239819D02*
X20469285Y-164287438D01*
X20469285Y-164287438D02*
X20516904Y-164335057D01*
X20516904Y-164335057D02*
X20564523Y-164430295D01*
X20564523Y-164430295D02*
X20564523Y-164525533D01*
X20564523Y-164525533D02*
X20516904Y-164668390D01*
X20516904Y-164668390D02*
X19945476Y-165239819D01*
X19945476Y-165239819D02*
X20564523Y-165239819D01*
X21183571Y-164239819D02*
X21278809Y-164239819D01*
X21278809Y-164239819D02*
X21374047Y-164287438D01*
X21374047Y-164287438D02*
X21421666Y-164335057D01*
X21421666Y-164335057D02*
X21469285Y-164430295D01*
X21469285Y-164430295D02*
X21516904Y-164620771D01*
X21516904Y-164620771D02*
X21516904Y-164858866D01*
X21516904Y-164858866D02*
X21469285Y-165049342D01*
X21469285Y-165049342D02*
X21421666Y-165144580D01*
X21421666Y-165144580D02*
X21374047Y-165192200D01*
X21374047Y-165192200D02*
X21278809Y-165239819D01*
X21278809Y-165239819D02*
X21183571Y-165239819D01*
X21183571Y-165239819D02*
X21088333Y-165192200D01*
X21088333Y-165192200D02*
X21040714Y-165144580D01*
X21040714Y-165144580D02*
X20993095Y-165049342D01*
X20993095Y-165049342D02*
X20945476Y-164858866D01*
X20945476Y-164858866D02*
X20945476Y-164620771D01*
X20945476Y-164620771D02*
X20993095Y-164430295D01*
X20993095Y-164430295D02*
X21040714Y-164335057D01*
X21040714Y-164335057D02*
X21088333Y-164287438D01*
X21088333Y-164287438D02*
X21183571Y-164239819D01*
X122586905Y-35499819D02*
X122586905Y-36309342D01*
X122586905Y-36309342D02*
X122634524Y-36404580D01*
X122634524Y-36404580D02*
X122682143Y-36452200D01*
X122682143Y-36452200D02*
X122777381Y-36499819D01*
X122777381Y-36499819D02*
X122967857Y-36499819D01*
X122967857Y-36499819D02*
X123063095Y-36452200D01*
X123063095Y-36452200D02*
X123110714Y-36404580D01*
X123110714Y-36404580D02*
X123158333Y-36309342D01*
X123158333Y-36309342D02*
X123158333Y-35499819D01*
X124158333Y-36499819D02*
X123586905Y-36499819D01*
X123872619Y-36499819D02*
X123872619Y-35499819D01*
X123872619Y-35499819D02*
X123777381Y-35642676D01*
X123777381Y-35642676D02*
X123682143Y-35737914D01*
X123682143Y-35737914D02*
X123586905Y-35785533D01*
X125015476Y-35833152D02*
X125015476Y-36499819D01*
X124777381Y-35452200D02*
X124539286Y-36166485D01*
X124539286Y-36166485D02*
X125158333Y-36166485D01*
X136131905Y-373264819D02*
X136131905Y-374074342D01*
X136131905Y-374074342D02*
X136179524Y-374169580D01*
X136179524Y-374169580D02*
X136227143Y-374217200D01*
X136227143Y-374217200D02*
X136322381Y-374264819D01*
X136322381Y-374264819D02*
X136512857Y-374264819D01*
X136512857Y-374264819D02*
X136608095Y-374217200D01*
X136608095Y-374217200D02*
X136655714Y-374169580D01*
X136655714Y-374169580D02*
X136703333Y-374074342D01*
X136703333Y-374074342D02*
X136703333Y-373264819D01*
X137608095Y-373598152D02*
X137608095Y-374264819D01*
X137370000Y-373217200D02*
X137131905Y-373931485D01*
X137131905Y-373931485D02*
X137750952Y-373931485D01*
X138560476Y-373598152D02*
X138560476Y-374264819D01*
X138322381Y-373217200D02*
X138084286Y-373931485D01*
X138084286Y-373931485D02*
X138703333Y-373931485D01*
X103491666Y-54519819D02*
X103491666Y-55234104D01*
X103491666Y-55234104D02*
X103444047Y-55376961D01*
X103444047Y-55376961D02*
X103348809Y-55472200D01*
X103348809Y-55472200D02*
X103205952Y-55519819D01*
X103205952Y-55519819D02*
X103110714Y-55519819D01*
X104015476Y-55519819D02*
X104205952Y-55519819D01*
X104205952Y-55519819D02*
X104301190Y-55472200D01*
X104301190Y-55472200D02*
X104348809Y-55424580D01*
X104348809Y-55424580D02*
X104444047Y-55281723D01*
X104444047Y-55281723D02*
X104491666Y-55091247D01*
X104491666Y-55091247D02*
X104491666Y-54710295D01*
X104491666Y-54710295D02*
X104444047Y-54615057D01*
X104444047Y-54615057D02*
X104396428Y-54567438D01*
X104396428Y-54567438D02*
X104301190Y-54519819D01*
X104301190Y-54519819D02*
X104110714Y-54519819D01*
X104110714Y-54519819D02*
X104015476Y-54567438D01*
X104015476Y-54567438D02*
X103967857Y-54615057D01*
X103967857Y-54615057D02*
X103920238Y-54710295D01*
X103920238Y-54710295D02*
X103920238Y-54948390D01*
X103920238Y-54948390D02*
X103967857Y-55043628D01*
X103967857Y-55043628D02*
X104015476Y-55091247D01*
X104015476Y-55091247D02*
X104110714Y-55138866D01*
X104110714Y-55138866D02*
X104301190Y-55138866D01*
X104301190Y-55138866D02*
X104396428Y-55091247D01*
X104396428Y-55091247D02*
X104444047Y-55043628D01*
X104444047Y-55043628D02*
X104491666Y-54948390D01*
X34016905Y-173749819D02*
X34016905Y-174559342D01*
X34016905Y-174559342D02*
X34064524Y-174654580D01*
X34064524Y-174654580D02*
X34112143Y-174702200D01*
X34112143Y-174702200D02*
X34207381Y-174749819D01*
X34207381Y-174749819D02*
X34397857Y-174749819D01*
X34397857Y-174749819D02*
X34493095Y-174702200D01*
X34493095Y-174702200D02*
X34540714Y-174654580D01*
X34540714Y-174654580D02*
X34588333Y-174559342D01*
X34588333Y-174559342D02*
X34588333Y-173749819D01*
X35016905Y-173845057D02*
X35064524Y-173797438D01*
X35064524Y-173797438D02*
X35159762Y-173749819D01*
X35159762Y-173749819D02*
X35397857Y-173749819D01*
X35397857Y-173749819D02*
X35493095Y-173797438D01*
X35493095Y-173797438D02*
X35540714Y-173845057D01*
X35540714Y-173845057D02*
X35588333Y-173940295D01*
X35588333Y-173940295D02*
X35588333Y-174035533D01*
X35588333Y-174035533D02*
X35540714Y-174178390D01*
X35540714Y-174178390D02*
X34969286Y-174749819D01*
X34969286Y-174749819D02*
X35588333Y-174749819D01*
X35921667Y-173749819D02*
X36588333Y-173749819D01*
X36588333Y-173749819D02*
X36159762Y-174749819D01*
X69086905Y-26469819D02*
X69086905Y-25469819D01*
X69086905Y-25469819D02*
X69325000Y-25469819D01*
X69325000Y-25469819D02*
X69467857Y-25517438D01*
X69467857Y-25517438D02*
X69563095Y-25612676D01*
X69563095Y-25612676D02*
X69610714Y-25707914D01*
X69610714Y-25707914D02*
X69658333Y-25898390D01*
X69658333Y-25898390D02*
X69658333Y-26041247D01*
X69658333Y-26041247D02*
X69610714Y-26231723D01*
X69610714Y-26231723D02*
X69563095Y-26326961D01*
X69563095Y-26326961D02*
X69467857Y-26422200D01*
X69467857Y-26422200D02*
X69325000Y-26469819D01*
X69325000Y-26469819D02*
X69086905Y-26469819D01*
X70039286Y-25565057D02*
X70086905Y-25517438D01*
X70086905Y-25517438D02*
X70182143Y-25469819D01*
X70182143Y-25469819D02*
X70420238Y-25469819D01*
X70420238Y-25469819D02*
X70515476Y-25517438D01*
X70515476Y-25517438D02*
X70563095Y-25565057D01*
X70563095Y-25565057D02*
X70610714Y-25660295D01*
X70610714Y-25660295D02*
X70610714Y-25755533D01*
X70610714Y-25755533D02*
X70563095Y-25898390D01*
X70563095Y-25898390D02*
X69991667Y-26469819D01*
X69991667Y-26469819D02*
X70610714Y-26469819D01*
X66096667Y-35187200D02*
X66239524Y-35234819D01*
X66239524Y-35234819D02*
X66477619Y-35234819D01*
X66477619Y-35234819D02*
X66572857Y-35187200D01*
X66572857Y-35187200D02*
X66620476Y-35139580D01*
X66620476Y-35139580D02*
X66668095Y-35044342D01*
X66668095Y-35044342D02*
X66668095Y-34949104D01*
X66668095Y-34949104D02*
X66620476Y-34853866D01*
X66620476Y-34853866D02*
X66572857Y-34806247D01*
X66572857Y-34806247D02*
X66477619Y-34758628D01*
X66477619Y-34758628D02*
X66287143Y-34711009D01*
X66287143Y-34711009D02*
X66191905Y-34663390D01*
X66191905Y-34663390D02*
X66144286Y-34615771D01*
X66144286Y-34615771D02*
X66096667Y-34520533D01*
X66096667Y-34520533D02*
X66096667Y-34425295D01*
X66096667Y-34425295D02*
X66144286Y-34330057D01*
X66144286Y-34330057D02*
X66191905Y-34282438D01*
X66191905Y-34282438D02*
X66287143Y-34234819D01*
X66287143Y-34234819D02*
X66525238Y-34234819D01*
X66525238Y-34234819D02*
X66668095Y-34282438D01*
X67001429Y-34234819D02*
X67239524Y-35234819D01*
X67239524Y-35234819D02*
X67430000Y-34520533D01*
X67430000Y-34520533D02*
X67620476Y-35234819D01*
X67620476Y-35234819D02*
X67858572Y-34234819D01*
X68763333Y-35234819D02*
X68191905Y-35234819D01*
X68477619Y-35234819D02*
X68477619Y-34234819D01*
X68477619Y-34234819D02*
X68382381Y-34377676D01*
X68382381Y-34377676D02*
X68287143Y-34472914D01*
X68287143Y-34472914D02*
X68191905Y-34520533D01*
X136131905Y-371264819D02*
X136131905Y-372074342D01*
X136131905Y-372074342D02*
X136179524Y-372169580D01*
X136179524Y-372169580D02*
X136227143Y-372217200D01*
X136227143Y-372217200D02*
X136322381Y-372264819D01*
X136322381Y-372264819D02*
X136512857Y-372264819D01*
X136512857Y-372264819D02*
X136608095Y-372217200D01*
X136608095Y-372217200D02*
X136655714Y-372169580D01*
X136655714Y-372169580D02*
X136703333Y-372074342D01*
X136703333Y-372074342D02*
X136703333Y-371264819D01*
X137608095Y-371598152D02*
X137608095Y-372264819D01*
X137370000Y-371217200D02*
X137131905Y-371931485D01*
X137131905Y-371931485D02*
X137750952Y-371931485D01*
X138608095Y-371264819D02*
X138131905Y-371264819D01*
X138131905Y-371264819D02*
X138084286Y-371741009D01*
X138084286Y-371741009D02*
X138131905Y-371693390D01*
X138131905Y-371693390D02*
X138227143Y-371645771D01*
X138227143Y-371645771D02*
X138465238Y-371645771D01*
X138465238Y-371645771D02*
X138560476Y-371693390D01*
X138560476Y-371693390D02*
X138608095Y-371741009D01*
X138608095Y-371741009D02*
X138655714Y-371836247D01*
X138655714Y-371836247D02*
X138655714Y-372074342D01*
X138655714Y-372074342D02*
X138608095Y-372169580D01*
X138608095Y-372169580D02*
X138560476Y-372217200D01*
X138560476Y-372217200D02*
X138465238Y-372264819D01*
X138465238Y-372264819D02*
X138227143Y-372264819D01*
X138227143Y-372264819D02*
X138131905Y-372217200D01*
X138131905Y-372217200D02*
X138084286Y-372169580D01*
X121131905Y-354194819D02*
X121131905Y-355004342D01*
X121131905Y-355004342D02*
X121179524Y-355099580D01*
X121179524Y-355099580D02*
X121227143Y-355147200D01*
X121227143Y-355147200D02*
X121322381Y-355194819D01*
X121322381Y-355194819D02*
X121512857Y-355194819D01*
X121512857Y-355194819D02*
X121608095Y-355147200D01*
X121608095Y-355147200D02*
X121655714Y-355099580D01*
X121655714Y-355099580D02*
X121703333Y-355004342D01*
X121703333Y-355004342D02*
X121703333Y-354194819D01*
X122608095Y-354528152D02*
X122608095Y-355194819D01*
X122370000Y-354147200D02*
X122131905Y-354861485D01*
X122131905Y-354861485D02*
X122750952Y-354861485D01*
X123655714Y-355194819D02*
X123084286Y-355194819D01*
X123370000Y-355194819D02*
X123370000Y-354194819D01*
X123370000Y-354194819D02*
X123274762Y-354337676D01*
X123274762Y-354337676D02*
X123179524Y-354432914D01*
X123179524Y-354432914D02*
X123084286Y-354480533D01*
X128487142Y-338574819D02*
X128153809Y-338098628D01*
X127915714Y-338574819D02*
X127915714Y-337574819D01*
X127915714Y-337574819D02*
X128296666Y-337574819D01*
X128296666Y-337574819D02*
X128391904Y-337622438D01*
X128391904Y-337622438D02*
X128439523Y-337670057D01*
X128439523Y-337670057D02*
X128487142Y-337765295D01*
X128487142Y-337765295D02*
X128487142Y-337908152D01*
X128487142Y-337908152D02*
X128439523Y-338003390D01*
X128439523Y-338003390D02*
X128391904Y-338051009D01*
X128391904Y-338051009D02*
X128296666Y-338098628D01*
X128296666Y-338098628D02*
X127915714Y-338098628D01*
X128868095Y-337670057D02*
X128915714Y-337622438D01*
X128915714Y-337622438D02*
X129010952Y-337574819D01*
X129010952Y-337574819D02*
X129249047Y-337574819D01*
X129249047Y-337574819D02*
X129344285Y-337622438D01*
X129344285Y-337622438D02*
X129391904Y-337670057D01*
X129391904Y-337670057D02*
X129439523Y-337765295D01*
X129439523Y-337765295D02*
X129439523Y-337860533D01*
X129439523Y-337860533D02*
X129391904Y-338003390D01*
X129391904Y-338003390D02*
X128820476Y-338574819D01*
X128820476Y-338574819D02*
X129439523Y-338574819D01*
X130296666Y-337908152D02*
X130296666Y-338574819D01*
X130058571Y-337527200D02*
X129820476Y-338241485D01*
X129820476Y-338241485D02*
X130439523Y-338241485D01*
X103666667Y-101454819D02*
X103666667Y-100454819D01*
X103666667Y-100454819D02*
X104000000Y-101169104D01*
X104000000Y-101169104D02*
X104333333Y-100454819D01*
X104333333Y-100454819D02*
X104333333Y-101454819D01*
X104809524Y-101454819D02*
X104809524Y-100454819D01*
X104809524Y-100931009D02*
X105380952Y-100931009D01*
X105380952Y-101454819D02*
X105380952Y-100454819D01*
X106380952Y-101454819D02*
X105809524Y-101454819D01*
X106095238Y-101454819D02*
X106095238Y-100454819D01*
X106095238Y-100454819D02*
X106000000Y-100597676D01*
X106000000Y-100597676D02*
X105904762Y-100692914D01*
X105904762Y-100692914D02*
X105809524Y-100740533D01*
X41412142Y-146399819D02*
X41078809Y-145923628D01*
X40840714Y-146399819D02*
X40840714Y-145399819D01*
X40840714Y-145399819D02*
X41221666Y-145399819D01*
X41221666Y-145399819D02*
X41316904Y-145447438D01*
X41316904Y-145447438D02*
X41364523Y-145495057D01*
X41364523Y-145495057D02*
X41412142Y-145590295D01*
X41412142Y-145590295D02*
X41412142Y-145733152D01*
X41412142Y-145733152D02*
X41364523Y-145828390D01*
X41364523Y-145828390D02*
X41316904Y-145876009D01*
X41316904Y-145876009D02*
X41221666Y-145923628D01*
X41221666Y-145923628D02*
X40840714Y-145923628D01*
X42364523Y-146399819D02*
X41793095Y-146399819D01*
X42078809Y-146399819D02*
X42078809Y-145399819D01*
X42078809Y-145399819D02*
X41983571Y-145542676D01*
X41983571Y-145542676D02*
X41888333Y-145637914D01*
X41888333Y-145637914D02*
X41793095Y-145685533D01*
X42840714Y-146399819D02*
X43031190Y-146399819D01*
X43031190Y-146399819D02*
X43126428Y-146352200D01*
X43126428Y-146352200D02*
X43174047Y-146304580D01*
X43174047Y-146304580D02*
X43269285Y-146161723D01*
X43269285Y-146161723D02*
X43316904Y-145971247D01*
X43316904Y-145971247D02*
X43316904Y-145590295D01*
X43316904Y-145590295D02*
X43269285Y-145495057D01*
X43269285Y-145495057D02*
X43221666Y-145447438D01*
X43221666Y-145447438D02*
X43126428Y-145399819D01*
X43126428Y-145399819D02*
X42935952Y-145399819D01*
X42935952Y-145399819D02*
X42840714Y-145447438D01*
X42840714Y-145447438D02*
X42793095Y-145495057D01*
X42793095Y-145495057D02*
X42745476Y-145590295D01*
X42745476Y-145590295D02*
X42745476Y-145828390D01*
X42745476Y-145828390D02*
X42793095Y-145923628D01*
X42793095Y-145923628D02*
X42840714Y-145971247D01*
X42840714Y-145971247D02*
X42935952Y-146018866D01*
X42935952Y-146018866D02*
X43126428Y-146018866D01*
X43126428Y-146018866D02*
X43221666Y-145971247D01*
X43221666Y-145971247D02*
X43269285Y-145923628D01*
X43269285Y-145923628D02*
X43316904Y-145828390D01*
X92586905Y-47499819D02*
X92586905Y-48309342D01*
X92586905Y-48309342D02*
X92634524Y-48404580D01*
X92634524Y-48404580D02*
X92682143Y-48452200D01*
X92682143Y-48452200D02*
X92777381Y-48499819D01*
X92777381Y-48499819D02*
X92967857Y-48499819D01*
X92967857Y-48499819D02*
X93063095Y-48452200D01*
X93063095Y-48452200D02*
X93110714Y-48404580D01*
X93110714Y-48404580D02*
X93158333Y-48309342D01*
X93158333Y-48309342D02*
X93158333Y-47499819D01*
X94158333Y-48499819D02*
X93586905Y-48499819D01*
X93872619Y-48499819D02*
X93872619Y-47499819D01*
X93872619Y-47499819D02*
X93777381Y-47642676D01*
X93777381Y-47642676D02*
X93682143Y-47737914D01*
X93682143Y-47737914D02*
X93586905Y-47785533D01*
X95063095Y-47499819D02*
X94586905Y-47499819D01*
X94586905Y-47499819D02*
X94539286Y-47976009D01*
X94539286Y-47976009D02*
X94586905Y-47928390D01*
X94586905Y-47928390D02*
X94682143Y-47880771D01*
X94682143Y-47880771D02*
X94920238Y-47880771D01*
X94920238Y-47880771D02*
X95015476Y-47928390D01*
X95015476Y-47928390D02*
X95063095Y-47976009D01*
X95063095Y-47976009D02*
X95110714Y-48071247D01*
X95110714Y-48071247D02*
X95110714Y-48309342D01*
X95110714Y-48309342D02*
X95063095Y-48404580D01*
X95063095Y-48404580D02*
X95015476Y-48452200D01*
X95015476Y-48452200D02*
X94920238Y-48499819D01*
X94920238Y-48499819D02*
X94682143Y-48499819D01*
X94682143Y-48499819D02*
X94586905Y-48452200D01*
X94586905Y-48452200D02*
X94539286Y-48404580D01*
X165380476Y-384364819D02*
X165380476Y-385079104D01*
X165380476Y-385079104D02*
X165332857Y-385221961D01*
X165332857Y-385221961D02*
X165237619Y-385317200D01*
X165237619Y-385317200D02*
X165094762Y-385364819D01*
X165094762Y-385364819D02*
X164999524Y-385364819D01*
X165809048Y-384460057D02*
X165856667Y-384412438D01*
X165856667Y-384412438D02*
X165951905Y-384364819D01*
X165951905Y-384364819D02*
X166190000Y-384364819D01*
X166190000Y-384364819D02*
X166285238Y-384412438D01*
X166285238Y-384412438D02*
X166332857Y-384460057D01*
X166332857Y-384460057D02*
X166380476Y-384555295D01*
X166380476Y-384555295D02*
X166380476Y-384650533D01*
X166380476Y-384650533D02*
X166332857Y-384793390D01*
X166332857Y-384793390D02*
X165761429Y-385364819D01*
X165761429Y-385364819D02*
X166380476Y-385364819D01*
X166713810Y-384364819D02*
X167332857Y-384364819D01*
X167332857Y-384364819D02*
X166999524Y-384745771D01*
X166999524Y-384745771D02*
X167142381Y-384745771D01*
X167142381Y-384745771D02*
X167237619Y-384793390D01*
X167237619Y-384793390D02*
X167285238Y-384841009D01*
X167285238Y-384841009D02*
X167332857Y-384936247D01*
X167332857Y-384936247D02*
X167332857Y-385174342D01*
X167332857Y-385174342D02*
X167285238Y-385269580D01*
X167285238Y-385269580D02*
X167237619Y-385317200D01*
X167237619Y-385317200D02*
X167142381Y-385364819D01*
X167142381Y-385364819D02*
X166856667Y-385364819D01*
X166856667Y-385364819D02*
X166761429Y-385317200D01*
X166761429Y-385317200D02*
X166713810Y-385269580D01*
X231908095Y-48764819D02*
X231908095Y-49574342D01*
X231908095Y-49574342D02*
X231955714Y-49669580D01*
X231955714Y-49669580D02*
X232003333Y-49717200D01*
X232003333Y-49717200D02*
X232098571Y-49764819D01*
X232098571Y-49764819D02*
X232289047Y-49764819D01*
X232289047Y-49764819D02*
X232384285Y-49717200D01*
X232384285Y-49717200D02*
X232431904Y-49669580D01*
X232431904Y-49669580D02*
X232479523Y-49574342D01*
X232479523Y-49574342D02*
X232479523Y-48764819D01*
X233384285Y-48764819D02*
X233193809Y-48764819D01*
X233193809Y-48764819D02*
X233098571Y-48812438D01*
X233098571Y-48812438D02*
X233050952Y-48860057D01*
X233050952Y-48860057D02*
X232955714Y-49002914D01*
X232955714Y-49002914D02*
X232908095Y-49193390D01*
X232908095Y-49193390D02*
X232908095Y-49574342D01*
X232908095Y-49574342D02*
X232955714Y-49669580D01*
X232955714Y-49669580D02*
X233003333Y-49717200D01*
X233003333Y-49717200D02*
X233098571Y-49764819D01*
X233098571Y-49764819D02*
X233289047Y-49764819D01*
X233289047Y-49764819D02*
X233384285Y-49717200D01*
X233384285Y-49717200D02*
X233431904Y-49669580D01*
X233431904Y-49669580D02*
X233479523Y-49574342D01*
X233479523Y-49574342D02*
X233479523Y-49336247D01*
X233479523Y-49336247D02*
X233431904Y-49241009D01*
X233431904Y-49241009D02*
X233384285Y-49193390D01*
X233384285Y-49193390D02*
X233289047Y-49145771D01*
X233289047Y-49145771D02*
X233098571Y-49145771D01*
X233098571Y-49145771D02*
X233003333Y-49193390D01*
X233003333Y-49193390D02*
X232955714Y-49241009D01*
X232955714Y-49241009D02*
X232908095Y-49336247D01*
X78867142Y-161209580D02*
X78819523Y-161257200D01*
X78819523Y-161257200D02*
X78676666Y-161304819D01*
X78676666Y-161304819D02*
X78581428Y-161304819D01*
X78581428Y-161304819D02*
X78438571Y-161257200D01*
X78438571Y-161257200D02*
X78343333Y-161161961D01*
X78343333Y-161161961D02*
X78295714Y-161066723D01*
X78295714Y-161066723D02*
X78248095Y-160876247D01*
X78248095Y-160876247D02*
X78248095Y-160733390D01*
X78248095Y-160733390D02*
X78295714Y-160542914D01*
X78295714Y-160542914D02*
X78343333Y-160447676D01*
X78343333Y-160447676D02*
X78438571Y-160352438D01*
X78438571Y-160352438D02*
X78581428Y-160304819D01*
X78581428Y-160304819D02*
X78676666Y-160304819D01*
X78676666Y-160304819D02*
X78819523Y-160352438D01*
X78819523Y-160352438D02*
X78867142Y-160400057D01*
X79248095Y-160400057D02*
X79295714Y-160352438D01*
X79295714Y-160352438D02*
X79390952Y-160304819D01*
X79390952Y-160304819D02*
X79629047Y-160304819D01*
X79629047Y-160304819D02*
X79724285Y-160352438D01*
X79724285Y-160352438D02*
X79771904Y-160400057D01*
X79771904Y-160400057D02*
X79819523Y-160495295D01*
X79819523Y-160495295D02*
X79819523Y-160590533D01*
X79819523Y-160590533D02*
X79771904Y-160733390D01*
X79771904Y-160733390D02*
X79200476Y-161304819D01*
X79200476Y-161304819D02*
X79819523Y-161304819D01*
X80200476Y-160400057D02*
X80248095Y-160352438D01*
X80248095Y-160352438D02*
X80343333Y-160304819D01*
X80343333Y-160304819D02*
X80581428Y-160304819D01*
X80581428Y-160304819D02*
X80676666Y-160352438D01*
X80676666Y-160352438D02*
X80724285Y-160400057D01*
X80724285Y-160400057D02*
X80771904Y-160495295D01*
X80771904Y-160495295D02*
X80771904Y-160590533D01*
X80771904Y-160590533D02*
X80724285Y-160733390D01*
X80724285Y-160733390D02*
X80152857Y-161304819D01*
X80152857Y-161304819D02*
X80771904Y-161304819D01*
X103491666Y-44519819D02*
X103491666Y-45234104D01*
X103491666Y-45234104D02*
X103444047Y-45376961D01*
X103444047Y-45376961D02*
X103348809Y-45472200D01*
X103348809Y-45472200D02*
X103205952Y-45519819D01*
X103205952Y-45519819D02*
X103110714Y-45519819D01*
X104110714Y-44948390D02*
X104015476Y-44900771D01*
X104015476Y-44900771D02*
X103967857Y-44853152D01*
X103967857Y-44853152D02*
X103920238Y-44757914D01*
X103920238Y-44757914D02*
X103920238Y-44710295D01*
X103920238Y-44710295D02*
X103967857Y-44615057D01*
X103967857Y-44615057D02*
X104015476Y-44567438D01*
X104015476Y-44567438D02*
X104110714Y-44519819D01*
X104110714Y-44519819D02*
X104301190Y-44519819D01*
X104301190Y-44519819D02*
X104396428Y-44567438D01*
X104396428Y-44567438D02*
X104444047Y-44615057D01*
X104444047Y-44615057D02*
X104491666Y-44710295D01*
X104491666Y-44710295D02*
X104491666Y-44757914D01*
X104491666Y-44757914D02*
X104444047Y-44853152D01*
X104444047Y-44853152D02*
X104396428Y-44900771D01*
X104396428Y-44900771D02*
X104301190Y-44948390D01*
X104301190Y-44948390D02*
X104110714Y-44948390D01*
X104110714Y-44948390D02*
X104015476Y-44996009D01*
X104015476Y-44996009D02*
X103967857Y-45043628D01*
X103967857Y-45043628D02*
X103920238Y-45138866D01*
X103920238Y-45138866D02*
X103920238Y-45329342D01*
X103920238Y-45329342D02*
X103967857Y-45424580D01*
X103967857Y-45424580D02*
X104015476Y-45472200D01*
X104015476Y-45472200D02*
X104110714Y-45519819D01*
X104110714Y-45519819D02*
X104301190Y-45519819D01*
X104301190Y-45519819D02*
X104396428Y-45472200D01*
X104396428Y-45472200D02*
X104444047Y-45424580D01*
X104444047Y-45424580D02*
X104491666Y-45329342D01*
X104491666Y-45329342D02*
X104491666Y-45138866D01*
X104491666Y-45138866D02*
X104444047Y-45043628D01*
X104444047Y-45043628D02*
X104396428Y-44996009D01*
X104396428Y-44996009D02*
X104301190Y-44948390D01*
X26040714Y-127969819D02*
X26040714Y-126969819D01*
X26040714Y-126969819D02*
X26278809Y-126969819D01*
X26278809Y-126969819D02*
X26421666Y-127017438D01*
X26421666Y-127017438D02*
X26516904Y-127112676D01*
X26516904Y-127112676D02*
X26564523Y-127207914D01*
X26564523Y-127207914D02*
X26612142Y-127398390D01*
X26612142Y-127398390D02*
X26612142Y-127541247D01*
X26612142Y-127541247D02*
X26564523Y-127731723D01*
X26564523Y-127731723D02*
X26516904Y-127826961D01*
X26516904Y-127826961D02*
X26421666Y-127922200D01*
X26421666Y-127922200D02*
X26278809Y-127969819D01*
X26278809Y-127969819D02*
X26040714Y-127969819D01*
X27564523Y-127969819D02*
X26993095Y-127969819D01*
X27278809Y-127969819D02*
X27278809Y-126969819D01*
X27278809Y-126969819D02*
X27183571Y-127112676D01*
X27183571Y-127112676D02*
X27088333Y-127207914D01*
X27088333Y-127207914D02*
X26993095Y-127255533D01*
X28469285Y-126969819D02*
X27993095Y-126969819D01*
X27993095Y-126969819D02*
X27945476Y-127446009D01*
X27945476Y-127446009D02*
X27993095Y-127398390D01*
X27993095Y-127398390D02*
X28088333Y-127350771D01*
X28088333Y-127350771D02*
X28326428Y-127350771D01*
X28326428Y-127350771D02*
X28421666Y-127398390D01*
X28421666Y-127398390D02*
X28469285Y-127446009D01*
X28469285Y-127446009D02*
X28516904Y-127541247D01*
X28516904Y-127541247D02*
X28516904Y-127779342D01*
X28516904Y-127779342D02*
X28469285Y-127874580D01*
X28469285Y-127874580D02*
X28421666Y-127922200D01*
X28421666Y-127922200D02*
X28326428Y-127969819D01*
X28326428Y-127969819D02*
X28088333Y-127969819D01*
X28088333Y-127969819D02*
X27993095Y-127922200D01*
X27993095Y-127922200D02*
X27945476Y-127874580D01*
X107586905Y-47499819D02*
X107586905Y-48309342D01*
X107586905Y-48309342D02*
X107634524Y-48404580D01*
X107634524Y-48404580D02*
X107682143Y-48452200D01*
X107682143Y-48452200D02*
X107777381Y-48499819D01*
X107777381Y-48499819D02*
X107967857Y-48499819D01*
X107967857Y-48499819D02*
X108063095Y-48452200D01*
X108063095Y-48452200D02*
X108110714Y-48404580D01*
X108110714Y-48404580D02*
X108158333Y-48309342D01*
X108158333Y-48309342D02*
X108158333Y-47499819D01*
X109158333Y-48499819D02*
X108586905Y-48499819D01*
X108872619Y-48499819D02*
X108872619Y-47499819D01*
X108872619Y-47499819D02*
X108777381Y-47642676D01*
X108777381Y-47642676D02*
X108682143Y-47737914D01*
X108682143Y-47737914D02*
X108586905Y-47785533D01*
X110015476Y-47499819D02*
X109825000Y-47499819D01*
X109825000Y-47499819D02*
X109729762Y-47547438D01*
X109729762Y-47547438D02*
X109682143Y-47595057D01*
X109682143Y-47595057D02*
X109586905Y-47737914D01*
X109586905Y-47737914D02*
X109539286Y-47928390D01*
X109539286Y-47928390D02*
X109539286Y-48309342D01*
X109539286Y-48309342D02*
X109586905Y-48404580D01*
X109586905Y-48404580D02*
X109634524Y-48452200D01*
X109634524Y-48452200D02*
X109729762Y-48499819D01*
X109729762Y-48499819D02*
X109920238Y-48499819D01*
X109920238Y-48499819D02*
X110015476Y-48452200D01*
X110015476Y-48452200D02*
X110063095Y-48404580D01*
X110063095Y-48404580D02*
X110110714Y-48309342D01*
X110110714Y-48309342D02*
X110110714Y-48071247D01*
X110110714Y-48071247D02*
X110063095Y-47976009D01*
X110063095Y-47976009D02*
X110015476Y-47928390D01*
X110015476Y-47928390D02*
X109920238Y-47880771D01*
X109920238Y-47880771D02*
X109729762Y-47880771D01*
X109729762Y-47880771D02*
X109634524Y-47928390D01*
X109634524Y-47928390D02*
X109586905Y-47976009D01*
X109586905Y-47976009D02*
X109539286Y-48071247D01*
X99727142Y-396339580D02*
X99679523Y-396387200D01*
X99679523Y-396387200D02*
X99536666Y-396434819D01*
X99536666Y-396434819D02*
X99441428Y-396434819D01*
X99441428Y-396434819D02*
X99298571Y-396387200D01*
X99298571Y-396387200D02*
X99203333Y-396291961D01*
X99203333Y-396291961D02*
X99155714Y-396196723D01*
X99155714Y-396196723D02*
X99108095Y-396006247D01*
X99108095Y-396006247D02*
X99108095Y-395863390D01*
X99108095Y-395863390D02*
X99155714Y-395672914D01*
X99155714Y-395672914D02*
X99203333Y-395577676D01*
X99203333Y-395577676D02*
X99298571Y-395482438D01*
X99298571Y-395482438D02*
X99441428Y-395434819D01*
X99441428Y-395434819D02*
X99536666Y-395434819D01*
X99536666Y-395434819D02*
X99679523Y-395482438D01*
X99679523Y-395482438D02*
X99727142Y-395530057D01*
X100060476Y-395434819D02*
X100679523Y-395434819D01*
X100679523Y-395434819D02*
X100346190Y-395815771D01*
X100346190Y-395815771D02*
X100489047Y-395815771D01*
X100489047Y-395815771D02*
X100584285Y-395863390D01*
X100584285Y-395863390D02*
X100631904Y-395911009D01*
X100631904Y-395911009D02*
X100679523Y-396006247D01*
X100679523Y-396006247D02*
X100679523Y-396244342D01*
X100679523Y-396244342D02*
X100631904Y-396339580D01*
X100631904Y-396339580D02*
X100584285Y-396387200D01*
X100584285Y-396387200D02*
X100489047Y-396434819D01*
X100489047Y-396434819D02*
X100203333Y-396434819D01*
X100203333Y-396434819D02*
X100108095Y-396387200D01*
X100108095Y-396387200D02*
X100060476Y-396339580D01*
X101536666Y-395434819D02*
X101346190Y-395434819D01*
X101346190Y-395434819D02*
X101250952Y-395482438D01*
X101250952Y-395482438D02*
X101203333Y-395530057D01*
X101203333Y-395530057D02*
X101108095Y-395672914D01*
X101108095Y-395672914D02*
X101060476Y-395863390D01*
X101060476Y-395863390D02*
X101060476Y-396244342D01*
X101060476Y-396244342D02*
X101108095Y-396339580D01*
X101108095Y-396339580D02*
X101155714Y-396387200D01*
X101155714Y-396387200D02*
X101250952Y-396434819D01*
X101250952Y-396434819D02*
X101441428Y-396434819D01*
X101441428Y-396434819D02*
X101536666Y-396387200D01*
X101536666Y-396387200D02*
X101584285Y-396339580D01*
X101584285Y-396339580D02*
X101631904Y-396244342D01*
X101631904Y-396244342D02*
X101631904Y-396006247D01*
X101631904Y-396006247D02*
X101584285Y-395911009D01*
X101584285Y-395911009D02*
X101536666Y-395863390D01*
X101536666Y-395863390D02*
X101441428Y-395815771D01*
X101441428Y-395815771D02*
X101250952Y-395815771D01*
X101250952Y-395815771D02*
X101155714Y-395863390D01*
X101155714Y-395863390D02*
X101108095Y-395911009D01*
X101108095Y-395911009D02*
X101060476Y-396006247D01*
X243666667Y-191454819D02*
X243666667Y-190454819D01*
X243666667Y-190454819D02*
X244000000Y-191169104D01*
X244000000Y-191169104D02*
X244333333Y-190454819D01*
X244333333Y-190454819D02*
X244333333Y-191454819D01*
X244809524Y-191454819D02*
X244809524Y-190454819D01*
X244809524Y-190931009D02*
X245380952Y-190931009D01*
X245380952Y-191454819D02*
X245380952Y-190454819D01*
X246285714Y-190788152D02*
X246285714Y-191454819D01*
X246047619Y-190407200D02*
X245809524Y-191121485D01*
X245809524Y-191121485D02*
X246428571Y-191121485D01*
X241908095Y-48764819D02*
X241908095Y-49574342D01*
X241908095Y-49574342D02*
X241955714Y-49669580D01*
X241955714Y-49669580D02*
X242003333Y-49717200D01*
X242003333Y-49717200D02*
X242098571Y-49764819D01*
X242098571Y-49764819D02*
X242289047Y-49764819D01*
X242289047Y-49764819D02*
X242384285Y-49717200D01*
X242384285Y-49717200D02*
X242431904Y-49669580D01*
X242431904Y-49669580D02*
X242479523Y-49574342D01*
X242479523Y-49574342D02*
X242479523Y-48764819D01*
X242860476Y-48764819D02*
X243479523Y-48764819D01*
X243479523Y-48764819D02*
X243146190Y-49145771D01*
X243146190Y-49145771D02*
X243289047Y-49145771D01*
X243289047Y-49145771D02*
X243384285Y-49193390D01*
X243384285Y-49193390D02*
X243431904Y-49241009D01*
X243431904Y-49241009D02*
X243479523Y-49336247D01*
X243479523Y-49336247D02*
X243479523Y-49574342D01*
X243479523Y-49574342D02*
X243431904Y-49669580D01*
X243431904Y-49669580D02*
X243384285Y-49717200D01*
X243384285Y-49717200D02*
X243289047Y-49764819D01*
X243289047Y-49764819D02*
X243003333Y-49764819D01*
X243003333Y-49764819D02*
X242908095Y-49717200D01*
X242908095Y-49717200D02*
X242860476Y-49669580D01*
X63086905Y-26469819D02*
X63086905Y-25469819D01*
X63086905Y-25469819D02*
X63325000Y-25469819D01*
X63325000Y-25469819D02*
X63467857Y-25517438D01*
X63467857Y-25517438D02*
X63563095Y-25612676D01*
X63563095Y-25612676D02*
X63610714Y-25707914D01*
X63610714Y-25707914D02*
X63658333Y-25898390D01*
X63658333Y-25898390D02*
X63658333Y-26041247D01*
X63658333Y-26041247D02*
X63610714Y-26231723D01*
X63610714Y-26231723D02*
X63563095Y-26326961D01*
X63563095Y-26326961D02*
X63467857Y-26422200D01*
X63467857Y-26422200D02*
X63325000Y-26469819D01*
X63325000Y-26469819D02*
X63086905Y-26469819D01*
X64610714Y-26469819D02*
X64039286Y-26469819D01*
X64325000Y-26469819D02*
X64325000Y-25469819D01*
X64325000Y-25469819D02*
X64229762Y-25612676D01*
X64229762Y-25612676D02*
X64134524Y-25707914D01*
X64134524Y-25707914D02*
X64039286Y-25755533D01*
X145460476Y-385779819D02*
X145460476Y-386494104D01*
X145460476Y-386494104D02*
X145412857Y-386636961D01*
X145412857Y-386636961D02*
X145317619Y-386732200D01*
X145317619Y-386732200D02*
X145174762Y-386779819D01*
X145174762Y-386779819D02*
X145079524Y-386779819D01*
X145889048Y-385875057D02*
X145936667Y-385827438D01*
X145936667Y-385827438D02*
X146031905Y-385779819D01*
X146031905Y-385779819D02*
X146270000Y-385779819D01*
X146270000Y-385779819D02*
X146365238Y-385827438D01*
X146365238Y-385827438D02*
X146412857Y-385875057D01*
X146412857Y-385875057D02*
X146460476Y-385970295D01*
X146460476Y-385970295D02*
X146460476Y-386065533D01*
X146460476Y-386065533D02*
X146412857Y-386208390D01*
X146412857Y-386208390D02*
X145841429Y-386779819D01*
X145841429Y-386779819D02*
X146460476Y-386779819D01*
X147317619Y-386113152D02*
X147317619Y-386779819D01*
X147079524Y-385732200D02*
X146841429Y-386446485D01*
X146841429Y-386446485D02*
X147460476Y-386446485D01*
X103666667Y-191454819D02*
X103666667Y-190454819D01*
X103666667Y-190454819D02*
X104000000Y-191169104D01*
X104000000Y-191169104D02*
X104333333Y-190454819D01*
X104333333Y-190454819D02*
X104333333Y-191454819D01*
X104809524Y-191454819D02*
X104809524Y-190454819D01*
X104809524Y-190931009D02*
X105380952Y-190931009D01*
X105380952Y-191454819D02*
X105380952Y-190454819D01*
X105761905Y-190454819D02*
X106380952Y-190454819D01*
X106380952Y-190454819D02*
X106047619Y-190835771D01*
X106047619Y-190835771D02*
X106190476Y-190835771D01*
X106190476Y-190835771D02*
X106285714Y-190883390D01*
X106285714Y-190883390D02*
X106333333Y-190931009D01*
X106333333Y-190931009D02*
X106380952Y-191026247D01*
X106380952Y-191026247D02*
X106380952Y-191264342D01*
X106380952Y-191264342D02*
X106333333Y-191359580D01*
X106333333Y-191359580D02*
X106285714Y-191407200D01*
X106285714Y-191407200D02*
X106190476Y-191454819D01*
X106190476Y-191454819D02*
X105904762Y-191454819D01*
X105904762Y-191454819D02*
X105809524Y-191407200D01*
X105809524Y-191407200D02*
X105761905Y-191359580D01*
X29612142Y-165144580D02*
X29564523Y-165192200D01*
X29564523Y-165192200D02*
X29421666Y-165239819D01*
X29421666Y-165239819D02*
X29326428Y-165239819D01*
X29326428Y-165239819D02*
X29183571Y-165192200D01*
X29183571Y-165192200D02*
X29088333Y-165096961D01*
X29088333Y-165096961D02*
X29040714Y-165001723D01*
X29040714Y-165001723D02*
X28993095Y-164811247D01*
X28993095Y-164811247D02*
X28993095Y-164668390D01*
X28993095Y-164668390D02*
X29040714Y-164477914D01*
X29040714Y-164477914D02*
X29088333Y-164382676D01*
X29088333Y-164382676D02*
X29183571Y-164287438D01*
X29183571Y-164287438D02*
X29326428Y-164239819D01*
X29326428Y-164239819D02*
X29421666Y-164239819D01*
X29421666Y-164239819D02*
X29564523Y-164287438D01*
X29564523Y-164287438D02*
X29612142Y-164335057D01*
X29993095Y-164335057D02*
X30040714Y-164287438D01*
X30040714Y-164287438D02*
X30135952Y-164239819D01*
X30135952Y-164239819D02*
X30374047Y-164239819D01*
X30374047Y-164239819D02*
X30469285Y-164287438D01*
X30469285Y-164287438D02*
X30516904Y-164335057D01*
X30516904Y-164335057D02*
X30564523Y-164430295D01*
X30564523Y-164430295D02*
X30564523Y-164525533D01*
X30564523Y-164525533D02*
X30516904Y-164668390D01*
X30516904Y-164668390D02*
X29945476Y-165239819D01*
X29945476Y-165239819D02*
X30564523Y-165239819D01*
X31516904Y-165239819D02*
X30945476Y-165239819D01*
X31231190Y-165239819D02*
X31231190Y-164239819D01*
X31231190Y-164239819D02*
X31135952Y-164382676D01*
X31135952Y-164382676D02*
X31040714Y-164477914D01*
X31040714Y-164477914D02*
X30945476Y-164525533D01*
X20088333Y-151799819D02*
X19612143Y-151799819D01*
X19612143Y-151799819D02*
X19612143Y-150799819D01*
X20850238Y-151133152D02*
X20850238Y-151799819D01*
X20612143Y-150752200D02*
X20374048Y-151466485D01*
X20374048Y-151466485D02*
X20993095Y-151466485D01*
D11*
%TO.C,D16*%
X31770000Y-128210000D02*
X31770000Y-129680000D01*
X31770000Y-129680000D02*
X34055000Y-129680000D01*
X34055000Y-128210000D02*
X31770000Y-128210000D01*
%TO.C,U42*%
X122370000Y-373755000D02*
X120170000Y-373755000D01*
X122370000Y-373755000D02*
X124570000Y-373755000D01*
X122370000Y-380525000D02*
X120170000Y-380525000D01*
X122370000Y-380525000D02*
X124570000Y-380525000D01*
X118510000Y-374215000D02*
X118180000Y-374455000D01*
X118180000Y-373975000D01*
X118510000Y-374215000D01*
G36*
X118510000Y-374215000D02*
G01*
X118180000Y-374455000D01*
X118180000Y-373975000D01*
X118510000Y-374215000D01*
G37*
%TO.C,J6*%
X291950000Y-168920000D02*
X297750000Y-168920000D01*
X291950000Y-185180000D02*
X291950000Y-168920000D01*
X291950000Y-185180000D02*
X297750000Y-185180000D01*
X295200000Y-185410000D02*
X297000000Y-185410000D01*
X301030000Y-168920000D02*
X308050000Y-168920000D01*
X301030000Y-185180000D02*
X308050000Y-185180000D01*
%TO.C,J7*%
X102445000Y-36065000D02*
X103825000Y-36065000D01*
X102445000Y-37445000D02*
X102445000Y-36065000D01*
X102445000Y-38715000D02*
X102445000Y-41365000D01*
X102445000Y-38715000D02*
X105205000Y-38715000D01*
X102445000Y-41365000D02*
X105205000Y-41365000D01*
X105205000Y-38715000D02*
X105205000Y-41365000D01*
%TO.C,U1*%
X225060000Y-44375000D02*
X225060000Y-44140000D01*
X225060000Y-49120000D02*
X225060000Y-48645000D01*
X225535000Y-43900000D02*
X225360000Y-43900000D01*
X225535000Y-49120000D02*
X225060000Y-49120000D01*
X229805000Y-43900000D02*
X230280000Y-43900000D01*
X229805000Y-49120000D02*
X230280000Y-49120000D01*
X230280000Y-43900000D02*
X230280000Y-44375000D01*
X230280000Y-49120000D02*
X230280000Y-48645000D01*
X225060000Y-43900000D02*
X224820000Y-43570000D01*
X225300000Y-43570000D01*
X225060000Y-43900000D01*
G36*
X225060000Y-43900000D02*
G01*
X224820000Y-43570000D01*
X225300000Y-43570000D01*
X225060000Y-43900000D01*
G37*
%TO.C,U43*%
X132260000Y-357030000D02*
X132260000Y-357980000D01*
X132260000Y-367250000D02*
X132260000Y-366300000D01*
X133210000Y-357030000D02*
X132260000Y-357030000D01*
X133210000Y-367250000D02*
X132260000Y-367250000D01*
X141530000Y-357030000D02*
X142480000Y-357030000D01*
X141530000Y-367250000D02*
X142480000Y-367250000D01*
X142480000Y-357030000D02*
X142480000Y-357980000D01*
X142480000Y-367250000D02*
X142480000Y-366300000D01*
X131645000Y-357980000D02*
X131305000Y-357510000D01*
X131985000Y-357510000D01*
X131645000Y-357980000D01*
G36*
X131645000Y-357980000D02*
G01*
X131305000Y-357510000D01*
X131985000Y-357510000D01*
X131645000Y-357980000D01*
G37*
%TO.C,Y10*%
X126695000Y-384265000D02*
X128045000Y-384265000D01*
X126695000Y-386015000D02*
X128045000Y-386015000D01*
%TO.C,Y9*%
X126695000Y-368265000D02*
X128045000Y-368265000D01*
X126695000Y-370015000D02*
X128045000Y-370015000D01*
%TO.C,U8*%
X252670000Y-34950000D02*
X251870000Y-34950000D01*
X252670000Y-34950000D02*
X253470000Y-34950000D01*
X252670000Y-38070000D02*
X251870000Y-38070000D01*
X252670000Y-38070000D02*
X253470000Y-38070000D01*
X251370000Y-35000000D02*
X251130000Y-34670000D01*
X251610000Y-34670000D01*
X251370000Y-35000000D01*
G36*
X251370000Y-35000000D02*
G01*
X251130000Y-34670000D01*
X251610000Y-34670000D01*
X251370000Y-35000000D01*
G37*
%TO.C,R4*%
X133671359Y-22065000D02*
X133978641Y-22065000D01*
X133671359Y-22825000D02*
X133978641Y-22825000D01*
%TO.C,Y2*%
X327725000Y-178865000D02*
X329075000Y-178865000D01*
X327725000Y-180615000D02*
X329075000Y-180615000D01*
%TO.C,R20*%
X46901359Y-146735000D02*
X47208641Y-146735000D01*
X46901359Y-147495000D02*
X47208641Y-147495000D01*
%TO.C,R3*%
X128671359Y-22065000D02*
X128978641Y-22065000D01*
X128671359Y-22825000D02*
X128978641Y-22825000D01*
%TO.C,R2*%
X123671359Y-22065000D02*
X123978641Y-22065000D01*
X123671359Y-22825000D02*
X123978641Y-22825000D01*
%TO.C,J16*%
X63970000Y-166550000D02*
X78670000Y-166550000D01*
X63970000Y-175750000D02*
X63970000Y-166550000D01*
X72770000Y-175750000D02*
X63970000Y-175750000D01*
X77820000Y-166350000D02*
X78870000Y-166350000D01*
X78670000Y-166550000D02*
X78670000Y-169150000D01*
X78670000Y-173050000D02*
X78670000Y-175750000D01*
X78670000Y-175750000D02*
X76770000Y-175750000D01*
X78870000Y-167400000D02*
X78870000Y-166350000D01*
%TO.C,U26*%
X25430000Y-140745000D02*
X25430000Y-141695000D01*
X25430000Y-151145000D02*
X25430000Y-150195000D01*
X26795000Y-140745000D02*
X25430000Y-140745000D01*
X26795000Y-151145000D02*
X25430000Y-151145000D01*
X22605000Y-141735000D02*
X22265000Y-141265000D01*
X22945000Y-141265000D01*
X22605000Y-141735000D01*
G36*
X22605000Y-141735000D02*
G01*
X22265000Y-141265000D01*
X22945000Y-141265000D01*
X22605000Y-141735000D01*
G37*
%TO.C,R1*%
X118671359Y-22065000D02*
X118978641Y-22065000D01*
X118671359Y-22825000D02*
X118978641Y-22825000D01*
%TO.C,Y1*%
X327725000Y-168865000D02*
X329075000Y-168865000D01*
X327725000Y-170615000D02*
X329075000Y-170615000D01*
%TO.C,J10*%
X112445000Y-36065000D02*
X113825000Y-36065000D01*
X112445000Y-37445000D02*
X112445000Y-36065000D01*
X112445000Y-38715000D02*
X112445000Y-41365000D01*
X112445000Y-38715000D02*
X115205000Y-38715000D01*
X112445000Y-41365000D02*
X115205000Y-41365000D01*
X115205000Y-38715000D02*
X115205000Y-41365000D01*
%TO.C,J12*%
X112445000Y-56065000D02*
X113825000Y-56065000D01*
X112445000Y-57445000D02*
X112445000Y-56065000D01*
X112445000Y-58715000D02*
X112445000Y-61365000D01*
X112445000Y-58715000D02*
X115205000Y-58715000D01*
X112445000Y-61365000D02*
X115205000Y-61365000D01*
X115205000Y-58715000D02*
X115205000Y-61365000D01*
%TO.C,L6*%
X37155000Y-152845000D02*
X37155000Y-153295000D01*
X37155000Y-152845000D02*
X43355000Y-152845000D01*
X37155000Y-159045000D02*
X37155000Y-158595000D01*
X43355000Y-152845000D02*
X43355000Y-153295000D01*
X43355000Y-159045000D02*
X37155000Y-159045000D01*
X43355000Y-159045000D02*
X43355000Y-158595000D01*
%TO.C,D12*%
X31770000Y-122210000D02*
X31770000Y-123680000D01*
X31770000Y-123680000D02*
X34055000Y-123680000D01*
X34055000Y-122210000D02*
X31770000Y-122210000D01*
%TO.C,U13*%
X108825000Y-36885000D02*
X106875000Y-36885000D01*
X108825000Y-36885000D02*
X110775000Y-36885000D01*
X108825000Y-42005000D02*
X106875000Y-42005000D01*
X108825000Y-42005000D02*
X110775000Y-42005000D01*
X106125000Y-36980000D02*
X105885000Y-36650000D01*
X106365000Y-36650000D01*
X106125000Y-36980000D01*
G36*
X106125000Y-36980000D02*
G01*
X105885000Y-36650000D01*
X106365000Y-36650000D01*
X106125000Y-36980000D01*
G37*
%TO.C,U9*%
X206002500Y-62120000D02*
X205202500Y-62120000D01*
X206002500Y-62120000D02*
X206802500Y-62120000D01*
X206002500Y-65240000D02*
X205202500Y-65240000D01*
X206002500Y-65240000D02*
X206802500Y-65240000D01*
X204702500Y-62170000D02*
X204462500Y-61840000D01*
X204942500Y-61840000D01*
X204702500Y-62170000D01*
G36*
X204702500Y-62170000D02*
G01*
X204462500Y-61840000D01*
X204942500Y-61840000D01*
X204702500Y-62170000D01*
G37*
%TO.C,L5*%
X27155000Y-152845000D02*
X27155000Y-153295000D01*
X27155000Y-152845000D02*
X33355000Y-152845000D01*
X27155000Y-159045000D02*
X27155000Y-158595000D01*
X33355000Y-152845000D02*
X33355000Y-153295000D01*
X33355000Y-159045000D02*
X27155000Y-159045000D01*
X33355000Y-159045000D02*
X33355000Y-158595000D01*
%TO.C,D11*%
X25770000Y-122210000D02*
X25770000Y-123680000D01*
X25770000Y-123680000D02*
X28055000Y-123680000D01*
X28055000Y-122210000D02*
X25770000Y-122210000D01*
%TO.C,J4*%
X268410000Y-68010000D02*
X268410000Y-67010000D01*
X268660000Y-57760000D02*
X268660000Y-70260000D01*
X268660000Y-70260000D02*
X270660000Y-70260000D01*
X270660000Y-57760000D02*
X268660000Y-57760000D01*
X274160000Y-70260000D02*
X282160000Y-70260000D01*
X282160000Y-56760000D02*
X282160000Y-57760000D01*
X282160000Y-57760000D02*
X274160000Y-57760000D01*
X282160000Y-70260000D02*
X282160000Y-71260000D01*
X282160000Y-71260000D02*
X282660000Y-71260000D01*
X282660000Y-56760000D02*
X282160000Y-56760000D01*
X282660000Y-71260000D02*
X282660000Y-56760000D01*
%TO.C,C37*%
X106262164Y-396780000D02*
X106477836Y-396780000D01*
X106262164Y-397500000D02*
X106477836Y-397500000D01*
%TO.C,C23*%
X45147164Y-190585000D02*
X45362836Y-190585000D01*
X45147164Y-191305000D02*
X45362836Y-191305000D01*
%TO.C,U28*%
X45430000Y-175745000D02*
X45430000Y-176695000D01*
X45430000Y-186145000D02*
X45430000Y-185195000D01*
X46795000Y-175745000D02*
X45430000Y-175745000D01*
X46795000Y-186145000D02*
X45430000Y-186145000D01*
X42605000Y-176735000D02*
X42265000Y-176265000D01*
X42945000Y-176265000D01*
X42605000Y-176735000D01*
G36*
X42605000Y-176735000D02*
G01*
X42265000Y-176265000D01*
X42945000Y-176265000D01*
X42605000Y-176735000D01*
G37*
%TO.C,U11*%
X304790000Y-151605000D02*
X304790000Y-151370000D01*
X304790000Y-158350000D02*
X304790000Y-157875000D01*
X305265000Y-151130000D02*
X305090000Y-151130000D01*
X305265000Y-158350000D02*
X304790000Y-158350000D01*
X311535000Y-151130000D02*
X312010000Y-151130000D01*
X311535000Y-158350000D02*
X312010000Y-158350000D01*
X312010000Y-151130000D02*
X312010000Y-151605000D01*
X312010000Y-158350000D02*
X312010000Y-157875000D01*
X304790000Y-151130000D02*
X304550000Y-150800000D01*
X305030000Y-150800000D01*
X304790000Y-151130000D01*
G36*
X304790000Y-151130000D02*
G01*
X304550000Y-150800000D01*
X305030000Y-150800000D01*
X304790000Y-151130000D01*
G37*
%TO.C,R17*%
X61901359Y-141735000D02*
X62208641Y-141735000D01*
X61901359Y-142495000D02*
X62208641Y-142495000D01*
%TO.C,U17*%
X121215000Y-49560000D02*
X121215000Y-49075000D01*
X121215000Y-54055000D02*
X121215000Y-53330000D01*
X121940000Y-48835000D02*
X121515000Y-48835000D01*
X121940000Y-54055000D02*
X121215000Y-54055000D01*
X125710000Y-48835000D02*
X126435000Y-48835000D01*
X125710000Y-54055000D02*
X126435000Y-54055000D01*
X126435000Y-48835000D02*
X126435000Y-49560000D01*
X126435000Y-54055000D02*
X126435000Y-53330000D01*
X121215000Y-48835000D02*
X120975000Y-48505000D01*
X121455000Y-48505000D01*
X121215000Y-48835000D01*
G36*
X121215000Y-48835000D02*
G01*
X120975000Y-48505000D01*
X121455000Y-48505000D01*
X121215000Y-48835000D01*
G37*
%TO.C,R16*%
X56901359Y-141735000D02*
X57208641Y-141735000D01*
X56901359Y-142495000D02*
X57208641Y-142495000D01*
%TO.C,U7*%
X232670000Y-64950000D02*
X231870000Y-64950000D01*
X232670000Y-64950000D02*
X233470000Y-64950000D01*
X232670000Y-68070000D02*
X231870000Y-68070000D01*
X232670000Y-68070000D02*
X233470000Y-68070000D01*
X231370000Y-65000000D02*
X231130000Y-64670000D01*
X231610000Y-64670000D01*
X231370000Y-65000000D01*
G36*
X231370000Y-65000000D02*
G01*
X231130000Y-64670000D01*
X231610000Y-64670000D01*
X231370000Y-65000000D01*
G37*
%TO.C,D3*%
X74340000Y-26710000D02*
X74340000Y-28180000D01*
X74340000Y-28180000D02*
X76625000Y-28180000D01*
X76625000Y-26710000D02*
X74340000Y-26710000D01*
%TO.C,U12*%
X274790000Y-163605000D02*
X274790000Y-163370000D01*
X274790000Y-170350000D02*
X274790000Y-169875000D01*
X275265000Y-163130000D02*
X275090000Y-163130000D01*
X275265000Y-170350000D02*
X274790000Y-170350000D01*
X281535000Y-163130000D02*
X282010000Y-163130000D01*
X281535000Y-170350000D02*
X282010000Y-170350000D01*
X282010000Y-163130000D02*
X282010000Y-163605000D01*
X282010000Y-170350000D02*
X282010000Y-169875000D01*
X274790000Y-163130000D02*
X274550000Y-162800000D01*
X275030000Y-162800000D01*
X274790000Y-163130000D01*
G36*
X274790000Y-163130000D02*
G01*
X274550000Y-162800000D01*
X275030000Y-162800000D01*
X274790000Y-163130000D01*
G37*
%TO.C,R18*%
X66901359Y-141735000D02*
X67208641Y-141735000D01*
X66901359Y-142495000D02*
X67208641Y-142495000D01*
%TO.C,J3*%
X268410000Y-56010000D02*
X268410000Y-55010000D01*
X268660000Y-45760000D02*
X268660000Y-58260000D01*
X268660000Y-58260000D02*
X270660000Y-58260000D01*
X270660000Y-45760000D02*
X268660000Y-45760000D01*
X274160000Y-58260000D02*
X282160000Y-58260000D01*
X282160000Y-44760000D02*
X282160000Y-45760000D01*
X282160000Y-45760000D02*
X274160000Y-45760000D01*
X282160000Y-58260000D02*
X282160000Y-59260000D01*
X282160000Y-59260000D02*
X282660000Y-59260000D01*
X282660000Y-44760000D02*
X282160000Y-44760000D01*
X282660000Y-59260000D02*
X282660000Y-44760000D01*
%TO.C,J11*%
X106915000Y-41635000D02*
X106915000Y-42035000D01*
X106915000Y-41635000D02*
X120735000Y-41635000D01*
X106915000Y-44555000D02*
X106915000Y-50335000D01*
X106915000Y-52855000D02*
X106915000Y-55555000D01*
X108325000Y-40735000D02*
X109125000Y-40935000D01*
X108325000Y-41635000D02*
X108325000Y-40635000D01*
X108825000Y-40135000D02*
X118825000Y-40135000D01*
X109125000Y-40935000D02*
X110825000Y-41235000D01*
X110825000Y-41235000D02*
X111625000Y-41335000D01*
X111625000Y-41335000D02*
X112925000Y-41435000D01*
X112925000Y-41435000D02*
X114725000Y-41435000D01*
X114725000Y-41435000D02*
X116025000Y-41335000D01*
X116025000Y-41335000D02*
X117525000Y-41135000D01*
X117525000Y-41135000D02*
X118825000Y-40835000D01*
X118825000Y-40835000D02*
X119325000Y-40735000D01*
X119325000Y-41635000D02*
X119325000Y-40635000D01*
X120735000Y-41635000D02*
X120735000Y-42035000D01*
X120735000Y-44555000D02*
X120735000Y-50335000D01*
X120735000Y-52855000D02*
X120735000Y-55555000D01*
X120735000Y-55555000D02*
X106915000Y-55555000D01*
X108325000Y-40635000D02*
G75*
G02*
X108825000Y-40135000I500001J-1D01*
G01*
X118825000Y-40135000D02*
G75*
G02*
X119325000Y-40635000I0J-500000D01*
G01*
%TO.C,SW2*%
X74680000Y-37530000D02*
X74680000Y-39530000D01*
X75730000Y-36230000D02*
X76180000Y-35780000D01*
X75730000Y-40830000D02*
X76180000Y-41280000D01*
X76180000Y-35780000D02*
X78680000Y-35780000D01*
X76180000Y-41280000D02*
X78680000Y-41280000D01*
X79130000Y-36230000D02*
X78680000Y-35780000D01*
X79130000Y-40830000D02*
X78680000Y-41280000D01*
X80180000Y-37530000D02*
X80180000Y-39530000D01*
%TO.C,D4*%
X80340000Y-26710000D02*
X80340000Y-28180000D01*
X80340000Y-28180000D02*
X82625000Y-28180000D01*
X82625000Y-26710000D02*
X80340000Y-26710000D01*
%TO.C,U5*%
X231670000Y-35950000D02*
X231670000Y-35740000D01*
X231860000Y-37520000D02*
X231860000Y-37070000D01*
X233480000Y-35500000D02*
X233480000Y-35950000D01*
X233480000Y-37520000D02*
X233480000Y-37070000D01*
X231670000Y-35500000D02*
X231430000Y-35170000D01*
X231910000Y-35170000D01*
X231670000Y-35500000D01*
G36*
X231670000Y-35500000D02*
G01*
X231430000Y-35170000D01*
X231910000Y-35170000D01*
X231670000Y-35500000D01*
G37*
%TO.C,U2*%
X239060000Y-33375000D02*
X239060000Y-33140000D01*
X239060000Y-40120000D02*
X239060000Y-39645000D01*
X239535000Y-32900000D02*
X239360000Y-32900000D01*
X239535000Y-40120000D02*
X239060000Y-40120000D01*
X245805000Y-32900000D02*
X246280000Y-32900000D01*
X245805000Y-40120000D02*
X246280000Y-40120000D01*
X246280000Y-32900000D02*
X246280000Y-33375000D01*
X246280000Y-40120000D02*
X246280000Y-39645000D01*
X239060000Y-32900000D02*
X238820000Y-32570000D01*
X239300000Y-32570000D01*
X239060000Y-32900000D01*
G36*
X239060000Y-32900000D02*
G01*
X238820000Y-32570000D01*
X239300000Y-32570000D01*
X239060000Y-32900000D01*
G37*
%TO.C,U4*%
X241670000Y-65950000D02*
X241670000Y-65740000D01*
X241860000Y-67520000D02*
X241860000Y-67070000D01*
X243480000Y-65500000D02*
X243480000Y-65950000D01*
X243480000Y-67520000D02*
X243480000Y-67070000D01*
X241670000Y-65500000D02*
X241430000Y-65170000D01*
X241910000Y-65170000D01*
X241670000Y-65500000D01*
G36*
X241670000Y-65500000D02*
G01*
X241430000Y-65170000D01*
X241910000Y-65170000D01*
X241670000Y-65500000D01*
G37*
%TO.C,U10*%
X221002500Y-62120000D02*
X220202500Y-62120000D01*
X221002500Y-62120000D02*
X221802500Y-62120000D01*
X221002500Y-65240000D02*
X220202500Y-65240000D01*
X221002500Y-65240000D02*
X221802500Y-65240000D01*
X219702500Y-62170000D02*
X219462500Y-61840000D01*
X219942500Y-61840000D01*
X219702500Y-62170000D01*
G36*
X219702500Y-62170000D02*
G01*
X219462500Y-61840000D01*
X219942500Y-61840000D01*
X219702500Y-62170000D01*
G37*
%TO.C,R15*%
X51901359Y-141735000D02*
X52208641Y-141735000D01*
X51901359Y-142495000D02*
X52208641Y-142495000D01*
%TO.C,J2*%
X268410000Y-44010000D02*
X268410000Y-43010000D01*
X268660000Y-33760000D02*
X268660000Y-46260000D01*
X268660000Y-46260000D02*
X270660000Y-46260000D01*
X270660000Y-33760000D02*
X268660000Y-33760000D01*
X274160000Y-46260000D02*
X282160000Y-46260000D01*
X282160000Y-32760000D02*
X282160000Y-33760000D01*
X282160000Y-33760000D02*
X274160000Y-33760000D01*
X282160000Y-46260000D02*
X282160000Y-47260000D01*
X282160000Y-47260000D02*
X282660000Y-47260000D01*
X282660000Y-32760000D02*
X282160000Y-32760000D01*
X282660000Y-47260000D02*
X282660000Y-32760000D01*
%TO.C,R21*%
X51901359Y-146735000D02*
X52208641Y-146735000D01*
X51901359Y-147495000D02*
X52208641Y-147495000D01*
%TO.C,J1*%
X268410000Y-32010000D02*
X268410000Y-31010000D01*
X268660000Y-21760000D02*
X268660000Y-34260000D01*
X268660000Y-34260000D02*
X270660000Y-34260000D01*
X270660000Y-21760000D02*
X268660000Y-21760000D01*
X274160000Y-34260000D02*
X282160000Y-34260000D01*
X282160000Y-20760000D02*
X282160000Y-21760000D01*
X282160000Y-21760000D02*
X274160000Y-21760000D01*
X282160000Y-34260000D02*
X282160000Y-35260000D01*
X282160000Y-35260000D02*
X282660000Y-35260000D01*
X282660000Y-20760000D02*
X282160000Y-20760000D01*
X282660000Y-35260000D02*
X282660000Y-20760000D01*
%TO.C,D14*%
X19770000Y-128210000D02*
X19770000Y-129680000D01*
X19770000Y-129680000D02*
X22055000Y-129680000D01*
X22055000Y-128210000D02*
X19770000Y-128210000D01*
%TO.C,D13*%
X13770000Y-128210000D02*
X13770000Y-129680000D01*
X13770000Y-129680000D02*
X16055000Y-129680000D01*
X16055000Y-128210000D02*
X13770000Y-128210000D01*
%TO.C,C20*%
X20147164Y-165585000D02*
X20362836Y-165585000D01*
X20147164Y-166305000D02*
X20362836Y-166305000D01*
%TO.C,U14*%
X123825000Y-36885000D02*
X121875000Y-36885000D01*
X123825000Y-36885000D02*
X125775000Y-36885000D01*
X123825000Y-42005000D02*
X121875000Y-42005000D01*
X123825000Y-42005000D02*
X125775000Y-42005000D01*
X121125000Y-36980000D02*
X120885000Y-36650000D01*
X121365000Y-36650000D01*
X121125000Y-36980000D01*
G36*
X121125000Y-36980000D02*
G01*
X120885000Y-36650000D01*
X121365000Y-36650000D01*
X121125000Y-36980000D01*
G37*
%TO.C,U44*%
X135260000Y-375505000D02*
X135260000Y-375270000D01*
X135260000Y-379250000D02*
X135260000Y-378775000D01*
X135735000Y-375030000D02*
X135560000Y-375030000D01*
X135735000Y-379250000D02*
X135260000Y-379250000D01*
X139005000Y-375030000D02*
X139480000Y-375030000D01*
X139005000Y-379250000D02*
X139480000Y-379250000D01*
X139480000Y-375030000D02*
X139480000Y-375505000D01*
X139480000Y-379250000D02*
X139480000Y-378775000D01*
X135260000Y-375030000D02*
X135020000Y-374700000D01*
X135500000Y-374700000D01*
X135260000Y-375030000D01*
G36*
X135260000Y-375030000D02*
G01*
X135020000Y-374700000D01*
X135500000Y-374700000D01*
X135260000Y-375030000D01*
G37*
%TO.C,J9*%
X102445000Y-56065000D02*
X103825000Y-56065000D01*
X102445000Y-57445000D02*
X102445000Y-56065000D01*
X102445000Y-58715000D02*
X102445000Y-61365000D01*
X102445000Y-58715000D02*
X105205000Y-58715000D01*
X102445000Y-61365000D02*
X105205000Y-61365000D01*
X105205000Y-58715000D02*
X105205000Y-61365000D01*
%TO.C,U27*%
X30430000Y-175745000D02*
X30430000Y-176695000D01*
X30430000Y-186145000D02*
X30430000Y-185195000D01*
X31795000Y-175745000D02*
X30430000Y-175745000D01*
X31795000Y-186145000D02*
X30430000Y-186145000D01*
X27605000Y-176735000D02*
X27265000Y-176265000D01*
X27945000Y-176265000D01*
X27605000Y-176735000D01*
G36*
X27605000Y-176735000D02*
G01*
X27265000Y-176265000D01*
X27945000Y-176265000D01*
X27605000Y-176735000D01*
G37*
%TO.C,D2*%
X68340000Y-26710000D02*
X68340000Y-28180000D01*
X68340000Y-28180000D02*
X70625000Y-28180000D01*
X70625000Y-26710000D02*
X68340000Y-26710000D01*
%TO.C,SW1*%
X64680000Y-37530000D02*
X64680000Y-39530000D01*
X65730000Y-36230000D02*
X66180000Y-35780000D01*
X65730000Y-40830000D02*
X66180000Y-41280000D01*
X66180000Y-35780000D02*
X68680000Y-35780000D01*
X66180000Y-41280000D02*
X68680000Y-41280000D01*
X69130000Y-36230000D02*
X68680000Y-35780000D01*
X69130000Y-40830000D02*
X68680000Y-41280000D01*
X70180000Y-37530000D02*
X70180000Y-39530000D01*
%TO.C,U45*%
X135260000Y-373505000D02*
X135260000Y-373270000D01*
X135260000Y-377250000D02*
X135260000Y-376775000D01*
X135735000Y-373030000D02*
X135560000Y-373030000D01*
X135735000Y-377250000D02*
X135260000Y-377250000D01*
X139005000Y-373030000D02*
X139480000Y-373030000D01*
X139005000Y-377250000D02*
X139480000Y-377250000D01*
X139480000Y-373030000D02*
X139480000Y-373505000D01*
X139480000Y-377250000D02*
X139480000Y-376775000D01*
X135260000Y-373030000D02*
X135020000Y-372700000D01*
X135500000Y-372700000D01*
X135260000Y-373030000D01*
G36*
X135260000Y-373030000D02*
G01*
X135020000Y-372700000D01*
X135500000Y-372700000D01*
X135260000Y-373030000D01*
G37*
%TO.C,U41*%
X117260000Y-357030000D02*
X117260000Y-357980000D01*
X117260000Y-367250000D02*
X117260000Y-366300000D01*
X118210000Y-357030000D02*
X117260000Y-357030000D01*
X118210000Y-367250000D02*
X117260000Y-367250000D01*
X126530000Y-357030000D02*
X127480000Y-357030000D01*
X126530000Y-367250000D02*
X127480000Y-367250000D01*
X127480000Y-357030000D02*
X127480000Y-357980000D01*
X127480000Y-367250000D02*
X127480000Y-366300000D01*
X116645000Y-357980000D02*
X116305000Y-357510000D01*
X116985000Y-357510000D01*
X116645000Y-357980000D01*
G36*
X116645000Y-357980000D02*
G01*
X116305000Y-357510000D01*
X116985000Y-357510000D01*
X116645000Y-357980000D01*
G37*
%TO.C,R24*%
X128976359Y-338910000D02*
X129283641Y-338910000D01*
X128976359Y-339670000D02*
X129283641Y-339670000D01*
%TO.C,R19*%
X41901359Y-146735000D02*
X42208641Y-146735000D01*
X41901359Y-147495000D02*
X42208641Y-147495000D01*
%TO.C,U15*%
X93825000Y-48885000D02*
X91875000Y-48885000D01*
X93825000Y-48885000D02*
X95775000Y-48885000D01*
X93825000Y-54005000D02*
X91875000Y-54005000D01*
X93825000Y-54005000D02*
X95775000Y-54005000D01*
X91125000Y-48980000D02*
X90885000Y-48650000D01*
X91365000Y-48650000D01*
X91125000Y-48980000D01*
G36*
X91125000Y-48980000D02*
G01*
X90885000Y-48650000D01*
X91365000Y-48650000D01*
X91125000Y-48980000D01*
G37*
%TO.C,J23*%
X167260000Y-377560000D02*
X167260000Y-378690000D01*
X167260000Y-378690000D02*
X170010000Y-378690000D01*
X167260000Y-391110000D02*
X170010000Y-391110000D01*
X167260000Y-392240000D02*
X167260000Y-391110000D01*
X170010000Y-377560000D02*
X167260000Y-377560000D01*
X170010000Y-378690000D02*
X170010000Y-379890000D01*
X170010000Y-389910000D02*
X167380000Y-389910000D01*
X170010000Y-391110000D02*
X170010000Y-389910000D01*
X170010000Y-392240000D02*
X167260000Y-392240000D01*
%TO.C,U6*%
X231670000Y-50950000D02*
X231670000Y-50740000D01*
X231860000Y-52520000D02*
X231860000Y-52070000D01*
X233480000Y-50500000D02*
X233480000Y-50950000D01*
X233480000Y-52520000D02*
X233480000Y-52070000D01*
X231670000Y-50500000D02*
X231430000Y-50170000D01*
X231910000Y-50170000D01*
X231670000Y-50500000D01*
G36*
X231670000Y-50500000D02*
G01*
X231430000Y-50170000D01*
X231910000Y-50170000D01*
X231670000Y-50500000D01*
G37*
%TO.C,C22*%
X79402164Y-161650000D02*
X79617836Y-161650000D01*
X79402164Y-162370000D02*
X79617836Y-162370000D01*
%TO.C,J8*%
X102445000Y-46065000D02*
X103825000Y-46065000D01*
X102445000Y-47445000D02*
X102445000Y-46065000D01*
X102445000Y-48715000D02*
X102445000Y-51365000D01*
X102445000Y-48715000D02*
X105205000Y-48715000D01*
X102445000Y-51365000D02*
X105205000Y-51365000D01*
X105205000Y-48715000D02*
X105205000Y-51365000D01*
%TO.C,D15*%
X25770000Y-128210000D02*
X25770000Y-129680000D01*
X25770000Y-129680000D02*
X28055000Y-129680000D01*
X28055000Y-128210000D02*
X25770000Y-128210000D01*
%TO.C,U16*%
X108825000Y-48885000D02*
X106875000Y-48885000D01*
X108825000Y-48885000D02*
X110775000Y-48885000D01*
X108825000Y-54005000D02*
X106875000Y-54005000D01*
X108825000Y-54005000D02*
X110775000Y-54005000D01*
X106125000Y-48980000D02*
X105885000Y-48650000D01*
X106365000Y-48650000D01*
X106125000Y-48980000D01*
G36*
X106125000Y-48980000D02*
G01*
X105885000Y-48650000D01*
X106365000Y-48650000D01*
X106125000Y-48980000D01*
G37*
%TO.C,C36*%
X100262164Y-396780000D02*
X100477836Y-396780000D01*
X100262164Y-397500000D02*
X100477836Y-397500000D01*
%TO.C,U3*%
X241670000Y-50950000D02*
X241670000Y-50740000D01*
X241860000Y-52520000D02*
X241860000Y-52070000D01*
X243480000Y-50500000D02*
X243480000Y-50950000D01*
X243480000Y-52520000D02*
X243480000Y-52070000D01*
X241670000Y-50500000D02*
X241430000Y-50170000D01*
X241910000Y-50170000D01*
X241670000Y-50500000D01*
G36*
X241670000Y-50500000D02*
G01*
X241430000Y-50170000D01*
X241910000Y-50170000D01*
X241670000Y-50500000D01*
G37*
%TO.C,D1*%
X62340000Y-26710000D02*
X62340000Y-28180000D01*
X62340000Y-28180000D02*
X64625000Y-28180000D01*
X64625000Y-26710000D02*
X62340000Y-26710000D01*
%TO.C,J24*%
X147340000Y-378975000D02*
X147340000Y-380105000D01*
X147340000Y-380105000D02*
X150090000Y-380105000D01*
X147340000Y-392525000D02*
X150090000Y-392525000D01*
X147340000Y-393655000D02*
X147340000Y-392525000D01*
X150090000Y-378975000D02*
X147340000Y-378975000D01*
X150090000Y-380105000D02*
X150090000Y-381305000D01*
X150090000Y-391325000D02*
X147460000Y-391325000D01*
X150090000Y-392525000D02*
X150090000Y-391325000D01*
X150090000Y-393655000D02*
X147340000Y-393655000D01*
%TO.C,C21*%
X30147164Y-165585000D02*
X30362836Y-165585000D01*
X30147164Y-166305000D02*
X30362836Y-166305000D01*
%TO.C,L4*%
X17155000Y-152845000D02*
X17155000Y-153295000D01*
X17155000Y-152845000D02*
X23355000Y-152845000D01*
X17155000Y-159045000D02*
X17155000Y-158595000D01*
X23355000Y-152845000D02*
X23355000Y-153295000D01*
X23355000Y-159045000D02*
X17155000Y-159045000D01*
X23355000Y-159045000D02*
X23355000Y-158595000D01*
%TD*%
M02*
