%TF.GenerationSoftware,KiCad,Pcbnew,9.0.6*%
%TF.CreationDate,2025-12-01T13:51:19+09:00*%
%TF.ProjectId,fcBoard,6663426f-6172-4642-9e6b-696361645f70,0.2*%
%TF.SameCoordinates,Original*%
%TF.FileFunction,Copper,L6,Bot*%
%TF.FilePolarity,Positive*%
%FSLAX46Y46*%
G04 Gerber Fmt 4.6, Leading zero omitted, Abs format (unit mm)*
G04 Created by KiCad (PCBNEW 9.0.6) date 2025-12-01 13:51:19*
%MOMM*%
%LPD*%
G01*
G04 APERTURE LIST*
G04 Aperture macros list*
%AMRoundRect*
0 Rectangle with rounded corners*
0 $1 Rounding radius*
0 $2 $3 $4 $5 $6 $7 $8 $9 X,Y pos of 4 corners*
0 Add a 4 corners polygon primitive as box body*
4,1,4,$2,$3,$4,$5,$6,$7,$8,$9,$2,$3,0*
0 Add four circle primitives for the rounded corners*
1,1,$1+$1,$2,$3*
1,1,$1+$1,$4,$5*
1,1,$1+$1,$6,$7*
1,1,$1+$1,$8,$9*
0 Add four rect primitives between the rounded corners*
20,1,$1+$1,$2,$3,$4,$5,0*
20,1,$1+$1,$4,$5,$6,$7,0*
20,1,$1+$1,$6,$7,$8,$9,0*
20,1,$1+$1,$8,$9,$2,$3,0*%
G04 Aperture macros list end*
%TA.AperFunction,ComponentPad*%
%ADD10RoundRect,0.250500X-0.499500X-0.499500X0.499500X-0.499500X0.499500X0.499500X-0.499500X0.499500X0*%
%TD*%
%TA.AperFunction,ComponentPad*%
%ADD11C,1.500000*%
%TD*%
%TA.AperFunction,ComponentPad*%
%ADD12C,2.500000*%
%TD*%
%TA.AperFunction,ComponentPad*%
%ADD13R,1.700000X1.700000*%
%TD*%
%TA.AperFunction,ComponentPad*%
%ADD14C,1.700000*%
%TD*%
%TA.AperFunction,ComponentPad*%
%ADD15R,3.500000X3.500000*%
%TD*%
%TA.AperFunction,ComponentPad*%
%ADD16RoundRect,0.750000X0.750000X1.000000X-0.750000X1.000000X-0.750000X-1.000000X0.750000X-1.000000X0*%
%TD*%
%TA.AperFunction,ComponentPad*%
%ADD17RoundRect,0.875000X0.875000X0.875000X-0.875000X0.875000X-0.875000X-0.875000X0.875000X-0.875000X0*%
%TD*%
%TA.AperFunction,ComponentPad*%
%ADD18R,1.600000X1.600000*%
%TD*%
%TA.AperFunction,ComponentPad*%
%ADD19C,1.600000*%
%TD*%
%TA.AperFunction,ComponentPad*%
%ADD20C,3.000000*%
%TD*%
%TA.AperFunction,ComponentPad*%
%ADD21C,6.000000*%
%TD*%
%TA.AperFunction,SMDPad,CuDef*%
%ADD22R,0.500000X2.800000*%
%TD*%
%TA.AperFunction,SMDPad,CuDef*%
%ADD23R,0.600000X2.600000*%
%TD*%
G04 APERTURE END LIST*
D10*
%TO.P,J6,1,TXP_A*%
%TO.N,unconnected-(J6-TXP_A-Pad1)*%
X296100000Y-181490000D03*
D11*
%TO.P,J6,2,TXN_A*%
%TO.N,unconnected-(J6-TXN_A-Pad2)*%
X293560000Y-180230000D03*
%TO.P,J6,3,TXP_B*%
%TO.N,unconnected-(J6-TXP_B-Pad3)*%
X296100000Y-178950000D03*
%TO.P,J6,4,TXN_B*%
%TO.N,unconnected-(J6-TXN_B-Pad4)*%
X293560000Y-177690000D03*
%TO.P,J6,5,TXP_C*%
%TO.N,unconnected-(J6-TXP_C-Pad5)*%
X296100000Y-176410000D03*
%TO.P,J6,6,TXN_C*%
%TO.N,unconnected-(J6-TXN_C-Pad6)*%
X293560000Y-175150000D03*
%TO.P,J6,7,TXP_D*%
%TO.N,unconnected-(J6-TXP_D-Pad7)*%
X296100000Y-173870000D03*
%TO.P,J6,8,TXN_D*%
%TO.N,unconnected-(J6-TXN_D-Pad8)*%
X293560000Y-172610000D03*
%TO.P,J6,9,LED_G+*%
%TO.N,unconnected-(J6-LED_G+-Pad9)*%
X307360000Y-183675000D03*
%TO.P,J6,10,LED_G-*%
%TO.N,unconnected-(J6-LED_G--Pad10)*%
X307360000Y-181135000D03*
%TO.P,J6,11,LED_Y+*%
%TO.N,unconnected-(J6-LED_Y+-Pad11)*%
X307360000Y-172965000D03*
%TO.P,J6,12,LED_Y-*%
%TO.N,unconnected-(J6-LED_Y--Pad12)*%
X307360000Y-170425000D03*
D12*
%TO.P,J6,SH*%
%TO.N,N/C*%
X299410000Y-184795000D03*
X299410000Y-169305000D03*
%TD*%
D13*
%TO.P,J7,1,1*%
%TO.N,unconnected-(J7-Pad1)*%
X103825000Y-37445000D03*
D14*
%TO.P,J7,2,2*%
%TO.N,unconnected-(J7-Pad2)*%
X103825000Y-39985000D03*
%TD*%
D15*
%TO.P,J16,1*%
%TO.N,Net-(U26-VIN)*%
X77770000Y-171150000D03*
D16*
%TO.P,J16,2*%
%TO.N,GND*%
X71770000Y-171150000D03*
D17*
%TO.P,J16,3*%
%TO.N,N/C*%
X74770000Y-175850000D03*
%TD*%
D13*
%TO.P,J10,1,1*%
%TO.N,unconnected-(J10-Pad1)*%
X113825000Y-37445000D03*
D14*
%TO.P,J10,2,2*%
%TO.N,unconnected-(J10-Pad2)*%
X113825000Y-39985000D03*
%TD*%
D13*
%TO.P,J12,1,1*%
%TO.N,unconnected-(J12-Pad1)*%
X113825000Y-57445000D03*
D14*
%TO.P,J12,2,2*%
%TO.N,unconnected-(J12-Pad2)*%
X113825000Y-59985000D03*
%TD*%
D18*
%TO.P,J4,1,VBUS*%
%TO.N,unconnected-(J4-VBUS-Pad1)*%
X269670000Y-67510000D03*
D19*
%TO.P,J4,2,D-*%
%TO.N,unconnected-(J4-D--Pad2)*%
X269670000Y-65010000D03*
%TO.P,J4,3,D+*%
%TO.N,unconnected-(J4-D+-Pad3)*%
X269670000Y-63010000D03*
%TO.P,J4,4,GND*%
%TO.N,GND*%
X269670000Y-60510000D03*
D20*
%TO.P,J4,5,SHIELD*%
%TO.N,unconnected-(J4-SHIELD-Pad5)*%
X272380000Y-70580000D03*
X272380000Y-57440000D03*
%TD*%
D21*
%TO.P,MH2,1*%
%TO.N,GND*%
X245000000Y-105000000D03*
%TD*%
D18*
%TO.P,J3,1,VBUS*%
%TO.N,unconnected-(J3-VBUS-Pad1)*%
X269670000Y-55510000D03*
D19*
%TO.P,J3,2,D-*%
%TO.N,unconnected-(J3-D--Pad2)*%
X269670000Y-53010000D03*
%TO.P,J3,3,D+*%
%TO.N,unconnected-(J3-D+-Pad3)*%
X269670000Y-51010000D03*
%TO.P,J3,4,GND*%
%TO.N,GND*%
X269670000Y-48510000D03*
D20*
%TO.P,J3,5,SHIELD*%
%TO.N,unconnected-(J3-SHIELD-Pad5)*%
X272380000Y-58580000D03*
X272380000Y-45440000D03*
%TD*%
D18*
%TO.P,J2,1,VBUS*%
%TO.N,unconnected-(J2-VBUS-Pad1)*%
X269670000Y-43510000D03*
D19*
%TO.P,J2,2,D-*%
%TO.N,unconnected-(J2-D--Pad2)*%
X269670000Y-41010000D03*
%TO.P,J2,3,D+*%
%TO.N,unconnected-(J2-D+-Pad3)*%
X269670000Y-39010000D03*
%TO.P,J2,4,GND*%
%TO.N,GND*%
X269670000Y-36510000D03*
D20*
%TO.P,J2,5,SHIELD*%
%TO.N,unconnected-(J2-SHIELD-Pad5)*%
X272380000Y-46580000D03*
X272380000Y-33440000D03*
%TD*%
D18*
%TO.P,J1,1,VBUS*%
%TO.N,unconnected-(J1-VBUS-Pad1)*%
X269670000Y-31510000D03*
D19*
%TO.P,J1,2,D-*%
%TO.N,unconnected-(J1-D--Pad2)*%
X269670000Y-29010000D03*
%TO.P,J1,3,D+*%
%TO.N,unconnected-(J1-D+-Pad3)*%
X269670000Y-27010000D03*
%TO.P,J1,4,GND*%
%TO.N,GND*%
X269670000Y-24510000D03*
D20*
%TO.P,J1,5,SHIELD*%
%TO.N,unconnected-(J1-SHIELD-Pad5)*%
X272380000Y-34580000D03*
X272380000Y-21440000D03*
%TD*%
D13*
%TO.P,J9,1,1*%
%TO.N,unconnected-(J9-Pad1)*%
X103825000Y-57445000D03*
D14*
%TO.P,J9,2,2*%
%TO.N,unconnected-(J9-Pad2)*%
X103825000Y-59985000D03*
%TD*%
D21*
%TO.P,MH1,1*%
%TO.N,GND*%
X105000000Y-105000000D03*
%TD*%
D22*
%TO.P,J23,2,TMDS_D2_SH*%
%TO.N,Net-(J23-TMDS_D2_SH)*%
X168720000Y-388900000D03*
%TO.P,J23,4,TMDS_D1+*%
%TO.N,Net-(J23-TMDS_D1+)*%
X168720000Y-387900000D03*
%TO.P,J23,6,TMDS_D1-*%
%TO.N,Net-(J23-TMDS_D1-)*%
X168720000Y-386900000D03*
%TO.P,J23,8,TMDS_D0_SH*%
%TO.N,Net-(J23-TMDS_D0_SH)*%
X168720000Y-385900000D03*
%TO.P,J23,10,TMDS_CLK+*%
%TO.N,unconnected-(J23-TMDS_CLK+-Pad10)*%
X168720000Y-384900000D03*
%TO.P,J23,12,TMDS_CLK-*%
%TO.N,unconnected-(J23-TMDS_CLK--Pad12)*%
X168720000Y-383900000D03*
%TO.P,J23,14,NC*%
%TO.N,unconnected-(J23-NC-Pad14)*%
X168720000Y-382900000D03*
%TO.P,J23,16,SDA*%
%TO.N,unconnected-(J23-SDA-Pad16)*%
X168720000Y-381900000D03*
%TO.P,J23,18,+5V*%
%TO.N,unconnected-(J23-+5V-Pad18)*%
X168720000Y-380900000D03*
D23*
%TO.P,J23,SH*%
%TO.N,N/C*%
X168820000Y-391675000D03*
X168820000Y-378125000D03*
%TD*%
D13*
%TO.P,J8,1,1*%
%TO.N,unconnected-(J8-Pad1)*%
X103825000Y-47445000D03*
D14*
%TO.P,J8,2,2*%
%TO.N,unconnected-(J8-Pad2)*%
X103825000Y-49985000D03*
%TD*%
D21*
%TO.P,MH4,1*%
%TO.N,GND*%
X245000000Y-195000000D03*
%TD*%
D22*
%TO.P,J24,2,TMDS_D2_SH*%
%TO.N,unconnected-(J24-TMDS_D2_SH-Pad2)*%
X148800000Y-390315000D03*
%TO.P,J24,4,TMDS_D1+*%
%TO.N,unconnected-(J24-TMDS_D1+-Pad4)*%
X148800000Y-389315000D03*
%TO.P,J24,6,TMDS_D1-*%
%TO.N,unconnected-(J24-TMDS_D1--Pad6)*%
X148800000Y-388315000D03*
%TO.P,J24,8,TMDS_D0_SH*%
%TO.N,unconnected-(J24-TMDS_D0_SH-Pad8)*%
X148800000Y-387315000D03*
%TO.P,J24,10,TMDS_CLK+*%
%TO.N,/HDMI In/Out/HDMI_IN_D2P*%
X148800000Y-386315000D03*
%TO.P,J24,12,TMDS_CLK-*%
%TO.N,/HDMI In/Out/HDMI_IN_D2N*%
X148800000Y-385315000D03*
%TO.P,J24,14,NC*%
%TO.N,unconnected-(J24-NC-Pad14)*%
X148800000Y-384315000D03*
%TO.P,J24,16,SDA*%
%TO.N,/HDMI In/Out/HDMI_IN_D1N*%
X148800000Y-383315000D03*
%TO.P,J24,18,+5V*%
%TO.N,unconnected-(J24-+5V-Pad18)*%
X148800000Y-382315000D03*
D23*
%TO.P,J24,SH*%
%TO.N,N/C*%
X148900000Y-393090000D03*
X148900000Y-379540000D03*
%TD*%
D21*
%TO.P,MH3,1*%
%TO.N,GND*%
X105000000Y-195000000D03*
%TD*%
M02*
