%TF.GenerationSoftware,KiCad,Pcbnew,9.0.6*%
%TF.CreationDate,2025-12-01T13:51:19+09:00*%
%TF.ProjectId,fcBoard,6663426f-6172-4642-9e6b-696361645f70,0.2*%
%TF.SameCoordinates,Original*%
%TF.FileFunction,Other,User*%
%FSLAX46Y46*%
G04 Gerber Fmt 4.6, Leading zero omitted, Abs format (unit mm)*
G04 Created by KiCad (PCBNEW 9.0.6) date 2025-12-01 13:51:19*
%MOMM*%
%LPD*%
G01*
G04 APERTURE LIST*
%ADD10C,0.050000*%
G04 APERTURE END LIST*
D10*
%TO.C,D16*%
X31775000Y-128215000D02*
X34735000Y-128215000D01*
X31775000Y-129675000D02*
X31775000Y-128215000D01*
X34735000Y-128215000D02*
X34735000Y-129675000D01*
X34735000Y-129675000D02*
X31775000Y-129675000D01*
%TO.C,U42*%
X118520000Y-373760000D02*
X119920000Y-373760000D01*
X118520000Y-380520000D02*
X118520000Y-373760000D01*
X119920000Y-373640000D02*
X124820000Y-373640000D01*
X119920000Y-373760000D02*
X119920000Y-373640000D01*
X119920000Y-380520000D02*
X118520000Y-380520000D01*
X119920000Y-380640000D02*
X119920000Y-380520000D01*
X124820000Y-373640000D02*
X124820000Y-373760000D01*
X124820000Y-373760000D02*
X126220000Y-373760000D01*
X124820000Y-380520000D02*
X124820000Y-380640000D01*
X124820000Y-380640000D02*
X119920000Y-380640000D01*
X126220000Y-373760000D02*
X126220000Y-380520000D01*
X126220000Y-380520000D02*
X124820000Y-380520000D01*
%TO.C,J6*%
X291560000Y-168530000D02*
X297690000Y-168530000D01*
X291560000Y-185570000D02*
X291560000Y-168530000D01*
X291560000Y-185570000D02*
X297690000Y-185570000D01*
X298670000Y-167550000D02*
X297690000Y-168530000D01*
X298670000Y-186550000D02*
X297690000Y-185570000D01*
X298670000Y-186550000D02*
X300150000Y-186550000D01*
X300150000Y-167550000D02*
X298670000Y-167550000D01*
X300150000Y-167550000D02*
X301130000Y-168530000D01*
X300150000Y-186550000D02*
X301130000Y-185570000D01*
X301130000Y-168530000D02*
X313860000Y-168530000D01*
X301130000Y-185570000D02*
X313860000Y-185570000D01*
X313860000Y-185570000D02*
X313860000Y-168530000D01*
%TO.C,J7*%
X102055000Y-35675000D02*
X102055000Y-41765000D01*
X102055000Y-41765000D02*
X105595000Y-41765000D01*
X105595000Y-35675000D02*
X102055000Y-35675000D01*
X105595000Y-41765000D02*
X105595000Y-35675000D01*
%TO.C,U1*%
X224540000Y-44380000D02*
X224920000Y-44380000D01*
X224540000Y-48640000D02*
X224540000Y-44380000D01*
X224920000Y-43760000D02*
X225540000Y-43760000D01*
X224920000Y-44380000D02*
X224920000Y-43760000D01*
X224920000Y-48640000D02*
X224540000Y-48640000D01*
X224920000Y-49260000D02*
X224920000Y-48640000D01*
X225540000Y-43380000D02*
X229800000Y-43380000D01*
X225540000Y-43760000D02*
X225540000Y-43380000D01*
X225540000Y-49260000D02*
X224920000Y-49260000D01*
X225540000Y-49640000D02*
X225540000Y-49260000D01*
X229800000Y-43380000D02*
X229800000Y-43760000D01*
X229800000Y-43760000D02*
X230420000Y-43760000D01*
X229800000Y-49260000D02*
X229800000Y-49640000D01*
X229800000Y-49640000D02*
X225540000Y-49640000D01*
X230420000Y-43760000D02*
X230420000Y-44380000D01*
X230420000Y-44380000D02*
X230800000Y-44380000D01*
X230420000Y-48640000D02*
X230420000Y-49260000D01*
X230420000Y-49260000D02*
X229800000Y-49260000D01*
X230800000Y-44380000D02*
X230800000Y-48640000D01*
X230800000Y-48640000D02*
X230420000Y-48640000D01*
%TO.C,U43*%
X130670000Y-357990000D02*
X132120000Y-357990000D01*
X130670000Y-366290000D02*
X130670000Y-357990000D01*
X132120000Y-356890000D02*
X133220000Y-356890000D01*
X132120000Y-357990000D02*
X132120000Y-356890000D01*
X132120000Y-366290000D02*
X130670000Y-366290000D01*
X132120000Y-367390000D02*
X132120000Y-366290000D01*
X133220000Y-355440000D02*
X141520000Y-355440000D01*
X133220000Y-356890000D02*
X133220000Y-355440000D01*
X133220000Y-367390000D02*
X132120000Y-367390000D01*
X133220000Y-368840000D02*
X133220000Y-367390000D01*
X141520000Y-355440000D02*
X141520000Y-356890000D01*
X141520000Y-356890000D02*
X142620000Y-356890000D01*
X141520000Y-367390000D02*
X141520000Y-368840000D01*
X141520000Y-368840000D02*
X133220000Y-368840000D01*
X142620000Y-356890000D02*
X142620000Y-357990000D01*
X142620000Y-357990000D02*
X144070000Y-357990000D01*
X142620000Y-366290000D02*
X142620000Y-367390000D01*
X142620000Y-367390000D02*
X141520000Y-367390000D01*
X144070000Y-357990000D02*
X144070000Y-366290000D01*
X144070000Y-366290000D02*
X142620000Y-366290000D01*
%TO.C,Y10*%
X125370000Y-383990000D02*
X125370000Y-386290000D01*
X125370000Y-383990000D02*
X129370000Y-383990000D01*
X125370000Y-386290000D02*
X129370000Y-386290000D01*
X129370000Y-383990000D02*
X129370000Y-386290000D01*
%TO.C,Y9*%
X125370000Y-367990000D02*
X125370000Y-370290000D01*
X125370000Y-367990000D02*
X129370000Y-367990000D01*
X125370000Y-370290000D02*
X129370000Y-370290000D01*
X129370000Y-367990000D02*
X129370000Y-370290000D01*
%TO.C,U8*%
X250620000Y-35010000D02*
X251620000Y-35010000D01*
X250620000Y-38010000D02*
X250620000Y-35010000D01*
X251620000Y-34810000D02*
X253720000Y-34810000D01*
X251620000Y-35010000D02*
X251620000Y-34810000D01*
X251620000Y-38010000D02*
X250620000Y-38010000D01*
X251620000Y-38210000D02*
X251620000Y-38010000D01*
X253720000Y-34810000D02*
X253720000Y-35010000D01*
X253720000Y-35010000D02*
X254720000Y-35010000D01*
X253720000Y-38010000D02*
X253720000Y-38210000D01*
X253720000Y-38210000D02*
X251620000Y-38210000D01*
X254720000Y-35010000D02*
X254720000Y-38010000D01*
X254720000Y-38010000D02*
X253720000Y-38010000D01*
%TO.C,R4*%
X132895000Y-21975000D02*
X134755000Y-21975000D01*
X132895000Y-22915000D02*
X132895000Y-21975000D01*
X134755000Y-21975000D02*
X134755000Y-22915000D01*
X134755000Y-22915000D02*
X132895000Y-22915000D01*
%TO.C,Y2*%
X326400000Y-178590000D02*
X326400000Y-180890000D01*
X326400000Y-178590000D02*
X330400000Y-178590000D01*
X326400000Y-180890000D02*
X330400000Y-180890000D01*
X330400000Y-178590000D02*
X330400000Y-180890000D01*
%TO.C,R20*%
X46125000Y-146645000D02*
X47985000Y-146645000D01*
X46125000Y-147585000D02*
X46125000Y-146645000D01*
X47985000Y-146645000D02*
X47985000Y-147585000D01*
X47985000Y-147585000D02*
X46125000Y-147585000D01*
%TO.C,R3*%
X127895000Y-21975000D02*
X129755000Y-21975000D01*
X127895000Y-22915000D02*
X127895000Y-21975000D01*
X129755000Y-21975000D02*
X129755000Y-22915000D01*
X129755000Y-22915000D02*
X127895000Y-22915000D01*
%TO.C,R2*%
X122895000Y-21975000D02*
X124755000Y-21975000D01*
X122895000Y-22915000D02*
X122895000Y-21975000D01*
X124755000Y-21975000D02*
X124755000Y-22915000D01*
X124755000Y-22915000D02*
X122895000Y-22915000D01*
%TO.C,J16*%
X63770000Y-175900000D02*
X63770000Y-166400000D01*
X72770000Y-175900000D02*
X63770000Y-175900000D01*
X72770000Y-177900000D02*
X72770000Y-175900000D01*
X76770000Y-175900000D02*
X76770000Y-177900000D01*
X76770000Y-177900000D02*
X72770000Y-177900000D01*
X78770000Y-166400000D02*
X63770000Y-166400000D01*
X78770000Y-166650000D02*
X78770000Y-166400000D01*
X78770000Y-166650000D02*
X78770000Y-169150000D01*
X78770000Y-169150000D02*
X79770000Y-169150000D01*
X78770000Y-173150000D02*
X78770000Y-175900000D01*
X78770000Y-175900000D02*
X76770000Y-175900000D01*
X79770000Y-169150000D02*
X79770000Y-173150000D01*
X79770000Y-173150000D02*
X78770000Y-173150000D01*
%TO.C,U26*%
X20055000Y-140295000D02*
X36705000Y-140295000D01*
X36705000Y-151595000D01*
X20055000Y-151595000D01*
X20055000Y-140295000D01*
%TO.C,R1*%
X117895000Y-21975000D02*
X119755000Y-21975000D01*
X117895000Y-22915000D02*
X117895000Y-21975000D01*
X119755000Y-21975000D02*
X119755000Y-22915000D01*
X119755000Y-22915000D02*
X117895000Y-22915000D01*
%TO.C,Y1*%
X326400000Y-168590000D02*
X326400000Y-170890000D01*
X326400000Y-168590000D02*
X330400000Y-168590000D01*
X326400000Y-170890000D02*
X330400000Y-170890000D01*
X330400000Y-168590000D02*
X330400000Y-170890000D01*
%TO.C,J10*%
X112055000Y-35675000D02*
X112055000Y-41765000D01*
X112055000Y-41765000D02*
X115595000Y-41765000D01*
X115595000Y-35675000D02*
X112055000Y-35675000D01*
X115595000Y-41765000D02*
X115595000Y-35675000D01*
%TO.C,J12*%
X112055000Y-55675000D02*
X112055000Y-61765000D01*
X112055000Y-61765000D02*
X115595000Y-61765000D01*
X115595000Y-55675000D02*
X112055000Y-55675000D01*
X115595000Y-61765000D02*
X115595000Y-55675000D01*
%TO.C,L6*%
X36755000Y-152695000D02*
X36755000Y-159195000D01*
X36755000Y-159195000D02*
X43755000Y-159195000D01*
X43755000Y-152695000D02*
X36755000Y-152695000D01*
X43755000Y-159195000D02*
X43755000Y-152695000D01*
%TO.C,D12*%
X31775000Y-122215000D02*
X34735000Y-122215000D01*
X31775000Y-123675000D02*
X31775000Y-122215000D01*
X34735000Y-122215000D02*
X34735000Y-123675000D01*
X34735000Y-123675000D02*
X31775000Y-123675000D01*
%TO.C,U13*%
X105125000Y-36985000D02*
X106625000Y-36985000D01*
X105125000Y-41905000D02*
X105125000Y-36985000D01*
X106625000Y-36745000D02*
X111025000Y-36745000D01*
X106625000Y-36985000D02*
X106625000Y-36745000D01*
X106625000Y-41905000D02*
X105125000Y-41905000D01*
X106625000Y-42145000D02*
X106625000Y-41905000D01*
X111025000Y-36745000D02*
X111025000Y-36985000D01*
X111025000Y-36985000D02*
X112525000Y-36985000D01*
X111025000Y-41905000D02*
X111025000Y-42145000D01*
X111025000Y-42145000D02*
X106625000Y-42145000D01*
X112525000Y-36985000D02*
X112525000Y-41905000D01*
X112525000Y-41905000D02*
X111025000Y-41905000D01*
%TO.C,U9*%
X203952500Y-62180000D02*
X204952500Y-62180000D01*
X203952500Y-65180000D02*
X203952500Y-62180000D01*
X204952500Y-61980000D02*
X207052500Y-61980000D01*
X204952500Y-62180000D02*
X204952500Y-61980000D01*
X204952500Y-65180000D02*
X203952500Y-65180000D01*
X204952500Y-65380000D02*
X204952500Y-65180000D01*
X207052500Y-61980000D02*
X207052500Y-62180000D01*
X207052500Y-62180000D02*
X208052500Y-62180000D01*
X207052500Y-65180000D02*
X207052500Y-65380000D01*
X207052500Y-65380000D02*
X204952500Y-65380000D01*
X208052500Y-62180000D02*
X208052500Y-65180000D01*
X208052500Y-65180000D02*
X207052500Y-65180000D01*
%TO.C,L5*%
X26755000Y-152695000D02*
X26755000Y-159195000D01*
X26755000Y-159195000D02*
X33755000Y-159195000D01*
X33755000Y-152695000D02*
X26755000Y-152695000D01*
X33755000Y-159195000D02*
X33755000Y-152695000D01*
%TO.C,D11*%
X25775000Y-122215000D02*
X28735000Y-122215000D01*
X25775000Y-123675000D02*
X25775000Y-122215000D01*
X28735000Y-122215000D02*
X28735000Y-123675000D01*
X28735000Y-123675000D02*
X25775000Y-123675000D01*
%TO.C,J4*%
X268160000Y-57260000D02*
X268160000Y-70760000D01*
X270360000Y-57260000D02*
X268160000Y-57260000D01*
X270360000Y-57260000D02*
X270360000Y-56260000D01*
X270360000Y-70760000D02*
X268160000Y-70760000D01*
X270360000Y-70760000D02*
X270360000Y-71760000D01*
X271660000Y-55360000D02*
X270360000Y-56260000D01*
X271660000Y-55360000D02*
X273110000Y-55360000D01*
X271660000Y-72660000D02*
X270360000Y-71760000D01*
X273110000Y-55360000D02*
X274410000Y-56260000D01*
X273110000Y-72660000D02*
X271660000Y-72660000D01*
X273110000Y-72660000D02*
X274410000Y-71760000D01*
X274410000Y-57260000D02*
X274410000Y-56260000D01*
X274410000Y-70760000D02*
X274410000Y-71760000D01*
X274410000Y-70760000D02*
X281660000Y-70760000D01*
X281660000Y-56260000D02*
X281660000Y-57260000D01*
X281660000Y-57260000D02*
X274410000Y-57260000D01*
X281660000Y-70760000D02*
X281660000Y-71760000D01*
X281660000Y-71760000D02*
X283160000Y-71760000D01*
X283160000Y-56260000D02*
X281660000Y-56260000D01*
X283160000Y-71760000D02*
X283160000Y-56260000D01*
%TO.C,C37*%
X105460000Y-396680000D02*
X107280000Y-396680000D01*
X105460000Y-397600000D02*
X105460000Y-396680000D01*
X107280000Y-396680000D02*
X107280000Y-397600000D01*
X107280000Y-397600000D02*
X105460000Y-397600000D01*
%TO.C,C23*%
X44345000Y-190485000D02*
X46165000Y-190485000D01*
X44345000Y-191405000D02*
X44345000Y-190485000D01*
X46165000Y-190485000D02*
X46165000Y-191405000D01*
X46165000Y-191405000D02*
X44345000Y-191405000D01*
%TO.C,U28*%
X40055000Y-175295000D02*
X56705000Y-175295000D01*
X56705000Y-186595000D01*
X40055000Y-186595000D01*
X40055000Y-175295000D01*
%TO.C,MH2*%
X248200000Y-105000000D02*
G75*
G02*
X241800000Y-105000000I-3200000J0D01*
G01*
X241800000Y-105000000D02*
G75*
G02*
X248200000Y-105000000I3200000J0D01*
G01*
%TO.C,U11*%
X304270000Y-151610000D02*
X304650000Y-151610000D01*
X304270000Y-157870000D02*
X304270000Y-151610000D01*
X304650000Y-150990000D02*
X305270000Y-150990000D01*
X304650000Y-151610000D02*
X304650000Y-150990000D01*
X304650000Y-157870000D02*
X304270000Y-157870000D01*
X304650000Y-158490000D02*
X304650000Y-157870000D01*
X305270000Y-150610000D02*
X311530000Y-150610000D01*
X305270000Y-150990000D02*
X305270000Y-150610000D01*
X305270000Y-158490000D02*
X304650000Y-158490000D01*
X305270000Y-158870000D02*
X305270000Y-158490000D01*
X311530000Y-150610000D02*
X311530000Y-150990000D01*
X311530000Y-150990000D02*
X312150000Y-150990000D01*
X311530000Y-158490000D02*
X311530000Y-158870000D01*
X311530000Y-158870000D02*
X305270000Y-158870000D01*
X312150000Y-150990000D02*
X312150000Y-151610000D01*
X312150000Y-151610000D02*
X312530000Y-151610000D01*
X312150000Y-157870000D02*
X312150000Y-158490000D01*
X312150000Y-158490000D02*
X311530000Y-158490000D01*
X312530000Y-151610000D02*
X312530000Y-157870000D01*
X312530000Y-157870000D02*
X312150000Y-157870000D01*
%TO.C,R17*%
X61125000Y-141645000D02*
X62985000Y-141645000D01*
X61125000Y-142585000D02*
X61125000Y-141645000D01*
X62985000Y-141645000D02*
X62985000Y-142585000D01*
X62985000Y-142585000D02*
X61125000Y-142585000D01*
%TO.C,U17*%
X120725000Y-49565000D02*
X121075000Y-49565000D01*
X120725000Y-53325000D02*
X120725000Y-49565000D01*
X121075000Y-48695000D02*
X121945000Y-48695000D01*
X121075000Y-49565000D02*
X121075000Y-48695000D01*
X121075000Y-53325000D02*
X120725000Y-53325000D01*
X121075000Y-54195000D02*
X121075000Y-53325000D01*
X121945000Y-48345000D02*
X125705000Y-48345000D01*
X121945000Y-48695000D02*
X121945000Y-48345000D01*
X121945000Y-54195000D02*
X121075000Y-54195000D01*
X121945000Y-54545000D02*
X121945000Y-54195000D01*
X125705000Y-48345000D02*
X125705000Y-48695000D01*
X125705000Y-48695000D02*
X126575000Y-48695000D01*
X125705000Y-54195000D02*
X125705000Y-54545000D01*
X125705000Y-54545000D02*
X121945000Y-54545000D01*
X126575000Y-48695000D02*
X126575000Y-49565000D01*
X126575000Y-49565000D02*
X126925000Y-49565000D01*
X126575000Y-53325000D02*
X126575000Y-54195000D01*
X126575000Y-54195000D02*
X125705000Y-54195000D01*
X126925000Y-49565000D02*
X126925000Y-53325000D01*
X126925000Y-53325000D02*
X126575000Y-53325000D01*
%TO.C,R16*%
X56125000Y-141645000D02*
X57985000Y-141645000D01*
X56125000Y-142585000D02*
X56125000Y-141645000D01*
X57985000Y-141645000D02*
X57985000Y-142585000D01*
X57985000Y-142585000D02*
X56125000Y-142585000D01*
%TO.C,U7*%
X230620000Y-65010000D02*
X231620000Y-65010000D01*
X230620000Y-68010000D02*
X230620000Y-65010000D01*
X231620000Y-64810000D02*
X233720000Y-64810000D01*
X231620000Y-65010000D02*
X231620000Y-64810000D01*
X231620000Y-68010000D02*
X230620000Y-68010000D01*
X231620000Y-68210000D02*
X231620000Y-68010000D01*
X233720000Y-64810000D02*
X233720000Y-65010000D01*
X233720000Y-65010000D02*
X234720000Y-65010000D01*
X233720000Y-68010000D02*
X233720000Y-68210000D01*
X233720000Y-68210000D02*
X231620000Y-68210000D01*
X234720000Y-65010000D02*
X234720000Y-68010000D01*
X234720000Y-68010000D02*
X233720000Y-68010000D01*
%TO.C,D3*%
X74345000Y-26715000D02*
X77305000Y-26715000D01*
X74345000Y-28175000D02*
X74345000Y-26715000D01*
X77305000Y-26715000D02*
X77305000Y-28175000D01*
X77305000Y-28175000D02*
X74345000Y-28175000D01*
%TO.C,U12*%
X274270000Y-163610000D02*
X274650000Y-163610000D01*
X274270000Y-169870000D02*
X274270000Y-163610000D01*
X274650000Y-162990000D02*
X275270000Y-162990000D01*
X274650000Y-163610000D02*
X274650000Y-162990000D01*
X274650000Y-169870000D02*
X274270000Y-169870000D01*
X274650000Y-170490000D02*
X274650000Y-169870000D01*
X275270000Y-162610000D02*
X281530000Y-162610000D01*
X275270000Y-162990000D02*
X275270000Y-162610000D01*
X275270000Y-170490000D02*
X274650000Y-170490000D01*
X275270000Y-170870000D02*
X275270000Y-170490000D01*
X281530000Y-162610000D02*
X281530000Y-162990000D01*
X281530000Y-162990000D02*
X282150000Y-162990000D01*
X281530000Y-170490000D02*
X281530000Y-170870000D01*
X281530000Y-170870000D02*
X275270000Y-170870000D01*
X282150000Y-162990000D02*
X282150000Y-163610000D01*
X282150000Y-163610000D02*
X282530000Y-163610000D01*
X282150000Y-169870000D02*
X282150000Y-170490000D01*
X282150000Y-170490000D02*
X281530000Y-170490000D01*
X282530000Y-163610000D02*
X282530000Y-169870000D01*
X282530000Y-169870000D02*
X282150000Y-169870000D01*
%TO.C,R18*%
X66125000Y-141645000D02*
X67985000Y-141645000D01*
X66125000Y-142585000D02*
X66125000Y-141645000D01*
X67985000Y-141645000D02*
X67985000Y-142585000D01*
X67985000Y-142585000D02*
X66125000Y-142585000D01*
%TO.C,J3*%
X268160000Y-45260000D02*
X268160000Y-58760000D01*
X270360000Y-45260000D02*
X268160000Y-45260000D01*
X270360000Y-45260000D02*
X270360000Y-44260000D01*
X270360000Y-58760000D02*
X268160000Y-58760000D01*
X270360000Y-58760000D02*
X270360000Y-59760000D01*
X271660000Y-43360000D02*
X270360000Y-44260000D01*
X271660000Y-43360000D02*
X273110000Y-43360000D01*
X271660000Y-60660000D02*
X270360000Y-59760000D01*
X273110000Y-43360000D02*
X274410000Y-44260000D01*
X273110000Y-60660000D02*
X271660000Y-60660000D01*
X273110000Y-60660000D02*
X274410000Y-59760000D01*
X274410000Y-45260000D02*
X274410000Y-44260000D01*
X274410000Y-58760000D02*
X274410000Y-59760000D01*
X274410000Y-58760000D02*
X281660000Y-58760000D01*
X281660000Y-44260000D02*
X281660000Y-45260000D01*
X281660000Y-45260000D02*
X274410000Y-45260000D01*
X281660000Y-58760000D02*
X281660000Y-59760000D01*
X281660000Y-59760000D02*
X283160000Y-59760000D01*
X283160000Y-44260000D02*
X281660000Y-44260000D01*
X283160000Y-59760000D02*
X283160000Y-44260000D01*
%TO.C,J11*%
X105745000Y-41245000D02*
X105745000Y-55945000D01*
X121905000Y-41245000D02*
X105745000Y-41245000D01*
X121905000Y-41245000D02*
X121905000Y-55945000D01*
X121905000Y-55945000D02*
X105745000Y-55945000D01*
%TO.C,SW2*%
X73180000Y-35530000D02*
X81680000Y-35530000D01*
X73180000Y-41530000D02*
X73180000Y-35530000D01*
X81680000Y-35530000D02*
X81680000Y-41530000D01*
X81680000Y-41530000D02*
X73180000Y-41530000D01*
%TO.C,D4*%
X80345000Y-26715000D02*
X83305000Y-26715000D01*
X80345000Y-28175000D02*
X80345000Y-26715000D01*
X83305000Y-26715000D02*
X83305000Y-28175000D01*
X83305000Y-28175000D02*
X80345000Y-28175000D01*
%TO.C,U5*%
X231370000Y-35960000D02*
X231720000Y-35960000D01*
X231370000Y-37060000D02*
X231370000Y-35960000D01*
X231720000Y-35360000D02*
X231920000Y-35360000D01*
X231720000Y-35960000D02*
X231720000Y-35360000D01*
X231720000Y-37060000D02*
X231370000Y-37060000D01*
X231720000Y-37660000D02*
X231720000Y-37060000D01*
X231920000Y-35010000D02*
X233420000Y-35010000D01*
X231920000Y-35360000D02*
X231920000Y-35010000D01*
X231920000Y-37660000D02*
X231720000Y-37660000D01*
X231920000Y-38010000D02*
X231920000Y-37660000D01*
X233420000Y-35010000D02*
X233420000Y-35360000D01*
X233420000Y-35360000D02*
X233620000Y-35360000D01*
X233420000Y-37660000D02*
X233420000Y-38010000D01*
X233420000Y-38010000D02*
X231920000Y-38010000D01*
X233620000Y-35360000D02*
X233620000Y-35960000D01*
X233620000Y-35960000D02*
X233970000Y-35960000D01*
X233620000Y-37060000D02*
X233620000Y-37660000D01*
X233620000Y-37660000D02*
X233420000Y-37660000D01*
X233970000Y-35960000D02*
X233970000Y-37060000D01*
X233970000Y-37060000D02*
X233620000Y-37060000D01*
%TO.C,U2*%
X238540000Y-33380000D02*
X238920000Y-33380000D01*
X238540000Y-39640000D02*
X238540000Y-33380000D01*
X238920000Y-32760000D02*
X239540000Y-32760000D01*
X238920000Y-33380000D02*
X238920000Y-32760000D01*
X238920000Y-39640000D02*
X238540000Y-39640000D01*
X238920000Y-40260000D02*
X238920000Y-39640000D01*
X239540000Y-32380000D02*
X245800000Y-32380000D01*
X239540000Y-32760000D02*
X239540000Y-32380000D01*
X239540000Y-40260000D02*
X238920000Y-40260000D01*
X239540000Y-40640000D02*
X239540000Y-40260000D01*
X245800000Y-32380000D02*
X245800000Y-32760000D01*
X245800000Y-32760000D02*
X246420000Y-32760000D01*
X245800000Y-40260000D02*
X245800000Y-40640000D01*
X245800000Y-40640000D02*
X239540000Y-40640000D01*
X246420000Y-32760000D02*
X246420000Y-33380000D01*
X246420000Y-33380000D02*
X246800000Y-33380000D01*
X246420000Y-39640000D02*
X246420000Y-40260000D01*
X246420000Y-40260000D02*
X245800000Y-40260000D01*
X246800000Y-33380000D02*
X246800000Y-39640000D01*
X246800000Y-39640000D02*
X246420000Y-39640000D01*
%TO.C,U4*%
X241370000Y-65960000D02*
X241720000Y-65960000D01*
X241370000Y-67060000D02*
X241370000Y-65960000D01*
X241720000Y-65360000D02*
X241920000Y-65360000D01*
X241720000Y-65960000D02*
X241720000Y-65360000D01*
X241720000Y-67060000D02*
X241370000Y-67060000D01*
X241720000Y-67660000D02*
X241720000Y-67060000D01*
X241920000Y-65010000D02*
X243420000Y-65010000D01*
X241920000Y-65360000D02*
X241920000Y-65010000D01*
X241920000Y-67660000D02*
X241720000Y-67660000D01*
X241920000Y-68010000D02*
X241920000Y-67660000D01*
X243420000Y-65010000D02*
X243420000Y-65360000D01*
X243420000Y-65360000D02*
X243620000Y-65360000D01*
X243420000Y-67660000D02*
X243420000Y-68010000D01*
X243420000Y-68010000D02*
X241920000Y-68010000D01*
X243620000Y-65360000D02*
X243620000Y-65960000D01*
X243620000Y-65960000D02*
X243970000Y-65960000D01*
X243620000Y-67060000D02*
X243620000Y-67660000D01*
X243620000Y-67660000D02*
X243420000Y-67660000D01*
X243970000Y-65960000D02*
X243970000Y-67060000D01*
X243970000Y-67060000D02*
X243620000Y-67060000D01*
%TO.C,U10*%
X218952500Y-62180000D02*
X219952500Y-62180000D01*
X218952500Y-65180000D02*
X218952500Y-62180000D01*
X219952500Y-61980000D02*
X222052500Y-61980000D01*
X219952500Y-62180000D02*
X219952500Y-61980000D01*
X219952500Y-65180000D02*
X218952500Y-65180000D01*
X219952500Y-65380000D02*
X219952500Y-65180000D01*
X222052500Y-61980000D02*
X222052500Y-62180000D01*
X222052500Y-62180000D02*
X223052500Y-62180000D01*
X222052500Y-65180000D02*
X222052500Y-65380000D01*
X222052500Y-65380000D02*
X219952500Y-65380000D01*
X223052500Y-62180000D02*
X223052500Y-65180000D01*
X223052500Y-65180000D02*
X222052500Y-65180000D01*
%TO.C,R15*%
X51125000Y-141645000D02*
X52985000Y-141645000D01*
X51125000Y-142585000D02*
X51125000Y-141645000D01*
X52985000Y-141645000D02*
X52985000Y-142585000D01*
X52985000Y-142585000D02*
X51125000Y-142585000D01*
%TO.C,J2*%
X268160000Y-33260000D02*
X268160000Y-46760000D01*
X270360000Y-33260000D02*
X268160000Y-33260000D01*
X270360000Y-33260000D02*
X270360000Y-32260000D01*
X270360000Y-46760000D02*
X268160000Y-46760000D01*
X270360000Y-46760000D02*
X270360000Y-47760000D01*
X271660000Y-31360000D02*
X270360000Y-32260000D01*
X271660000Y-31360000D02*
X273110000Y-31360000D01*
X271660000Y-48660000D02*
X270360000Y-47760000D01*
X273110000Y-31360000D02*
X274410000Y-32260000D01*
X273110000Y-48660000D02*
X271660000Y-48660000D01*
X273110000Y-48660000D02*
X274410000Y-47760000D01*
X274410000Y-33260000D02*
X274410000Y-32260000D01*
X274410000Y-46760000D02*
X274410000Y-47760000D01*
X274410000Y-46760000D02*
X281660000Y-46760000D01*
X281660000Y-32260000D02*
X281660000Y-33260000D01*
X281660000Y-33260000D02*
X274410000Y-33260000D01*
X281660000Y-46760000D02*
X281660000Y-47760000D01*
X281660000Y-47760000D02*
X283160000Y-47760000D01*
X283160000Y-32260000D02*
X281660000Y-32260000D01*
X283160000Y-47760000D02*
X283160000Y-32260000D01*
%TO.C,R21*%
X51125000Y-146645000D02*
X52985000Y-146645000D01*
X51125000Y-147585000D02*
X51125000Y-146645000D01*
X52985000Y-146645000D02*
X52985000Y-147585000D01*
X52985000Y-147585000D02*
X51125000Y-147585000D01*
%TO.C,J1*%
X268160000Y-21260000D02*
X268160000Y-34760000D01*
X270360000Y-21260000D02*
X268160000Y-21260000D01*
X270360000Y-21260000D02*
X270360000Y-20260000D01*
X270360000Y-34760000D02*
X268160000Y-34760000D01*
X270360000Y-34760000D02*
X270360000Y-35760000D01*
X271660000Y-19360000D02*
X270360000Y-20260000D01*
X271660000Y-19360000D02*
X273110000Y-19360000D01*
X271660000Y-36660000D02*
X270360000Y-35760000D01*
X273110000Y-19360000D02*
X274410000Y-20260000D01*
X273110000Y-36660000D02*
X271660000Y-36660000D01*
X273110000Y-36660000D02*
X274410000Y-35760000D01*
X274410000Y-21260000D02*
X274410000Y-20260000D01*
X274410000Y-34760000D02*
X274410000Y-35760000D01*
X274410000Y-34760000D02*
X281660000Y-34760000D01*
X281660000Y-20260000D02*
X281660000Y-21260000D01*
X281660000Y-21260000D02*
X274410000Y-21260000D01*
X281660000Y-34760000D02*
X281660000Y-35760000D01*
X281660000Y-35760000D02*
X283160000Y-35760000D01*
X283160000Y-20260000D02*
X281660000Y-20260000D01*
X283160000Y-35760000D02*
X283160000Y-20260000D01*
%TO.C,D14*%
X19775000Y-128215000D02*
X22735000Y-128215000D01*
X19775000Y-129675000D02*
X19775000Y-128215000D01*
X22735000Y-128215000D02*
X22735000Y-129675000D01*
X22735000Y-129675000D02*
X19775000Y-129675000D01*
%TO.C,D13*%
X13775000Y-128215000D02*
X16735000Y-128215000D01*
X13775000Y-129675000D02*
X13775000Y-128215000D01*
X16735000Y-128215000D02*
X16735000Y-129675000D01*
X16735000Y-129675000D02*
X13775000Y-129675000D01*
%TO.C,C20*%
X19345000Y-165485000D02*
X21165000Y-165485000D01*
X19345000Y-166405000D02*
X19345000Y-165485000D01*
X21165000Y-165485000D02*
X21165000Y-166405000D01*
X21165000Y-166405000D02*
X19345000Y-166405000D01*
%TO.C,U14*%
X120125000Y-36985000D02*
X121625000Y-36985000D01*
X120125000Y-41905000D02*
X120125000Y-36985000D01*
X121625000Y-36745000D02*
X126025000Y-36745000D01*
X121625000Y-36985000D02*
X121625000Y-36745000D01*
X121625000Y-41905000D02*
X120125000Y-41905000D01*
X121625000Y-42145000D02*
X121625000Y-41905000D01*
X126025000Y-36745000D02*
X126025000Y-36985000D01*
X126025000Y-36985000D02*
X127525000Y-36985000D01*
X126025000Y-41905000D02*
X126025000Y-42145000D01*
X126025000Y-42145000D02*
X121625000Y-42145000D01*
X127525000Y-36985000D02*
X127525000Y-41905000D01*
X127525000Y-41905000D02*
X126025000Y-41905000D01*
%TO.C,U44*%
X134740000Y-375510000D02*
X135120000Y-375510000D01*
X134740000Y-378770000D02*
X134740000Y-375510000D01*
X135120000Y-374890000D02*
X135740000Y-374890000D01*
X135120000Y-375510000D02*
X135120000Y-374890000D01*
X135120000Y-378770000D02*
X134740000Y-378770000D01*
X135120000Y-379390000D02*
X135120000Y-378770000D01*
X135740000Y-374510000D02*
X139000000Y-374510000D01*
X135740000Y-374890000D02*
X135740000Y-374510000D01*
X135740000Y-379390000D02*
X135120000Y-379390000D01*
X135740000Y-379770000D02*
X135740000Y-379390000D01*
X139000000Y-374510000D02*
X139000000Y-374890000D01*
X139000000Y-374890000D02*
X139620000Y-374890000D01*
X139000000Y-379390000D02*
X139000000Y-379770000D01*
X139000000Y-379770000D02*
X135740000Y-379770000D01*
X139620000Y-374890000D02*
X139620000Y-375510000D01*
X139620000Y-375510000D02*
X140000000Y-375510000D01*
X139620000Y-378770000D02*
X139620000Y-379390000D01*
X139620000Y-379390000D02*
X139000000Y-379390000D01*
X140000000Y-375510000D02*
X140000000Y-378770000D01*
X140000000Y-378770000D02*
X139620000Y-378770000D01*
%TO.C,J9*%
X102055000Y-55675000D02*
X102055000Y-61765000D01*
X102055000Y-61765000D02*
X105595000Y-61765000D01*
X105595000Y-55675000D02*
X102055000Y-55675000D01*
X105595000Y-61765000D02*
X105595000Y-55675000D01*
%TO.C,U27*%
X25055000Y-175295000D02*
X41705000Y-175295000D01*
X41705000Y-186595000D01*
X25055000Y-186595000D01*
X25055000Y-175295000D01*
%TO.C,D2*%
X68345000Y-26715000D02*
X71305000Y-26715000D01*
X68345000Y-28175000D02*
X68345000Y-26715000D01*
X71305000Y-26715000D02*
X71305000Y-28175000D01*
X71305000Y-28175000D02*
X68345000Y-28175000D01*
%TO.C,SW1*%
X63180000Y-35530000D02*
X71680000Y-35530000D01*
X63180000Y-41530000D02*
X63180000Y-35530000D01*
X71680000Y-35530000D02*
X71680000Y-41530000D01*
X71680000Y-41530000D02*
X63180000Y-41530000D01*
%TO.C,U45*%
X134740000Y-373510000D02*
X135120000Y-373510000D01*
X134740000Y-376770000D02*
X134740000Y-373510000D01*
X135120000Y-372890000D02*
X135740000Y-372890000D01*
X135120000Y-373510000D02*
X135120000Y-372890000D01*
X135120000Y-376770000D02*
X134740000Y-376770000D01*
X135120000Y-377390000D02*
X135120000Y-376770000D01*
X135740000Y-372510000D02*
X139000000Y-372510000D01*
X135740000Y-372890000D02*
X135740000Y-372510000D01*
X135740000Y-377390000D02*
X135120000Y-377390000D01*
X135740000Y-377770000D02*
X135740000Y-377390000D01*
X139000000Y-372510000D02*
X139000000Y-372890000D01*
X139000000Y-372890000D02*
X139620000Y-372890000D01*
X139000000Y-377390000D02*
X139000000Y-377770000D01*
X139000000Y-377770000D02*
X135740000Y-377770000D01*
X139620000Y-372890000D02*
X139620000Y-373510000D01*
X139620000Y-373510000D02*
X140000000Y-373510000D01*
X139620000Y-376770000D02*
X139620000Y-377390000D01*
X139620000Y-377390000D02*
X139000000Y-377390000D01*
X140000000Y-373510000D02*
X140000000Y-376770000D01*
X140000000Y-376770000D02*
X139620000Y-376770000D01*
%TO.C,U41*%
X115670000Y-357990000D02*
X117120000Y-357990000D01*
X115670000Y-366290000D02*
X115670000Y-357990000D01*
X117120000Y-356890000D02*
X118220000Y-356890000D01*
X117120000Y-357990000D02*
X117120000Y-356890000D01*
X117120000Y-366290000D02*
X115670000Y-366290000D01*
X117120000Y-367390000D02*
X117120000Y-366290000D01*
X118220000Y-355440000D02*
X126520000Y-355440000D01*
X118220000Y-356890000D02*
X118220000Y-355440000D01*
X118220000Y-367390000D02*
X117120000Y-367390000D01*
X118220000Y-368840000D02*
X118220000Y-367390000D01*
X126520000Y-355440000D02*
X126520000Y-356890000D01*
X126520000Y-356890000D02*
X127620000Y-356890000D01*
X126520000Y-367390000D02*
X126520000Y-368840000D01*
X126520000Y-368840000D02*
X118220000Y-368840000D01*
X127620000Y-356890000D02*
X127620000Y-357990000D01*
X127620000Y-357990000D02*
X129070000Y-357990000D01*
X127620000Y-366290000D02*
X127620000Y-367390000D01*
X127620000Y-367390000D02*
X126520000Y-367390000D01*
X129070000Y-357990000D02*
X129070000Y-366290000D01*
X129070000Y-366290000D02*
X127620000Y-366290000D01*
%TO.C,R24*%
X128200000Y-338820000D02*
X130060000Y-338820000D01*
X128200000Y-339760000D02*
X128200000Y-338820000D01*
X130060000Y-338820000D02*
X130060000Y-339760000D01*
X130060000Y-339760000D02*
X128200000Y-339760000D01*
%TO.C,MH1*%
X108200000Y-105000000D02*
G75*
G02*
X101800000Y-105000000I-3200000J0D01*
G01*
X101800000Y-105000000D02*
G75*
G02*
X108200000Y-105000000I3200000J0D01*
G01*
%TO.C,R19*%
X41125000Y-146645000D02*
X42985000Y-146645000D01*
X41125000Y-147585000D02*
X41125000Y-146645000D01*
X42985000Y-146645000D02*
X42985000Y-147585000D01*
X42985000Y-147585000D02*
X41125000Y-147585000D01*
%TO.C,U15*%
X90125000Y-48985000D02*
X91625000Y-48985000D01*
X90125000Y-53905000D02*
X90125000Y-48985000D01*
X91625000Y-48745000D02*
X96025000Y-48745000D01*
X91625000Y-48985000D02*
X91625000Y-48745000D01*
X91625000Y-53905000D02*
X90125000Y-53905000D01*
X91625000Y-54145000D02*
X91625000Y-53905000D01*
X96025000Y-48745000D02*
X96025000Y-48985000D01*
X96025000Y-48985000D02*
X97525000Y-48985000D01*
X96025000Y-53905000D02*
X96025000Y-54145000D01*
X96025000Y-54145000D02*
X91625000Y-54145000D01*
X97525000Y-48985000D02*
X97525000Y-53905000D01*
X97525000Y-53905000D02*
X96025000Y-53905000D01*
%TO.C,J23*%
X167020000Y-377320000D02*
X167020000Y-392480000D01*
X170620000Y-377320000D02*
X167020000Y-377320000D01*
X170620000Y-377450000D02*
X170620000Y-377320000D01*
X170620000Y-392350000D02*
X170620000Y-392480000D01*
X170620000Y-392480000D02*
X167020000Y-392480000D01*
X183220000Y-377450000D02*
X170620000Y-377450000D01*
X183220000Y-392350000D02*
X170620000Y-392350000D01*
X183220000Y-392350000D02*
X183220000Y-377450000D01*
%TO.C,U6*%
X231370000Y-50960000D02*
X231720000Y-50960000D01*
X231370000Y-52060000D02*
X231370000Y-50960000D01*
X231720000Y-50360000D02*
X231920000Y-50360000D01*
X231720000Y-50960000D02*
X231720000Y-50360000D01*
X231720000Y-52060000D02*
X231370000Y-52060000D01*
X231720000Y-52660000D02*
X231720000Y-52060000D01*
X231920000Y-50010000D02*
X233420000Y-50010000D01*
X231920000Y-50360000D02*
X231920000Y-50010000D01*
X231920000Y-52660000D02*
X231720000Y-52660000D01*
X231920000Y-53010000D02*
X231920000Y-52660000D01*
X233420000Y-50010000D02*
X233420000Y-50360000D01*
X233420000Y-50360000D02*
X233620000Y-50360000D01*
X233420000Y-52660000D02*
X233420000Y-53010000D01*
X233420000Y-53010000D02*
X231920000Y-53010000D01*
X233620000Y-50360000D02*
X233620000Y-50960000D01*
X233620000Y-50960000D02*
X233970000Y-50960000D01*
X233620000Y-52060000D02*
X233620000Y-52660000D01*
X233620000Y-52660000D02*
X233420000Y-52660000D01*
X233970000Y-50960000D02*
X233970000Y-52060000D01*
X233970000Y-52060000D02*
X233620000Y-52060000D01*
%TO.C,C22*%
X78600000Y-161550000D02*
X80420000Y-161550000D01*
X78600000Y-162470000D02*
X78600000Y-161550000D01*
X80420000Y-161550000D02*
X80420000Y-162470000D01*
X80420000Y-162470000D02*
X78600000Y-162470000D01*
%TO.C,J8*%
X102055000Y-45675000D02*
X102055000Y-51765000D01*
X102055000Y-51765000D02*
X105595000Y-51765000D01*
X105595000Y-45675000D02*
X102055000Y-45675000D01*
X105595000Y-51765000D02*
X105595000Y-45675000D01*
%TO.C,D15*%
X25775000Y-128215000D02*
X28735000Y-128215000D01*
X25775000Y-129675000D02*
X25775000Y-128215000D01*
X28735000Y-128215000D02*
X28735000Y-129675000D01*
X28735000Y-129675000D02*
X25775000Y-129675000D01*
%TO.C,U16*%
X105125000Y-48985000D02*
X106625000Y-48985000D01*
X105125000Y-53905000D02*
X105125000Y-48985000D01*
X106625000Y-48745000D02*
X111025000Y-48745000D01*
X106625000Y-48985000D02*
X106625000Y-48745000D01*
X106625000Y-53905000D02*
X105125000Y-53905000D01*
X106625000Y-54145000D02*
X106625000Y-53905000D01*
X111025000Y-48745000D02*
X111025000Y-48985000D01*
X111025000Y-48985000D02*
X112525000Y-48985000D01*
X111025000Y-53905000D02*
X111025000Y-54145000D01*
X111025000Y-54145000D02*
X106625000Y-54145000D01*
X112525000Y-48985000D02*
X112525000Y-53905000D01*
X112525000Y-53905000D02*
X111025000Y-53905000D01*
%TO.C,C36*%
X99460000Y-396680000D02*
X101280000Y-396680000D01*
X99460000Y-397600000D02*
X99460000Y-396680000D01*
X101280000Y-396680000D02*
X101280000Y-397600000D01*
X101280000Y-397600000D02*
X99460000Y-397600000D01*
%TO.C,MH4*%
X248200000Y-195000000D02*
G75*
G02*
X241800000Y-195000000I-3200000J0D01*
G01*
X241800000Y-195000000D02*
G75*
G02*
X248200000Y-195000000I3200000J0D01*
G01*
%TO.C,U3*%
X241370000Y-50960000D02*
X241720000Y-50960000D01*
X241370000Y-52060000D02*
X241370000Y-50960000D01*
X241720000Y-50360000D02*
X241920000Y-50360000D01*
X241720000Y-50960000D02*
X241720000Y-50360000D01*
X241720000Y-52060000D02*
X241370000Y-52060000D01*
X241720000Y-52660000D02*
X241720000Y-52060000D01*
X241920000Y-50010000D02*
X243420000Y-50010000D01*
X241920000Y-50360000D02*
X241920000Y-50010000D01*
X241920000Y-52660000D02*
X241720000Y-52660000D01*
X241920000Y-53010000D02*
X241920000Y-52660000D01*
X243420000Y-50010000D02*
X243420000Y-50360000D01*
X243420000Y-50360000D02*
X243620000Y-50360000D01*
X243420000Y-52660000D02*
X243420000Y-53010000D01*
X243420000Y-53010000D02*
X241920000Y-53010000D01*
X243620000Y-50360000D02*
X243620000Y-50960000D01*
X243620000Y-50960000D02*
X243970000Y-50960000D01*
X243620000Y-52060000D02*
X243620000Y-52660000D01*
X243620000Y-52660000D02*
X243420000Y-52660000D01*
X243970000Y-50960000D02*
X243970000Y-52060000D01*
X243970000Y-52060000D02*
X243620000Y-52060000D01*
%TO.C,D1*%
X62345000Y-26715000D02*
X65305000Y-26715000D01*
X62345000Y-28175000D02*
X62345000Y-26715000D01*
X65305000Y-26715000D02*
X65305000Y-28175000D01*
X65305000Y-28175000D02*
X62345000Y-28175000D01*
%TO.C,J24*%
X147100000Y-378735000D02*
X147100000Y-393895000D01*
X150700000Y-378735000D02*
X147100000Y-378735000D01*
X150700000Y-378865000D02*
X150700000Y-378735000D01*
X150700000Y-393765000D02*
X150700000Y-393895000D01*
X150700000Y-393895000D02*
X147100000Y-393895000D01*
X163300000Y-378865000D02*
X150700000Y-378865000D01*
X163300000Y-393765000D02*
X150700000Y-393765000D01*
X163300000Y-393765000D02*
X163300000Y-378865000D01*
%TO.C,MH3*%
X108200000Y-195000000D02*
G75*
G02*
X101800000Y-195000000I-3200000J0D01*
G01*
X101800000Y-195000000D02*
G75*
G02*
X108200000Y-195000000I3200000J0D01*
G01*
%TO.C,C21*%
X29345000Y-165485000D02*
X31165000Y-165485000D01*
X29345000Y-166405000D02*
X29345000Y-165485000D01*
X31165000Y-165485000D02*
X31165000Y-166405000D01*
X31165000Y-166405000D02*
X29345000Y-166405000D01*
%TO.C,L4*%
X16755000Y-152695000D02*
X16755000Y-159195000D01*
X16755000Y-159195000D02*
X23755000Y-159195000D01*
X23755000Y-152695000D02*
X16755000Y-152695000D01*
X23755000Y-159195000D02*
X23755000Y-152695000D01*
%TD*%
M02*
