%TF.GenerationSoftware,KiCad,Pcbnew,9.0.6*%
%TF.CreationDate,2025-12-01T13:51:19+09:00*%
%TF.ProjectId,fcBoard,6663426f-6172-4642-9e6b-696361645f70,0.2*%
%TF.SameCoordinates,Original*%
%TF.FileFunction,Paste,Top*%
%TF.FilePolarity,Positive*%
%FSLAX46Y46*%
G04 Gerber Fmt 4.6, Leading zero omitted, Abs format (unit mm)*
G04 Created by KiCad (PCBNEW 9.0.6) date 2025-12-01 13:51:19*
%MOMM*%
%LPD*%
G01*
G04 APERTURE LIST*
G04 Aperture macros list*
%AMRoundRect*
0 Rectangle with rounded corners*
0 $1 Rounding radius*
0 $2 $3 $4 $5 $6 $7 $8 $9 X,Y pos of 4 corners*
0 Add a 4 corners polygon primitive as box body*
4,1,4,$2,$3,$4,$5,$6,$7,$8,$9,$2,$3,0*
0 Add four circle primitives for the rounded corners*
1,1,$1+$1,$2,$3*
1,1,$1+$1,$4,$5*
1,1,$1+$1,$6,$7*
1,1,$1+$1,$8,$9*
0 Add four rect primitives between the rounded corners*
20,1,$1+$1,$2,$3,$4,$5,0*
20,1,$1+$1,$4,$5,$6,$7,0*
20,1,$1+$1,$6,$7,$8,$9,0*
20,1,$1+$1,$8,$9,$2,$3,0*%
G04 Aperture macros list end*
%ADD10RoundRect,0.218750X-0.218750X-0.256250X0.218750X-0.256250X0.218750X0.256250X-0.218750X0.256250X0*%
%ADD11RoundRect,0.100000X-0.637500X-0.100000X0.637500X-0.100000X0.637500X0.100000X-0.637500X0.100000X0*%
%ADD12RoundRect,0.207500X-0.207500X-0.207500X0.207500X-0.207500X0.207500X0.207500X-0.207500X0.207500X0*%
%ADD13RoundRect,0.062500X-0.375000X-0.062500X0.375000X-0.062500X0.375000X0.062500X-0.375000X0.062500X0*%
%ADD14RoundRect,0.062500X-0.062500X-0.375000X0.062500X-0.375000X0.062500X0.375000X-0.062500X0.375000X0*%
%ADD15RoundRect,0.075000X-0.700000X-0.075000X0.700000X-0.075000X0.700000X0.075000X-0.700000X0.075000X0*%
%ADD16RoundRect,0.075000X-0.075000X-0.700000X0.075000X-0.700000X0.075000X0.700000X-0.075000X0.700000X0*%
%ADD17R,1.000000X1.800000*%
%ADD18RoundRect,0.150000X-0.512500X-0.150000X0.512500X-0.150000X0.512500X0.150000X-0.512500X0.150000X0*%
%ADD19RoundRect,0.135000X-0.135000X-0.185000X0.135000X-0.185000X0.135000X0.185000X-0.135000X0.185000X0*%
%ADD20RoundRect,0.250000X-2.025000X-2.375000X2.025000X-2.375000X2.025000X2.375000X-2.025000X2.375000X0*%
%ADD21RoundRect,0.250000X-2.050000X-0.300000X2.050000X-0.300000X2.050000X0.300000X-2.050000X0.300000X0*%
%ADD22R,2.350000X5.100000*%
%ADD23RoundRect,0.150000X-0.825000X-0.150000X0.825000X-0.150000X0.825000X0.150000X-0.825000X0.150000X0*%
%ADD24RoundRect,0.140000X-0.140000X-0.170000X0.140000X-0.170000X0.140000X0.170000X-0.140000X0.170000X0*%
%ADD25RoundRect,0.250000X-0.315000X-0.315000X0.315000X-0.315000X0.315000X0.315000X-0.315000X0.315000X0*%
%ADD26RoundRect,0.225000X-0.225000X-0.225000X0.225000X-0.225000X0.225000X0.225000X-0.225000X0.225000X0*%
%ADD27RoundRect,0.062500X-0.337500X-0.062500X0.337500X-0.062500X0.337500X0.062500X-0.337500X0.062500X0*%
%ADD28RoundRect,0.062500X-0.062500X-0.337500X0.062500X-0.337500X0.062500X0.337500X-0.062500X0.337500X0*%
%ADD29R,0.800000X1.500000*%
%ADD30R,1.450000X2.000000*%
%ADD31R,1.700000X1.000000*%
%ADD32RoundRect,0.050000X-0.437500X-0.050000X0.437500X-0.050000X0.437500X0.050000X-0.437500X0.050000X0*%
%ADD33RoundRect,0.050000X-0.337500X-0.050000X0.337500X-0.050000X0.337500X0.050000X-0.337500X0.050000X0*%
%ADD34RoundRect,0.050000X-0.050000X-0.337500X0.050000X-0.337500X0.050000X0.337500X-0.050000X0.337500X0*%
%ADD35RoundRect,0.250000X-0.295000X-0.295000X0.295000X-0.295000X0.295000X0.295000X-0.295000X0.295000X0*%
%ADD36RoundRect,0.062500X-0.350000X-0.062500X0.350000X-0.062500X0.350000X0.062500X-0.350000X0.062500X0*%
%ADD37RoundRect,0.062500X-0.062500X-0.350000X0.062500X-0.350000X0.062500X0.350000X-0.062500X0.350000X0*%
%ADD38R,0.500000X2.800000*%
%ADD39R,0.600000X2.600000*%
G04 APERTURE END LIST*
D10*
%TO.C,D16*%
X32467500Y-128945000D03*
X34042500Y-128945000D03*
%TD*%
D11*
%TO.C,U42*%
X119507500Y-374215000D03*
X119507500Y-374865000D03*
X119507500Y-375515000D03*
X119507500Y-376165000D03*
X119507500Y-376815000D03*
X119507500Y-377465000D03*
X119507500Y-378115000D03*
X119507500Y-378765000D03*
X119507500Y-379415000D03*
X119507500Y-380065000D03*
X125232500Y-380065000D03*
X125232500Y-379415000D03*
X125232500Y-378765000D03*
X125232500Y-378115000D03*
X125232500Y-377465000D03*
X125232500Y-376815000D03*
X125232500Y-376165000D03*
X125232500Y-375515000D03*
X125232500Y-374865000D03*
X125232500Y-374215000D03*
%TD*%
D12*
%TO.C,U1*%
X226640000Y-45480000D03*
X226640000Y-46510000D03*
X226640000Y-47540000D03*
X227670000Y-45480000D03*
X227670000Y-46510000D03*
X227670000Y-47540000D03*
X228700000Y-45480000D03*
X228700000Y-46510000D03*
X228700000Y-47540000D03*
D13*
X225232500Y-44760000D03*
X225232500Y-45260000D03*
X225232500Y-45760000D03*
X225232500Y-46260000D03*
X225232500Y-46760000D03*
X225232500Y-47260000D03*
X225232500Y-47760000D03*
X225232500Y-48260000D03*
D14*
X225920000Y-48947500D03*
X226420000Y-48947500D03*
X226920000Y-48947500D03*
X227420000Y-48947500D03*
X227920000Y-48947500D03*
X228420000Y-48947500D03*
X228920000Y-48947500D03*
X229420000Y-48947500D03*
D13*
X230107500Y-48260000D03*
X230107500Y-47760000D03*
X230107500Y-47260000D03*
X230107500Y-46760000D03*
X230107500Y-46260000D03*
X230107500Y-45760000D03*
X230107500Y-45260000D03*
X230107500Y-44760000D03*
D14*
X229420000Y-44072500D03*
X228920000Y-44072500D03*
X228420000Y-44072500D03*
X227920000Y-44072500D03*
X227420000Y-44072500D03*
X226920000Y-44072500D03*
X226420000Y-44072500D03*
X225920000Y-44072500D03*
%TD*%
D15*
%TO.C,U43*%
X131695000Y-358390000D03*
X131695000Y-358890000D03*
X131695000Y-359390000D03*
X131695000Y-359890000D03*
X131695000Y-360390000D03*
X131695000Y-360890000D03*
X131695000Y-361390000D03*
X131695000Y-361890000D03*
X131695000Y-362390000D03*
X131695000Y-362890000D03*
X131695000Y-363390000D03*
X131695000Y-363890000D03*
X131695000Y-364390000D03*
X131695000Y-364890000D03*
X131695000Y-365390000D03*
X131695000Y-365890000D03*
D16*
X133620000Y-367815000D03*
X134120000Y-367815000D03*
X134620000Y-367815000D03*
X135120000Y-367815000D03*
X135620000Y-367815000D03*
X136120000Y-367815000D03*
X136620000Y-367815000D03*
X137120000Y-367815000D03*
X137620000Y-367815000D03*
X138120000Y-367815000D03*
X138620000Y-367815000D03*
X139120000Y-367815000D03*
X139620000Y-367815000D03*
X140120000Y-367815000D03*
X140620000Y-367815000D03*
X141120000Y-367815000D03*
D15*
X143045000Y-365890000D03*
X143045000Y-365390000D03*
X143045000Y-364890000D03*
X143045000Y-364390000D03*
X143045000Y-363890000D03*
X143045000Y-363390000D03*
X143045000Y-362890000D03*
X143045000Y-362390000D03*
X143045000Y-361890000D03*
X143045000Y-361390000D03*
X143045000Y-360890000D03*
X143045000Y-360390000D03*
X143045000Y-359890000D03*
X143045000Y-359390000D03*
X143045000Y-358890000D03*
X143045000Y-358390000D03*
D16*
X141120000Y-356465000D03*
X140620000Y-356465000D03*
X140120000Y-356465000D03*
X139620000Y-356465000D03*
X139120000Y-356465000D03*
X138620000Y-356465000D03*
X138120000Y-356465000D03*
X137620000Y-356465000D03*
X137120000Y-356465000D03*
X136620000Y-356465000D03*
X136120000Y-356465000D03*
X135620000Y-356465000D03*
X135120000Y-356465000D03*
X134620000Y-356465000D03*
X134120000Y-356465000D03*
X133620000Y-356465000D03*
%TD*%
D17*
%TO.C,Y10*%
X128620000Y-385140000D03*
X126120000Y-385140000D03*
%TD*%
%TO.C,Y9*%
X128620000Y-369140000D03*
X126120000Y-369140000D03*
%TD*%
D18*
%TO.C,U8*%
X251532500Y-35560000D03*
X251532500Y-36510000D03*
X251532500Y-37460000D03*
X253807500Y-37460000D03*
X253807500Y-35560000D03*
%TD*%
D19*
%TO.C,R4*%
X133315000Y-22445000D03*
X134335000Y-22445000D03*
%TD*%
D17*
%TO.C,Y2*%
X329650000Y-179740000D03*
X327150000Y-179740000D03*
%TD*%
D19*
%TO.C,R20*%
X46545000Y-147115000D03*
X47565000Y-147115000D03*
%TD*%
%TO.C,R3*%
X128315000Y-22445000D03*
X129335000Y-22445000D03*
%TD*%
%TO.C,R2*%
X123315000Y-22445000D03*
X124335000Y-22445000D03*
%TD*%
D20*
%TO.C,U26*%
X29330000Y-143170000D03*
X29330000Y-148720000D03*
X34180000Y-143170000D03*
X34180000Y-148720000D03*
D21*
X22605000Y-142545000D03*
X22605000Y-144245000D03*
X22605000Y-145945000D03*
X22605000Y-147645000D03*
X22605000Y-149345000D03*
%TD*%
D19*
%TO.C,R1*%
X118315000Y-22445000D03*
X119335000Y-22445000D03*
%TD*%
D17*
%TO.C,Y1*%
X329650000Y-169740000D03*
X327150000Y-169740000D03*
%TD*%
D22*
%TO.C,L6*%
X38180000Y-155945000D03*
X42330000Y-155945000D03*
%TD*%
D10*
%TO.C,D12*%
X32467500Y-122945000D03*
X34042500Y-122945000D03*
%TD*%
D23*
%TO.C,U13*%
X106350000Y-37540000D03*
X106350000Y-38810000D03*
X106350000Y-40080000D03*
X106350000Y-41350000D03*
X111300000Y-41350000D03*
X111300000Y-40080000D03*
X111300000Y-38810000D03*
X111300000Y-37540000D03*
%TD*%
D18*
%TO.C,U9*%
X204865000Y-62730000D03*
X204865000Y-63680000D03*
X204865000Y-64630000D03*
X207140000Y-64630000D03*
X207140000Y-62730000D03*
%TD*%
D22*
%TO.C,L5*%
X28180000Y-155945000D03*
X32330000Y-155945000D03*
%TD*%
D10*
%TO.C,D11*%
X26467500Y-122945000D03*
X28042500Y-122945000D03*
%TD*%
D24*
%TO.C,C37*%
X105890000Y-397140000D03*
X106850000Y-397140000D03*
%TD*%
%TO.C,C23*%
X44775000Y-190945000D03*
X45735000Y-190945000D03*
%TD*%
D20*
%TO.C,U28*%
X49330000Y-178170000D03*
X49330000Y-183720000D03*
X54180000Y-178170000D03*
X54180000Y-183720000D03*
D21*
X42605000Y-177545000D03*
X42605000Y-179245000D03*
X42605000Y-180945000D03*
X42605000Y-182645000D03*
X42605000Y-184345000D03*
%TD*%
D25*
%TO.C,U11*%
X306300000Y-152640000D03*
X306300000Y-154040000D03*
X306300000Y-155440000D03*
X306300000Y-156840000D03*
X307700000Y-152640000D03*
X307700000Y-154040000D03*
X307700000Y-155440000D03*
X307700000Y-156840000D03*
X309100000Y-152640000D03*
X309100000Y-154040000D03*
X309100000Y-155440000D03*
X309100000Y-156840000D03*
X310500000Y-152640000D03*
X310500000Y-154040000D03*
X310500000Y-155440000D03*
X310500000Y-156840000D03*
D13*
X304962500Y-151990000D03*
X304962500Y-152490000D03*
X304962500Y-152990000D03*
X304962500Y-153490000D03*
X304962500Y-153990000D03*
X304962500Y-154490000D03*
X304962500Y-154990000D03*
X304962500Y-155490000D03*
X304962500Y-155990000D03*
X304962500Y-156490000D03*
X304962500Y-156990000D03*
X304962500Y-157490000D03*
D14*
X305650000Y-158177500D03*
X306150000Y-158177500D03*
X306650000Y-158177500D03*
X307150000Y-158177500D03*
X307650000Y-158177500D03*
X308150000Y-158177500D03*
X308650000Y-158177500D03*
X309150000Y-158177500D03*
X309650000Y-158177500D03*
X310150000Y-158177500D03*
X310650000Y-158177500D03*
X311150000Y-158177500D03*
D13*
X311837500Y-157490000D03*
X311837500Y-156990000D03*
X311837500Y-156490000D03*
X311837500Y-155990000D03*
X311837500Y-155490000D03*
X311837500Y-154990000D03*
X311837500Y-154490000D03*
X311837500Y-153990000D03*
X311837500Y-153490000D03*
X311837500Y-152990000D03*
X311837500Y-152490000D03*
X311837500Y-151990000D03*
D14*
X311150000Y-151302500D03*
X310650000Y-151302500D03*
X310150000Y-151302500D03*
X309650000Y-151302500D03*
X309150000Y-151302500D03*
X308650000Y-151302500D03*
X308150000Y-151302500D03*
X307650000Y-151302500D03*
X307150000Y-151302500D03*
X306650000Y-151302500D03*
X306150000Y-151302500D03*
X305650000Y-151302500D03*
%TD*%
D19*
%TO.C,R17*%
X61545000Y-142115000D03*
X62565000Y-142115000D03*
%TD*%
D26*
%TO.C,U17*%
X122705000Y-50325000D03*
X122705000Y-51445000D03*
X122705000Y-52565000D03*
X123825000Y-50325000D03*
X123825000Y-51445000D03*
X123825000Y-52565000D03*
X124945000Y-50325000D03*
X124945000Y-51445000D03*
X124945000Y-52565000D03*
D27*
X121375000Y-49945000D03*
X121375000Y-50445000D03*
X121375000Y-50945000D03*
X121375000Y-51445000D03*
X121375000Y-51945000D03*
X121375000Y-52445000D03*
X121375000Y-52945000D03*
D28*
X122325000Y-53895000D03*
X122825000Y-53895000D03*
X123325000Y-53895000D03*
X123825000Y-53895000D03*
X124325000Y-53895000D03*
X124825000Y-53895000D03*
X125325000Y-53895000D03*
D27*
X126275000Y-52945000D03*
X126275000Y-52445000D03*
X126275000Y-51945000D03*
X126275000Y-51445000D03*
X126275000Y-50945000D03*
X126275000Y-50445000D03*
X126275000Y-49945000D03*
D28*
X125325000Y-48995000D03*
X124825000Y-48995000D03*
X124325000Y-48995000D03*
X123825000Y-48995000D03*
X123325000Y-48995000D03*
X122825000Y-48995000D03*
X122325000Y-48995000D03*
%TD*%
D19*
%TO.C,R16*%
X56545000Y-142115000D03*
X57565000Y-142115000D03*
%TD*%
D18*
%TO.C,U7*%
X231532500Y-65560000D03*
X231532500Y-66510000D03*
X231532500Y-67460000D03*
X233807500Y-67460000D03*
X233807500Y-65560000D03*
%TD*%
D10*
%TO.C,D3*%
X75037500Y-27445000D03*
X76612500Y-27445000D03*
%TD*%
D25*
%TO.C,U12*%
X276300000Y-164640000D03*
X276300000Y-166040000D03*
X276300000Y-167440000D03*
X276300000Y-168840000D03*
X277700000Y-164640000D03*
X277700000Y-166040000D03*
X277700000Y-167440000D03*
X277700000Y-168840000D03*
X279100000Y-164640000D03*
X279100000Y-166040000D03*
X279100000Y-167440000D03*
X279100000Y-168840000D03*
X280500000Y-164640000D03*
X280500000Y-166040000D03*
X280500000Y-167440000D03*
X280500000Y-168840000D03*
D13*
X274962500Y-163990000D03*
X274962500Y-164490000D03*
X274962500Y-164990000D03*
X274962500Y-165490000D03*
X274962500Y-165990000D03*
X274962500Y-166490000D03*
X274962500Y-166990000D03*
X274962500Y-167490000D03*
X274962500Y-167990000D03*
X274962500Y-168490000D03*
X274962500Y-168990000D03*
X274962500Y-169490000D03*
D14*
X275650000Y-170177500D03*
X276150000Y-170177500D03*
X276650000Y-170177500D03*
X277150000Y-170177500D03*
X277650000Y-170177500D03*
X278150000Y-170177500D03*
X278650000Y-170177500D03*
X279150000Y-170177500D03*
X279650000Y-170177500D03*
X280150000Y-170177500D03*
X280650000Y-170177500D03*
X281150000Y-170177500D03*
D13*
X281837500Y-169490000D03*
X281837500Y-168990000D03*
X281837500Y-168490000D03*
X281837500Y-167990000D03*
X281837500Y-167490000D03*
X281837500Y-166990000D03*
X281837500Y-166490000D03*
X281837500Y-165990000D03*
X281837500Y-165490000D03*
X281837500Y-164990000D03*
X281837500Y-164490000D03*
X281837500Y-163990000D03*
D14*
X281150000Y-163302500D03*
X280650000Y-163302500D03*
X280150000Y-163302500D03*
X279650000Y-163302500D03*
X279150000Y-163302500D03*
X278650000Y-163302500D03*
X278150000Y-163302500D03*
X277650000Y-163302500D03*
X277150000Y-163302500D03*
X276650000Y-163302500D03*
X276150000Y-163302500D03*
X275650000Y-163302500D03*
%TD*%
D19*
%TO.C,R18*%
X66545000Y-142115000D03*
X67565000Y-142115000D03*
%TD*%
D29*
%TO.C,J11*%
X110625000Y-45895000D03*
X111725000Y-45895000D03*
X112825000Y-45895000D03*
X113925000Y-45895000D03*
X115025000Y-45895000D03*
X116125000Y-45895000D03*
X117225000Y-45895000D03*
X118325000Y-45895000D03*
D30*
X106950000Y-43295000D03*
X106950000Y-51595000D03*
X120700000Y-43295000D03*
X120700000Y-51595000D03*
%TD*%
D31*
%TO.C,SW2*%
X74280000Y-36630000D03*
X80580000Y-36630000D03*
X74280000Y-40430000D03*
X80580000Y-40430000D03*
%TD*%
D10*
%TO.C,D4*%
X81037500Y-27445000D03*
X82612500Y-27445000D03*
%TD*%
D32*
%TO.C,U5*%
X232107500Y-36310000D03*
D33*
X232007500Y-36710000D03*
D34*
X232270000Y-37372500D03*
X232670000Y-37372500D03*
X233070000Y-37372500D03*
D33*
X233332500Y-36710000D03*
X233332500Y-36310000D03*
D34*
X233070000Y-35647500D03*
X232670000Y-35647500D03*
X232270000Y-35647500D03*
%TD*%
D25*
%TO.C,U2*%
X240570000Y-34410000D03*
X240570000Y-35810000D03*
X240570000Y-37210000D03*
X240570000Y-38610000D03*
X241970000Y-34410000D03*
X241970000Y-35810000D03*
X241970000Y-37210000D03*
X241970000Y-38610000D03*
X243370000Y-34410000D03*
X243370000Y-35810000D03*
X243370000Y-37210000D03*
X243370000Y-38610000D03*
X244770000Y-34410000D03*
X244770000Y-35810000D03*
X244770000Y-37210000D03*
X244770000Y-38610000D03*
D13*
X239232500Y-33760000D03*
X239232500Y-34260000D03*
X239232500Y-34760000D03*
X239232500Y-35260000D03*
X239232500Y-35760000D03*
X239232500Y-36260000D03*
X239232500Y-36760000D03*
X239232500Y-37260000D03*
X239232500Y-37760000D03*
X239232500Y-38260000D03*
X239232500Y-38760000D03*
X239232500Y-39260000D03*
D14*
X239920000Y-39947500D03*
X240420000Y-39947500D03*
X240920000Y-39947500D03*
X241420000Y-39947500D03*
X241920000Y-39947500D03*
X242420000Y-39947500D03*
X242920000Y-39947500D03*
X243420000Y-39947500D03*
X243920000Y-39947500D03*
X244420000Y-39947500D03*
X244920000Y-39947500D03*
X245420000Y-39947500D03*
D13*
X246107500Y-39260000D03*
X246107500Y-38760000D03*
X246107500Y-38260000D03*
X246107500Y-37760000D03*
X246107500Y-37260000D03*
X246107500Y-36760000D03*
X246107500Y-36260000D03*
X246107500Y-35760000D03*
X246107500Y-35260000D03*
X246107500Y-34760000D03*
X246107500Y-34260000D03*
X246107500Y-33760000D03*
D14*
X245420000Y-33072500D03*
X244920000Y-33072500D03*
X244420000Y-33072500D03*
X243920000Y-33072500D03*
X243420000Y-33072500D03*
X242920000Y-33072500D03*
X242420000Y-33072500D03*
X241920000Y-33072500D03*
X241420000Y-33072500D03*
X240920000Y-33072500D03*
X240420000Y-33072500D03*
X239920000Y-33072500D03*
%TD*%
D32*
%TO.C,U4*%
X242107500Y-66310000D03*
D33*
X242007500Y-66710000D03*
D34*
X242270000Y-67372500D03*
X242670000Y-67372500D03*
X243070000Y-67372500D03*
D33*
X243332500Y-66710000D03*
X243332500Y-66310000D03*
D34*
X243070000Y-65647500D03*
X242670000Y-65647500D03*
X242270000Y-65647500D03*
%TD*%
D18*
%TO.C,U10*%
X219865000Y-62730000D03*
X219865000Y-63680000D03*
X219865000Y-64630000D03*
X222140000Y-64630000D03*
X222140000Y-62730000D03*
%TD*%
D19*
%TO.C,R15*%
X51545000Y-142115000D03*
X52565000Y-142115000D03*
%TD*%
%TO.C,R21*%
X51545000Y-147115000D03*
X52565000Y-147115000D03*
%TD*%
D10*
%TO.C,D14*%
X20467500Y-128945000D03*
X22042500Y-128945000D03*
%TD*%
%TO.C,D13*%
X14467500Y-128945000D03*
X16042500Y-128945000D03*
%TD*%
D24*
%TO.C,C20*%
X19775000Y-165945000D03*
X20735000Y-165945000D03*
%TD*%
D23*
%TO.C,U14*%
X121350000Y-37540000D03*
X121350000Y-38810000D03*
X121350000Y-40080000D03*
X121350000Y-41350000D03*
X126300000Y-41350000D03*
X126300000Y-40080000D03*
X126300000Y-38810000D03*
X126300000Y-37540000D03*
%TD*%
D35*
%TO.C,U44*%
X136695000Y-376465000D03*
X136695000Y-377815000D03*
X138045000Y-376465000D03*
X138045000Y-377815000D03*
D36*
X135407500Y-375890000D03*
X135407500Y-376390000D03*
X135407500Y-376890000D03*
X135407500Y-377390000D03*
X135407500Y-377890000D03*
X135407500Y-378390000D03*
D37*
X136120000Y-379102500D03*
X136620000Y-379102500D03*
X137120000Y-379102500D03*
X137620000Y-379102500D03*
X138120000Y-379102500D03*
X138620000Y-379102500D03*
D36*
X139332500Y-378390000D03*
X139332500Y-377890000D03*
X139332500Y-377390000D03*
X139332500Y-376890000D03*
X139332500Y-376390000D03*
X139332500Y-375890000D03*
D37*
X138620000Y-375177500D03*
X138120000Y-375177500D03*
X137620000Y-375177500D03*
X137120000Y-375177500D03*
X136620000Y-375177500D03*
X136120000Y-375177500D03*
%TD*%
D20*
%TO.C,U27*%
X34330000Y-178170000D03*
X34330000Y-183720000D03*
X39180000Y-178170000D03*
X39180000Y-183720000D03*
D21*
X27605000Y-177545000D03*
X27605000Y-179245000D03*
X27605000Y-180945000D03*
X27605000Y-182645000D03*
X27605000Y-184345000D03*
%TD*%
D10*
%TO.C,D2*%
X69037500Y-27445000D03*
X70612500Y-27445000D03*
%TD*%
D31*
%TO.C,SW1*%
X64280000Y-36630000D03*
X70580000Y-36630000D03*
X64280000Y-40430000D03*
X70580000Y-40430000D03*
%TD*%
D35*
%TO.C,U45*%
X136695000Y-374465000D03*
X136695000Y-375815000D03*
X138045000Y-374465000D03*
X138045000Y-375815000D03*
D36*
X135407500Y-373890000D03*
X135407500Y-374390000D03*
X135407500Y-374890000D03*
X135407500Y-375390000D03*
X135407500Y-375890000D03*
X135407500Y-376390000D03*
D37*
X136120000Y-377102500D03*
X136620000Y-377102500D03*
X137120000Y-377102500D03*
X137620000Y-377102500D03*
X138120000Y-377102500D03*
X138620000Y-377102500D03*
D36*
X139332500Y-376390000D03*
X139332500Y-375890000D03*
X139332500Y-375390000D03*
X139332500Y-374890000D03*
X139332500Y-374390000D03*
X139332500Y-373890000D03*
D37*
X138620000Y-373177500D03*
X138120000Y-373177500D03*
X137620000Y-373177500D03*
X137120000Y-373177500D03*
X136620000Y-373177500D03*
X136120000Y-373177500D03*
%TD*%
D15*
%TO.C,U41*%
X116695000Y-358390000D03*
X116695000Y-358890000D03*
X116695000Y-359390000D03*
X116695000Y-359890000D03*
X116695000Y-360390000D03*
X116695000Y-360890000D03*
X116695000Y-361390000D03*
X116695000Y-361890000D03*
X116695000Y-362390000D03*
X116695000Y-362890000D03*
X116695000Y-363390000D03*
X116695000Y-363890000D03*
X116695000Y-364390000D03*
X116695000Y-364890000D03*
X116695000Y-365390000D03*
X116695000Y-365890000D03*
D16*
X118620000Y-367815000D03*
X119120000Y-367815000D03*
X119620000Y-367815000D03*
X120120000Y-367815000D03*
X120620000Y-367815000D03*
X121120000Y-367815000D03*
X121620000Y-367815000D03*
X122120000Y-367815000D03*
X122620000Y-367815000D03*
X123120000Y-367815000D03*
X123620000Y-367815000D03*
X124120000Y-367815000D03*
X124620000Y-367815000D03*
X125120000Y-367815000D03*
X125620000Y-367815000D03*
X126120000Y-367815000D03*
D15*
X128045000Y-365890000D03*
X128045000Y-365390000D03*
X128045000Y-364890000D03*
X128045000Y-364390000D03*
X128045000Y-363890000D03*
X128045000Y-363390000D03*
X128045000Y-362890000D03*
X128045000Y-362390000D03*
X128045000Y-361890000D03*
X128045000Y-361390000D03*
X128045000Y-360890000D03*
X128045000Y-360390000D03*
X128045000Y-359890000D03*
X128045000Y-359390000D03*
X128045000Y-358890000D03*
X128045000Y-358390000D03*
D16*
X126120000Y-356465000D03*
X125620000Y-356465000D03*
X125120000Y-356465000D03*
X124620000Y-356465000D03*
X124120000Y-356465000D03*
X123620000Y-356465000D03*
X123120000Y-356465000D03*
X122620000Y-356465000D03*
X122120000Y-356465000D03*
X121620000Y-356465000D03*
X121120000Y-356465000D03*
X120620000Y-356465000D03*
X120120000Y-356465000D03*
X119620000Y-356465000D03*
X119120000Y-356465000D03*
X118620000Y-356465000D03*
%TD*%
D19*
%TO.C,R24*%
X128620000Y-339290000D03*
X129640000Y-339290000D03*
%TD*%
%TO.C,R19*%
X41545000Y-147115000D03*
X42565000Y-147115000D03*
%TD*%
D23*
%TO.C,U15*%
X91350000Y-49540000D03*
X91350000Y-50810000D03*
X91350000Y-52080000D03*
X91350000Y-53350000D03*
X96300000Y-53350000D03*
X96300000Y-52080000D03*
X96300000Y-50810000D03*
X96300000Y-49540000D03*
%TD*%
D38*
%TO.C,J23*%
X168720000Y-389400000D03*
X168720000Y-388400000D03*
X168720000Y-387400000D03*
X168720000Y-386400000D03*
X168720000Y-385400000D03*
X168720000Y-384400000D03*
X168720000Y-383400000D03*
X168720000Y-382400000D03*
X168720000Y-381400000D03*
X168720000Y-380400000D03*
D39*
X168820000Y-391675000D03*
X168820000Y-378125000D03*
%TD*%
D32*
%TO.C,U6*%
X232107500Y-51310000D03*
D33*
X232007500Y-51710000D03*
D34*
X232270000Y-52372500D03*
X232670000Y-52372500D03*
X233070000Y-52372500D03*
D33*
X233332500Y-51710000D03*
X233332500Y-51310000D03*
D34*
X233070000Y-50647500D03*
X232670000Y-50647500D03*
X232270000Y-50647500D03*
%TD*%
D24*
%TO.C,C22*%
X79030000Y-162010000D03*
X79990000Y-162010000D03*
%TD*%
D10*
%TO.C,D15*%
X26467500Y-128945000D03*
X28042500Y-128945000D03*
%TD*%
D23*
%TO.C,U16*%
X106350000Y-49540000D03*
X106350000Y-50810000D03*
X106350000Y-52080000D03*
X106350000Y-53350000D03*
X111300000Y-53350000D03*
X111300000Y-52080000D03*
X111300000Y-50810000D03*
X111300000Y-49540000D03*
%TD*%
D24*
%TO.C,C36*%
X99890000Y-397140000D03*
X100850000Y-397140000D03*
%TD*%
D32*
%TO.C,U3*%
X242107500Y-51310000D03*
D33*
X242007500Y-51710000D03*
D34*
X242270000Y-52372500D03*
X242670000Y-52372500D03*
X243070000Y-52372500D03*
D33*
X243332500Y-51710000D03*
X243332500Y-51310000D03*
D34*
X243070000Y-50647500D03*
X242670000Y-50647500D03*
X242270000Y-50647500D03*
%TD*%
D10*
%TO.C,D1*%
X63037500Y-27445000D03*
X64612500Y-27445000D03*
%TD*%
D38*
%TO.C,J24*%
X148800000Y-390815000D03*
X148800000Y-389815000D03*
X148800000Y-388815000D03*
X148800000Y-387815000D03*
X148800000Y-386815000D03*
X148800000Y-385815000D03*
X148800000Y-384815000D03*
X148800000Y-383815000D03*
X148800000Y-382815000D03*
X148800000Y-381815000D03*
D39*
X148900000Y-393090000D03*
X148900000Y-379540000D03*
%TD*%
D24*
%TO.C,C21*%
X29775000Y-165945000D03*
X30735000Y-165945000D03*
%TD*%
D22*
%TO.C,L4*%
X18180000Y-155945000D03*
X22330000Y-155945000D03*
%TD*%
M02*
