%TF.GenerationSoftware,KiCad,Pcbnew,9.0.6*%
%TF.CreationDate,2025-12-01T13:51:19+09:00*%
%TF.ProjectId,fcBoard,6663426f-6172-4642-9e6b-696361645f70,0.2*%
%TF.SameCoordinates,Original*%
%TF.FileFunction,Copper,L1,Top*%
%TF.FilePolarity,Positive*%
%FSLAX46Y46*%
G04 Gerber Fmt 4.6, Leading zero omitted, Abs format (unit mm)*
G04 Created by KiCad (PCBNEW 9.0.6) date 2025-12-01 13:51:19*
%MOMM*%
%LPD*%
G01*
G04 APERTURE LIST*
G04 Aperture macros list*
%AMRoundRect*
0 Rectangle with rounded corners*
0 $1 Rounding radius*
0 $2 $3 $4 $5 $6 $7 $8 $9 X,Y pos of 4 corners*
0 Add a 4 corners polygon primitive as box body*
4,1,4,$2,$3,$4,$5,$6,$7,$8,$9,$2,$3,0*
0 Add four circle primitives for the rounded corners*
1,1,$1+$1,$2,$3*
1,1,$1+$1,$4,$5*
1,1,$1+$1,$6,$7*
1,1,$1+$1,$8,$9*
0 Add four rect primitives between the rounded corners*
20,1,$1+$1,$2,$3,$4,$5,0*
20,1,$1+$1,$4,$5,$6,$7,0*
20,1,$1+$1,$6,$7,$8,$9,0*
20,1,$1+$1,$8,$9,$2,$3,0*%
G04 Aperture macros list end*
%TA.AperFunction,SMDPad,CuDef*%
%ADD10RoundRect,0.218750X-0.218750X-0.256250X0.218750X-0.256250X0.218750X0.256250X-0.218750X0.256250X0*%
%TD*%
%TA.AperFunction,SMDPad,CuDef*%
%ADD11RoundRect,0.100000X-0.637500X-0.100000X0.637500X-0.100000X0.637500X0.100000X-0.637500X0.100000X0*%
%TD*%
%TA.AperFunction,ComponentPad*%
%ADD12RoundRect,0.250500X-0.499500X-0.499500X0.499500X-0.499500X0.499500X0.499500X-0.499500X0.499500X0*%
%TD*%
%TA.AperFunction,ComponentPad*%
%ADD13C,1.500000*%
%TD*%
%TA.AperFunction,ComponentPad*%
%ADD14C,2.500000*%
%TD*%
%TA.AperFunction,ComponentPad*%
%ADD15R,1.700000X1.700000*%
%TD*%
%TA.AperFunction,ComponentPad*%
%ADD16C,1.700000*%
%TD*%
%TA.AperFunction,SMDPad,CuDef*%
%ADD17RoundRect,0.062500X-0.375000X-0.062500X0.375000X-0.062500X0.375000X0.062500X-0.375000X0.062500X0*%
%TD*%
%TA.AperFunction,SMDPad,CuDef*%
%ADD18RoundRect,0.062500X-0.062500X-0.375000X0.062500X-0.375000X0.062500X0.375000X-0.062500X0.375000X0*%
%TD*%
%TA.AperFunction,HeatsinkPad*%
%ADD19R,3.100000X3.100000*%
%TD*%
%TA.AperFunction,SMDPad,CuDef*%
%ADD20RoundRect,0.075000X-0.700000X-0.075000X0.700000X-0.075000X0.700000X0.075000X-0.700000X0.075000X0*%
%TD*%
%TA.AperFunction,SMDPad,CuDef*%
%ADD21RoundRect,0.075000X-0.075000X-0.700000X0.075000X-0.700000X0.075000X0.700000X-0.075000X0.700000X0*%
%TD*%
%TA.AperFunction,SMDPad,CuDef*%
%ADD22R,1.000000X1.800000*%
%TD*%
%TA.AperFunction,SMDPad,CuDef*%
%ADD23RoundRect,0.150000X-0.512500X-0.150000X0.512500X-0.150000X0.512500X0.150000X-0.512500X0.150000X0*%
%TD*%
%TA.AperFunction,SMDPad,CuDef*%
%ADD24RoundRect,0.135000X-0.135000X-0.185000X0.135000X-0.185000X0.135000X0.185000X-0.135000X0.185000X0*%
%TD*%
%TA.AperFunction,ComponentPad*%
%ADD25R,3.500000X3.500000*%
%TD*%
%TA.AperFunction,ComponentPad*%
%ADD26RoundRect,0.750000X0.750000X1.000000X-0.750000X1.000000X-0.750000X-1.000000X0.750000X-1.000000X0*%
%TD*%
%TA.AperFunction,ComponentPad*%
%ADD27RoundRect,0.875000X0.875000X0.875000X-0.875000X0.875000X-0.875000X-0.875000X0.875000X-0.875000X0*%
%TD*%
%TA.AperFunction,SMDPad,CuDef*%
%ADD28RoundRect,0.250000X-2.050000X-0.300000X2.050000X-0.300000X2.050000X0.300000X-2.050000X0.300000X0*%
%TD*%
%TA.AperFunction,SMDPad,CuDef*%
%ADD29RoundRect,0.250002X-4.449998X-5.149998X4.449998X-5.149998X4.449998X5.149998X-4.449998X5.149998X0*%
%TD*%
%TA.AperFunction,SMDPad,CuDef*%
%ADD30R,2.350000X5.100000*%
%TD*%
%TA.AperFunction,SMDPad,CuDef*%
%ADD31RoundRect,0.150000X-0.825000X-0.150000X0.825000X-0.150000X0.825000X0.150000X-0.825000X0.150000X0*%
%TD*%
%TA.AperFunction,ComponentPad*%
%ADD32R,1.600000X1.600000*%
%TD*%
%TA.AperFunction,ComponentPad*%
%ADD33C,1.600000*%
%TD*%
%TA.AperFunction,ComponentPad*%
%ADD34C,3.000000*%
%TD*%
%TA.AperFunction,SMDPad,CuDef*%
%ADD35RoundRect,0.140000X-0.140000X-0.170000X0.140000X-0.170000X0.140000X0.170000X-0.140000X0.170000X0*%
%TD*%
%TA.AperFunction,ComponentPad*%
%ADD36C,6.000000*%
%TD*%
%TA.AperFunction,HeatsinkPad*%
%ADD37R,5.600000X5.600000*%
%TD*%
%TA.AperFunction,SMDPad,CuDef*%
%ADD38RoundRect,0.062500X-0.337500X-0.062500X0.337500X-0.062500X0.337500X0.062500X-0.337500X0.062500X0*%
%TD*%
%TA.AperFunction,SMDPad,CuDef*%
%ADD39RoundRect,0.062500X-0.062500X-0.337500X0.062500X-0.337500X0.062500X0.337500X-0.062500X0.337500X0*%
%TD*%
%TA.AperFunction,HeatsinkPad*%
%ADD40R,3.350000X3.350000*%
%TD*%
%TA.AperFunction,SMDPad,CuDef*%
%ADD41R,0.800000X1.500000*%
%TD*%
%TA.AperFunction,SMDPad,CuDef*%
%ADD42R,1.450000X2.000000*%
%TD*%
%TA.AperFunction,SMDPad,CuDef*%
%ADD43R,1.700000X1.000000*%
%TD*%
%TA.AperFunction,SMDPad,CuDef*%
%ADD44RoundRect,0.050000X-0.437500X-0.050000X0.437500X-0.050000X0.437500X0.050000X-0.437500X0.050000X0*%
%TD*%
%TA.AperFunction,SMDPad,CuDef*%
%ADD45RoundRect,0.050000X-0.337500X-0.050000X0.337500X-0.050000X0.337500X0.050000X-0.337500X0.050000X0*%
%TD*%
%TA.AperFunction,SMDPad,CuDef*%
%ADD46RoundRect,0.050000X-0.050000X-0.337500X0.050000X-0.337500X0.050000X0.337500X-0.050000X0.337500X0*%
%TD*%
%TA.AperFunction,SMDPad,CuDef*%
%ADD47RoundRect,0.062500X-0.350000X-0.062500X0.350000X-0.062500X0.350000X0.062500X-0.350000X0.062500X0*%
%TD*%
%TA.AperFunction,SMDPad,CuDef*%
%ADD48RoundRect,0.062500X-0.062500X-0.350000X0.062500X-0.350000X0.062500X0.350000X-0.062500X0.350000X0*%
%TD*%
%TA.AperFunction,HeatsinkPad*%
%ADD49R,2.700000X2.700000*%
%TD*%
%TA.AperFunction,SMDPad,CuDef*%
%ADD50R,0.500000X2.800000*%
%TD*%
%TA.AperFunction,SMDPad,CuDef*%
%ADD51R,0.600000X2.600000*%
%TD*%
G04 APERTURE END LIST*
D10*
%TO.P,D16,1,K*%
%TO.N,+1V8*%
X32467500Y-128945000D03*
%TO.P,D16,2,A*%
%TO.N,Net-(D16-A)*%
X34042500Y-128945000D03*
%TD*%
D11*
%TO.P,U42,1,VCCA*%
%TO.N,+1V8*%
X119507500Y-374215000D03*
%TO.P,U42,2,A1*%
%TO.N,/HDMI In/Out/DE_RX*%
X119507500Y-374865000D03*
%TO.P,U42,3,A2*%
%TO.N,/HDMI In/Out/B_RX[7:0]*%
X119507500Y-375515000D03*
%TO.P,U42,4,A3*%
X119507500Y-376165000D03*
%TO.P,U42,5,A4*%
%TO.N,unconnected-(U42-A4-Pad5)*%
X119507500Y-376815000D03*
%TO.P,U42,6,A5*%
%TO.N,unconnected-(U42-A5-Pad6)*%
X119507500Y-377465000D03*
%TO.P,U42,7,A6*%
%TO.N,unconnected-(U42-A6-Pad7)*%
X119507500Y-378115000D03*
%TO.P,U42,8,VCCB*%
%TO.N,+3V3*%
X119507500Y-378765000D03*
%TO.P,U42,9,B1*%
%TO.N,unconnected-(U42-B1-Pad9)*%
X119507500Y-379415000D03*
%TO.P,U42,10,B2*%
%TO.N,unconnected-(U42-B2-Pad10)*%
X119507500Y-380065000D03*
%TO.P,U42,11,B3*%
%TO.N,unconnected-(U42-B3-Pad11)*%
X125232500Y-380065000D03*
%TO.P,U42,12,B4*%
%TO.N,unconnected-(U42-B4-Pad12)*%
X125232500Y-379415000D03*
%TO.P,U42,13,B5*%
%TO.N,unconnected-(U42-B5-Pad13)*%
X125232500Y-378765000D03*
%TO.P,U42,14,B6*%
%TO.N,unconnected-(U42-B6-Pad14)*%
X125232500Y-378115000D03*
%TO.P,U42,15,GND*%
%TO.N,GND*%
X125232500Y-377465000D03*
%TO.P,U42,16,OE*%
%TO.N,unconnected-(U42-OE-Pad16)*%
X125232500Y-376815000D03*
%TO.P,U42,17*%
%TO.N,N/C*%
X125232500Y-376165000D03*
%TO.P,U42,18*%
X125232500Y-375515000D03*
%TO.P,U42,19*%
X125232500Y-374865000D03*
%TO.P,U42,20*%
X125232500Y-374215000D03*
%TD*%
D12*
%TO.P,J6,1,TXP_A*%
%TO.N,unconnected-(J6-TXP_A-Pad1)*%
X296100000Y-181490000D03*
D13*
%TO.P,J6,2,TXN_A*%
%TO.N,unconnected-(J6-TXN_A-Pad2)*%
X293560000Y-180230000D03*
%TO.P,J6,3,TXP_B*%
%TO.N,unconnected-(J6-TXP_B-Pad3)*%
X296100000Y-178950000D03*
%TO.P,J6,4,TXN_B*%
%TO.N,unconnected-(J6-TXN_B-Pad4)*%
X293560000Y-177690000D03*
%TO.P,J6,5,TXP_C*%
%TO.N,unconnected-(J6-TXP_C-Pad5)*%
X296100000Y-176410000D03*
%TO.P,J6,6,TXN_C*%
%TO.N,unconnected-(J6-TXN_C-Pad6)*%
X293560000Y-175150000D03*
%TO.P,J6,7,TXP_D*%
%TO.N,unconnected-(J6-TXP_D-Pad7)*%
X296100000Y-173870000D03*
%TO.P,J6,8,TXN_D*%
%TO.N,unconnected-(J6-TXN_D-Pad8)*%
X293560000Y-172610000D03*
%TO.P,J6,9,LED_G+*%
%TO.N,unconnected-(J6-LED_G+-Pad9)*%
X307360000Y-183675000D03*
%TO.P,J6,10,LED_G-*%
%TO.N,unconnected-(J6-LED_G--Pad10)*%
X307360000Y-181135000D03*
%TO.P,J6,11,LED_Y+*%
%TO.N,unconnected-(J6-LED_Y+-Pad11)*%
X307360000Y-172965000D03*
%TO.P,J6,12,LED_Y-*%
%TO.N,unconnected-(J6-LED_Y--Pad12)*%
X307360000Y-170425000D03*
D14*
%TO.P,J6,SH*%
%TO.N,N/C*%
X299410000Y-184795000D03*
X299410000Y-169305000D03*
%TD*%
D15*
%TO.P,J7,1,1*%
%TO.N,unconnected-(J7-Pad1)*%
X103825000Y-37445000D03*
D16*
%TO.P,J7,2,2*%
%TO.N,unconnected-(J7-Pad2)*%
X103825000Y-39985000D03*
%TD*%
D17*
%TO.P,U1,1,DATA0*%
%TO.N,unconnected-(U1-DATA0-Pad1)*%
X225232500Y-44760000D03*
%TO.P,U1,2,DATA1*%
%TO.N,unconnected-(U1-DATA1-Pad2)*%
X225232500Y-45260000D03*
%TO.P,U1,3,DATA2*%
%TO.N,unconnected-(U1-DATA2-Pad3)*%
X225232500Y-45760000D03*
%TO.P,U1,4,DATA3*%
%TO.N,unconnected-(U1-DATA3-Pad4)*%
X225232500Y-46260000D03*
%TO.P,U1,5,DATA4*%
%TO.N,unconnected-(U1-DATA4-Pad5)*%
X225232500Y-46760000D03*
%TO.P,U1,6,DATA5*%
%TO.N,unconnected-(U1-DATA5-Pad6)*%
X225232500Y-47260000D03*
%TO.P,U1,7,DATA6*%
%TO.N,unconnected-(U1-DATA6-Pad7)*%
X225232500Y-47760000D03*
%TO.P,U1,8,DATA7*%
%TO.N,unconnected-(U1-DATA7-Pad8)*%
X225232500Y-48260000D03*
D18*
%TO.P,U1,9,CLK*%
%TO.N,unconnected-(U1-CLK-Pad9)*%
X225920000Y-48947500D03*
%TO.P,U1,10,DIR*%
%TO.N,unconnected-(U1-DIR-Pad10)*%
X226420000Y-48947500D03*
%TO.P,U1,11,NXT*%
%TO.N,unconnected-(U1-NXT-Pad11)*%
X226920000Y-48947500D03*
%TO.P,U1,12,STP*%
%TO.N,unconnected-(U1-STP-Pad12)*%
X227420000Y-48947500D03*
%TO.P,U1,13,DP*%
%TO.N,unconnected-(U1-DP-Pad13)*%
X227920000Y-48947500D03*
%TO.P,U1,14,DN*%
%TO.N,unconnected-(U1-DN-Pad14)*%
X228420000Y-48947500D03*
%TO.P,U1,15,GND*%
%TO.N,GND*%
X228920000Y-48947500D03*
%TO.P,U1,16,VDD33*%
%TO.N,unconnected-(U1-VDD33-Pad16)*%
X229420000Y-48947500D03*
D17*
%TO.P,U1,17,VDD18*%
%TO.N,unconnected-(U1-VDD18-Pad17)*%
X230107500Y-48260000D03*
%TO.P,U1,18,REFCLK*%
%TO.N,unconnected-(U1-REFCLK-Pad18)*%
X230107500Y-47760000D03*
%TO.P,U1,19*%
%TO.N,N/C*%
X230107500Y-47260000D03*
%TO.P,U1,20*%
X230107500Y-46760000D03*
%TO.P,U1,21*%
X230107500Y-46260000D03*
%TO.P,U1,22*%
X230107500Y-45760000D03*
%TO.P,U1,23*%
X230107500Y-45260000D03*
%TO.P,U1,24*%
X230107500Y-44760000D03*
D18*
%TO.P,U1,25*%
X229420000Y-44072500D03*
%TO.P,U1,26*%
X228920000Y-44072500D03*
%TO.P,U1,27*%
X228420000Y-44072500D03*
%TO.P,U1,28*%
X227920000Y-44072500D03*
%TO.P,U1,29*%
X227420000Y-44072500D03*
%TO.P,U1,30*%
X226920000Y-44072500D03*
%TO.P,U1,31*%
X226420000Y-44072500D03*
%TO.P,U1,32*%
X225920000Y-44072500D03*
D19*
%TO.P,U1,33*%
X227670000Y-46510000D03*
%TD*%
D20*
%TO.P,U43,1,VDD33*%
%TO.N,unconnected-(U43-VDD33-Pad1)*%
X131695000Y-358390000D03*
%TO.P,U43,2,VDD18*%
%TO.N,unconnected-(U43-VDD18-Pad2)*%
X131695000Y-358890000D03*
%TO.P,U43,3,GND*%
%TO.N,GND*%
X131695000Y-359390000D03*
%TO.P,U43,4,TMDS_D0+*%
%TO.N,Net-(U43-TMDS_D0+)*%
X131695000Y-359890000D03*
%TO.P,U43,5,TMDS_D0-*%
X131695000Y-360390000D03*
%TO.P,U43,6,TMDS_D1+*%
X131695000Y-360890000D03*
%TO.P,U43,7,TMDS_D1-*%
%TO.N,Net-(U43-TMDS_D1-)*%
X131695000Y-361390000D03*
%TO.P,U43,8,TMDS_D2+*%
%TO.N,Net-(U43-TMDS_D2+)*%
X131695000Y-361890000D03*
%TO.P,U43,9,TMDS_D2-*%
%TO.N,Net-(U43-TMDS_D2-)*%
X131695000Y-362390000D03*
%TO.P,U43,10,TMDS_CLK+*%
%TO.N,Net-(U43-TMDS_CLK+)*%
X131695000Y-362890000D03*
%TO.P,U43,11,TMDS_CLK-*%
%TO.N,Net-(U43-TMDS_CLK-)*%
X131695000Y-363390000D03*
%TO.P,U43,12,CEC*%
%TO.N,Net-(U43-CEC)*%
X131695000Y-363890000D03*
%TO.P,U43,13,HPD*%
%TO.N,unconnected-(U43-HPD-Pad13)*%
X131695000Y-364390000D03*
%TO.P,U43,14,SCL*%
%TO.N,unconnected-(U43-SCL-Pad14)*%
X131695000Y-364890000D03*
%TO.P,U43,15,SDA*%
%TO.N,unconnected-(U43-SDA-Pad15)*%
X131695000Y-365390000D03*
%TO.P,U43,16,PCLK*%
%TO.N,+1V8*%
X131695000Y-365890000D03*
D21*
%TO.P,U43,17,DE*%
%TO.N,/HDMI In/Out/DE_RX*%
X133620000Y-367815000D03*
%TO.P,U43,18,HSYNC*%
%TO.N,/HDMI In/Out/B_RX[7:0]*%
X134120000Y-367815000D03*
%TO.P,U43,19,VSYNC*%
X134620000Y-367815000D03*
%TO.P,U43,20,R[7:0]*%
X135120000Y-367815000D03*
%TO.P,U43,21,G[7:0]*%
X135620000Y-367815000D03*
%TO.P,U43,22,B[7:0]*%
X136120000Y-367815000D03*
%TO.P,U43,23,XTALIN*%
X136620000Y-367815000D03*
%TO.P,U43,24,XTALOUT*%
%TO.N,unconnected-(U43-XTALOUT-Pad24)*%
X137120000Y-367815000D03*
%TO.P,U43,25*%
%TO.N,N/C*%
X137620000Y-367815000D03*
%TO.P,U43,26*%
X138120000Y-367815000D03*
%TO.P,U43,27*%
X138620000Y-367815000D03*
%TO.P,U43,28*%
X139120000Y-367815000D03*
%TO.P,U43,29*%
X139620000Y-367815000D03*
%TO.P,U43,30*%
X140120000Y-367815000D03*
%TO.P,U43,31*%
X140620000Y-367815000D03*
%TO.P,U43,32*%
X141120000Y-367815000D03*
D20*
%TO.P,U43,33*%
X143045000Y-365890000D03*
%TO.P,U43,34*%
X143045000Y-365390000D03*
%TO.P,U43,35*%
X143045000Y-364890000D03*
%TO.P,U43,36*%
X143045000Y-364390000D03*
%TO.P,U43,37*%
X143045000Y-363890000D03*
%TO.P,U43,38*%
X143045000Y-363390000D03*
%TO.P,U43,39*%
X143045000Y-362890000D03*
%TO.P,U43,40*%
X143045000Y-362390000D03*
%TO.P,U43,41*%
X143045000Y-361890000D03*
%TO.P,U43,42*%
X143045000Y-361390000D03*
%TO.P,U43,43*%
X143045000Y-360890000D03*
%TO.P,U43,44*%
X143045000Y-360390000D03*
%TO.P,U43,45*%
X143045000Y-359890000D03*
%TO.P,U43,46*%
X143045000Y-359390000D03*
%TO.P,U43,47*%
X143045000Y-358890000D03*
%TO.P,U43,48*%
X143045000Y-358390000D03*
D21*
%TO.P,U43,49*%
X141120000Y-356465000D03*
%TO.P,U43,50*%
X140620000Y-356465000D03*
%TO.P,U43,51*%
X140120000Y-356465000D03*
%TO.P,U43,52*%
X139620000Y-356465000D03*
%TO.P,U43,53*%
X139120000Y-356465000D03*
%TO.P,U43,54*%
X138620000Y-356465000D03*
%TO.P,U43,55*%
X138120000Y-356465000D03*
%TO.P,U43,56*%
X137620000Y-356465000D03*
%TO.P,U43,57*%
X137120000Y-356465000D03*
%TO.P,U43,58*%
X136620000Y-356465000D03*
%TO.P,U43,59*%
X136120000Y-356465000D03*
%TO.P,U43,60*%
X135620000Y-356465000D03*
%TO.P,U43,61*%
X135120000Y-356465000D03*
%TO.P,U43,62*%
X134620000Y-356465000D03*
%TO.P,U43,63*%
X134120000Y-356465000D03*
%TO.P,U43,64*%
X133620000Y-356465000D03*
%TD*%
D22*
%TO.P,Y10,1,1*%
%TO.N,/HDMI In/Out/B_RX[7:0]*%
X128620000Y-385140000D03*
%TO.P,Y10,2,2*%
%TO.N,/HDMI In/Out/DE_RX*%
X126120000Y-385140000D03*
%TD*%
%TO.P,Y9,1,1*%
%TO.N,Net-(U41-CEC)*%
X128620000Y-369140000D03*
%TO.P,Y9,2,2*%
%TO.N,unconnected-(Y9-Pad2)*%
X126120000Y-369140000D03*
%TD*%
D23*
%TO.P,U8,1,VIN*%
%TO.N,+5V*%
X251532500Y-35560000D03*
%TO.P,U8,2,VOUT*%
%TO.N,unconnected-(U8-VOUT-Pad2)*%
X251532500Y-36510000D03*
%TO.P,U8,3,EN*%
%TO.N,unconnected-(U8-EN-Pad3)*%
X251532500Y-37460000D03*
%TO.P,U8,4,FAULT*%
%TO.N,unconnected-(U8-FAULT-Pad4)*%
X253807500Y-37460000D03*
%TO.P,U8,5,GND*%
%TO.N,GND*%
X253807500Y-35560000D03*
%TD*%
D24*
%TO.P,R4,1,1*%
%TO.N,unconnected-(R4-Pad1)*%
X133315000Y-22445000D03*
%TO.P,R4,2,2*%
%TO.N,unconnected-(R4-Pad2)*%
X134335000Y-22445000D03*
%TD*%
D22*
%TO.P,Y2,1,1*%
%TO.N,unconnected-(Y2-Pad1)*%
X329650000Y-179740000D03*
%TO.P,Y2,2,2*%
%TO.N,unconnected-(Y2-Pad2)*%
X327150000Y-179740000D03*
%TD*%
D24*
%TO.P,R20,1*%
%TO.N,Net-(U27-FB)*%
X46545000Y-147115000D03*
%TO.P,R20,2*%
%TO.N,GND*%
X47565000Y-147115000D03*
%TD*%
%TO.P,R3,1,1*%
%TO.N,unconnected-(R3-Pad1)*%
X128315000Y-22445000D03*
%TO.P,R3,2,2*%
%TO.N,unconnected-(R3-Pad2)*%
X129335000Y-22445000D03*
%TD*%
%TO.P,R2,1,1*%
%TO.N,unconnected-(R2-Pad1)*%
X123315000Y-22445000D03*
%TO.P,R2,2,2*%
%TO.N,unconnected-(R2-Pad2)*%
X124335000Y-22445000D03*
%TD*%
D25*
%TO.P,J16,1*%
%TO.N,Net-(U26-VIN)*%
X77770000Y-171150000D03*
D26*
%TO.P,J16,2*%
%TO.N,GND*%
X71770000Y-171150000D03*
D27*
%TO.P,J16,3*%
%TO.N,N/C*%
X74770000Y-175850000D03*
%TD*%
D28*
%TO.P,U26,1,VIN*%
%TO.N,Net-(U26-VIN)*%
X22605000Y-142545000D03*
%TO.P,U26,2,OUT*%
%TO.N,Net-(D13-A)*%
X22605000Y-144245000D03*
%TO.P,U26,3,GND*%
%TO.N,GND*%
X22605000Y-145945000D03*
D29*
X31755000Y-145945000D03*
D28*
%TO.P,U26,4,FB*%
%TO.N,Net-(U26-FB)*%
X22605000Y-147645000D03*
%TO.P,U26,5,~{ON}/OFF*%
%TO.N,unconnected-(U26-~{ON}{slash}OFF-Pad5)*%
X22605000Y-149345000D03*
%TD*%
D24*
%TO.P,R1,1,1*%
%TO.N,unconnected-(R1-Pad1)*%
X118315000Y-22445000D03*
%TO.P,R1,2,2*%
%TO.N,unconnected-(R1-Pad2)*%
X119335000Y-22445000D03*
%TD*%
D22*
%TO.P,Y1,1,1*%
%TO.N,unconnected-(Y1-Pad1)*%
X329650000Y-169740000D03*
%TO.P,Y1,2,2*%
%TO.N,unconnected-(Y1-Pad2)*%
X327150000Y-169740000D03*
%TD*%
D15*
%TO.P,J10,1,1*%
%TO.N,unconnected-(J10-Pad1)*%
X113825000Y-37445000D03*
D16*
%TO.P,J10,2,2*%
%TO.N,unconnected-(J10-Pad2)*%
X113825000Y-39985000D03*
%TD*%
D15*
%TO.P,J12,1,1*%
%TO.N,unconnected-(J12-Pad1)*%
X113825000Y-57445000D03*
D16*
%TO.P,J12,2,2*%
%TO.N,unconnected-(J12-Pad2)*%
X113825000Y-59985000D03*
%TD*%
D30*
%TO.P,L6,1*%
%TO.N,Net-(D14-A)*%
X38180000Y-155945000D03*
%TO.P,L6,2*%
%TO.N,+5V*%
X42330000Y-155945000D03*
%TD*%
D10*
%TO.P,D12,1,K*%
%TO.N,+5V*%
X32467500Y-122945000D03*
%TO.P,D12,2,A*%
%TO.N,Net-(D12-A)*%
X34042500Y-122945000D03*
%TD*%
D31*
%TO.P,U13,1,TXD*%
%TO.N,unconnected-(U13-TXD-Pad1)*%
X106350000Y-37540000D03*
%TO.P,U13,2,GND*%
%TO.N,unconnected-(U13-GND-Pad2)*%
X106350000Y-38810000D03*
%TO.P,U13,3,VCC*%
%TO.N,unconnected-(U13-VCC-Pad3)*%
X106350000Y-40080000D03*
%TO.P,U13,4,RXD*%
%TO.N,unconnected-(U13-RXD-Pad4)*%
X106350000Y-41350000D03*
%TO.P,U13,5,NC*%
%TO.N,unconnected-(U13-NC-Pad5)*%
X111300000Y-41350000D03*
%TO.P,U13,6,CANL*%
%TO.N,unconnected-(U13-CANL-Pad6)*%
X111300000Y-40080000D03*
%TO.P,U13,7,CANH*%
%TO.N,unconnected-(U13-CANH-Pad7)*%
X111300000Y-38810000D03*
%TO.P,U13,8,RS*%
%TO.N,unconnected-(U13-RS-Pad8)*%
X111300000Y-37540000D03*
%TD*%
D23*
%TO.P,U9,1,VIN*%
%TO.N,+5V*%
X204865000Y-62730000D03*
%TO.P,U9,2,VOUT*%
%TO.N,unconnected-(U9-VOUT-Pad2)*%
X204865000Y-63680000D03*
%TO.P,U9,3,EN*%
%TO.N,unconnected-(U9-EN-Pad3)*%
X204865000Y-64630000D03*
%TO.P,U9,4,FAULT*%
%TO.N,unconnected-(U9-FAULT-Pad4)*%
X207140000Y-64630000D03*
%TO.P,U9,5,GND*%
%TO.N,GND*%
X207140000Y-62730000D03*
%TD*%
D30*
%TO.P,L5,1*%
%TO.N,Net-(D13-A)*%
X28180000Y-155945000D03*
%TO.P,L5,2*%
%TO.N,+3V3*%
X32330000Y-155945000D03*
%TD*%
D10*
%TO.P,D11,1,K*%
%TO.N,GND*%
X26467500Y-122945000D03*
%TO.P,D11,2,A*%
%TO.N,Net-(D11-A)*%
X28042500Y-122945000D03*
%TD*%
D32*
%TO.P,J4,1,VBUS*%
%TO.N,unconnected-(J4-VBUS-Pad1)*%
X269670000Y-67510000D03*
D33*
%TO.P,J4,2,D-*%
%TO.N,unconnected-(J4-D--Pad2)*%
X269670000Y-65010000D03*
%TO.P,J4,3,D+*%
%TO.N,unconnected-(J4-D+-Pad3)*%
X269670000Y-63010000D03*
%TO.P,J4,4,GND*%
%TO.N,GND*%
X269670000Y-60510000D03*
D34*
%TO.P,J4,5,SHIELD*%
%TO.N,unconnected-(J4-SHIELD-Pad5)*%
X272380000Y-70580000D03*
X272380000Y-57440000D03*
%TD*%
D35*
%TO.P,C37,1*%
%TO.N,unconnected-(C37-Pad1)*%
X105890000Y-397140000D03*
%TO.P,C37,2*%
%TO.N,GND*%
X106850000Y-397140000D03*
%TD*%
%TO.P,C23,1*%
%TO.N,+1V8*%
X44775000Y-190945000D03*
%TO.P,C23,2*%
%TO.N,GND*%
X45735000Y-190945000D03*
%TD*%
D28*
%TO.P,U28,1,VIN*%
%TO.N,Net-(U26-VIN)*%
X42605000Y-177545000D03*
%TO.P,U28,2,OUT*%
%TO.N,Net-(D14-A)*%
X42605000Y-179245000D03*
%TO.P,U28,3,GND*%
%TO.N,GND*%
X42605000Y-180945000D03*
D29*
X51755000Y-180945000D03*
D28*
%TO.P,U28,4,FB*%
%TO.N,unconnected-(U28-FB-Pad4)*%
X42605000Y-182645000D03*
%TO.P,U28,5,~{ON}/OFF*%
%TO.N,unconnected-(U28-~{ON}{slash}OFF-Pad5)*%
X42605000Y-184345000D03*
%TD*%
D36*
%TO.P,MH2,1*%
%TO.N,GND*%
X245000000Y-105000000D03*
%TD*%
D17*
%TO.P,U11,1,TXD0*%
%TO.N,unconnected-(U11-TXD0-Pad1)*%
X304962500Y-151990000D03*
%TO.P,U11,2,TXD1*%
%TO.N,unconnected-(U11-TXD1-Pad2)*%
X304962500Y-152490000D03*
%TO.P,U11,3,TXD2*%
%TO.N,unconnected-(U11-TXD2-Pad3)*%
X304962500Y-152990000D03*
%TO.P,U11,4,TXD3*%
%TO.N,unconnected-(U11-TXD3-Pad4)*%
X304962500Y-153490000D03*
%TO.P,U11,5,TX_CLK*%
%TO.N,unconnected-(U11-TX_CLK-Pad5)*%
X304962500Y-153990000D03*
%TO.P,U11,6,TX_EN*%
%TO.N,unconnected-(U11-TX_EN-Pad6)*%
X304962500Y-154490000D03*
%TO.P,U11,7,RXD0*%
%TO.N,unconnected-(U11-RXD0-Pad7)*%
X304962500Y-154990000D03*
%TO.P,U11,8,RXD1*%
%TO.N,unconnected-(U11-RXD1-Pad8)*%
X304962500Y-155490000D03*
%TO.P,U11,9,RXD2*%
%TO.N,unconnected-(U11-RXD2-Pad9)*%
X304962500Y-155990000D03*
%TO.P,U11,10,RXD3*%
%TO.N,unconnected-(U11-RXD3-Pad10)*%
X304962500Y-156490000D03*
%TO.P,U11,11,RX_CLK*%
%TO.N,unconnected-(U11-RX_CLK-Pad11)*%
X304962500Y-156990000D03*
%TO.P,U11,12,RX_DV*%
%TO.N,unconnected-(U11-RX_DV-Pad12)*%
X304962500Y-157490000D03*
D18*
%TO.P,U11,13,MDC*%
%TO.N,unconnected-(U11-MDC-Pad13)*%
X305650000Y-158177500D03*
%TO.P,U11,14,MDIO*%
%TO.N,unconnected-(U11-MDIO-Pad14)*%
X306150000Y-158177500D03*
%TO.P,U11,15,TXP_A*%
%TO.N,unconnected-(U11-TXP_A-Pad15)*%
X306650000Y-158177500D03*
%TO.P,U11,16,TXN_A*%
%TO.N,unconnected-(U11-TXN_A-Pad16)*%
X307150000Y-158177500D03*
%TO.P,U11,17,TXP_B*%
%TO.N,unconnected-(U11-TXP_B-Pad17)*%
X307650000Y-158177500D03*
%TO.P,U11,18,TXN_B*%
%TO.N,unconnected-(U11-TXN_B-Pad18)*%
X308150000Y-158177500D03*
%TO.P,U11,19,TXP_C*%
%TO.N,unconnected-(U11-TXP_C-Pad19)*%
X308650000Y-158177500D03*
%TO.P,U11,20,TXN_C*%
%TO.N,unconnected-(U11-TXN_C-Pad20)*%
X309150000Y-158177500D03*
%TO.P,U11,21,TXP_D*%
%TO.N,unconnected-(U11-TXP_D-Pad21)*%
X309650000Y-158177500D03*
%TO.P,U11,22,TXN_D*%
%TO.N,unconnected-(U11-TXN_D-Pad22)*%
X310150000Y-158177500D03*
%TO.P,U11,23,REFCLK*%
%TO.N,unconnected-(U11-REFCLK-Pad23)*%
X310650000Y-158177500D03*
%TO.P,U11,24,GND*%
%TO.N,GND*%
X311150000Y-158177500D03*
D17*
%TO.P,U11,25,VDD33*%
%TO.N,unconnected-(U11-VDD33-Pad25)*%
X311837500Y-157490000D03*
%TO.P,U11,26,VDD10*%
%TO.N,unconnected-(U11-VDD10-Pad26)*%
X311837500Y-156990000D03*
%TO.P,U11,27*%
%TO.N,N/C*%
X311837500Y-156490000D03*
%TO.P,U11,28*%
X311837500Y-155990000D03*
%TO.P,U11,29*%
X311837500Y-155490000D03*
%TO.P,U11,30*%
X311837500Y-154990000D03*
%TO.P,U11,31*%
X311837500Y-154490000D03*
%TO.P,U11,32*%
X311837500Y-153990000D03*
%TO.P,U11,33*%
X311837500Y-153490000D03*
%TO.P,U11,34*%
X311837500Y-152990000D03*
%TO.P,U11,35*%
X311837500Y-152490000D03*
%TO.P,U11,36*%
X311837500Y-151990000D03*
D18*
%TO.P,U11,37*%
X311150000Y-151302500D03*
%TO.P,U11,38*%
X310650000Y-151302500D03*
%TO.P,U11,39*%
X310150000Y-151302500D03*
%TO.P,U11,40*%
X309650000Y-151302500D03*
%TO.P,U11,41*%
X309150000Y-151302500D03*
%TO.P,U11,42*%
X308650000Y-151302500D03*
%TO.P,U11,43*%
X308150000Y-151302500D03*
%TO.P,U11,44*%
X307650000Y-151302500D03*
%TO.P,U11,45*%
X307150000Y-151302500D03*
%TO.P,U11,46*%
X306650000Y-151302500D03*
%TO.P,U11,47*%
X306150000Y-151302500D03*
%TO.P,U11,48*%
X305650000Y-151302500D03*
D37*
%TO.P,U11,49*%
X308400000Y-154740000D03*
%TD*%
D24*
%TO.P,R17,1*%
%TO.N,+1V8*%
X61545000Y-142115000D03*
%TO.P,R17,2*%
%TO.N,Net-(U27-FB)*%
X62565000Y-142115000D03*
%TD*%
D38*
%TO.P,U17,1,D+*%
%TO.N,unconnected-(U17-D+-Pad1)*%
X121375000Y-49945000D03*
%TO.P,U17,2,D-*%
%TO.N,unconnected-(U17-D--Pad2)*%
X121375000Y-50445000D03*
%TO.P,U17,3,VBUS*%
%TO.N,unconnected-(U17-VBUS-Pad3)*%
X121375000Y-50945000D03*
%TO.P,U17,4,TXD*%
%TO.N,unconnected-(U17-TXD-Pad4)*%
X121375000Y-51445000D03*
%TO.P,U17,5,RXD*%
%TO.N,unconnected-(U17-RXD-Pad5)*%
X121375000Y-51945000D03*
%TO.P,U17,6,RTS*%
%TO.N,unconnected-(U17-RTS-Pad6)*%
X121375000Y-52445000D03*
%TO.P,U17,7,CTS*%
%TO.N,unconnected-(U17-CTS-Pad7)*%
X121375000Y-52945000D03*
D39*
%TO.P,U17,8,DTR*%
%TO.N,unconnected-(U17-DTR-Pad8)*%
X122325000Y-53895000D03*
%TO.P,U17,9,DSR*%
%TO.N,unconnected-(U17-DSR-Pad9)*%
X122825000Y-53895000D03*
%TO.P,U17,10,GND*%
%TO.N,unconnected-(U17-GND-Pad10)*%
X123325000Y-53895000D03*
%TO.P,U17,11,VDD*%
%TO.N,unconnected-(U17-VDD-Pad11)*%
X123825000Y-53895000D03*
%TO.P,U17,12,REGIN*%
%TO.N,unconnected-(U17-REGIN-Pad12)*%
X124325000Y-53895000D03*
%TO.P,U17,13*%
%TO.N,N/C*%
X124825000Y-53895000D03*
%TO.P,U17,14*%
X125325000Y-53895000D03*
D38*
%TO.P,U17,15*%
X126275000Y-52945000D03*
%TO.P,U17,16*%
X126275000Y-52445000D03*
%TO.P,U17,17*%
X126275000Y-51945000D03*
%TO.P,U17,18*%
X126275000Y-51445000D03*
%TO.P,U17,19*%
X126275000Y-50945000D03*
%TO.P,U17,20*%
X126275000Y-50445000D03*
%TO.P,U17,21*%
X126275000Y-49945000D03*
D39*
%TO.P,U17,22*%
X125325000Y-48995000D03*
%TO.P,U17,23*%
X124825000Y-48995000D03*
%TO.P,U17,24*%
X124325000Y-48995000D03*
%TO.P,U17,25*%
X123825000Y-48995000D03*
%TO.P,U17,26*%
X123325000Y-48995000D03*
%TO.P,U17,27*%
X122825000Y-48995000D03*
%TO.P,U17,28*%
X122325000Y-48995000D03*
D40*
%TO.P,U17,29*%
X123825000Y-51445000D03*
%TD*%
D24*
%TO.P,R16,1*%
%TO.N,Net-(U26-FB)*%
X56545000Y-142115000D03*
%TO.P,R16,2*%
%TO.N,GND*%
X57565000Y-142115000D03*
%TD*%
D23*
%TO.P,U7,1,VIN*%
%TO.N,+5V*%
X231532500Y-65560000D03*
%TO.P,U7,2,VOUT*%
%TO.N,unconnected-(U7-VOUT-Pad2)*%
X231532500Y-66510000D03*
%TO.P,U7,3,EN*%
%TO.N,unconnected-(U7-EN-Pad3)*%
X231532500Y-67460000D03*
%TO.P,U7,4,FAULT*%
%TO.N,unconnected-(U7-FAULT-Pad4)*%
X233807500Y-67460000D03*
%TO.P,U7,5,GND*%
%TO.N,GND*%
X233807500Y-65560000D03*
%TD*%
D10*
%TO.P,D3,1,A*%
%TO.N,unconnected-(D3-A-Pad1)*%
X75037500Y-27445000D03*
%TO.P,D3,2,K*%
%TO.N,unconnected-(D3-K-Pad2)*%
X76612500Y-27445000D03*
%TD*%
D17*
%TO.P,U12,1,TXD0*%
%TO.N,unconnected-(U12-TXD0-Pad1)*%
X274962500Y-163990000D03*
%TO.P,U12,2,TXD1*%
%TO.N,unconnected-(U12-TXD1-Pad2)*%
X274962500Y-164490000D03*
%TO.P,U12,3,TXD2*%
%TO.N,unconnected-(U12-TXD2-Pad3)*%
X274962500Y-164990000D03*
%TO.P,U12,4,TXD3*%
%TO.N,unconnected-(U12-TXD3-Pad4)*%
X274962500Y-165490000D03*
%TO.P,U12,5,TX_CLK*%
%TO.N,unconnected-(U12-TX_CLK-Pad5)*%
X274962500Y-165990000D03*
%TO.P,U12,6,TX_EN*%
%TO.N,unconnected-(U12-TX_EN-Pad6)*%
X274962500Y-166490000D03*
%TO.P,U12,7,RXD0*%
%TO.N,unconnected-(U12-RXD0-Pad7)*%
X274962500Y-166990000D03*
%TO.P,U12,8,RXD1*%
%TO.N,unconnected-(U12-RXD1-Pad8)*%
X274962500Y-167490000D03*
%TO.P,U12,9,RXD2*%
%TO.N,unconnected-(U12-RXD2-Pad9)*%
X274962500Y-167990000D03*
%TO.P,U12,10,RXD3*%
%TO.N,unconnected-(U12-RXD3-Pad10)*%
X274962500Y-168490000D03*
%TO.P,U12,11,RX_CLK*%
%TO.N,unconnected-(U12-RX_CLK-Pad11)*%
X274962500Y-168990000D03*
%TO.P,U12,12,RX_DV*%
%TO.N,unconnected-(U12-RX_DV-Pad12)*%
X274962500Y-169490000D03*
D18*
%TO.P,U12,13,MDC*%
%TO.N,unconnected-(U12-MDC-Pad13)*%
X275650000Y-170177500D03*
%TO.P,U12,14,MDIO*%
%TO.N,unconnected-(U12-MDIO-Pad14)*%
X276150000Y-170177500D03*
%TO.P,U12,15,TXP_A*%
%TO.N,unconnected-(U12-TXP_A-Pad15)*%
X276650000Y-170177500D03*
%TO.P,U12,16,TXN_A*%
%TO.N,unconnected-(U12-TXN_A-Pad16)*%
X277150000Y-170177500D03*
%TO.P,U12,17,TXP_B*%
%TO.N,unconnected-(U12-TXP_B-Pad17)*%
X277650000Y-170177500D03*
%TO.P,U12,18,TXN_B*%
%TO.N,unconnected-(U12-TXN_B-Pad18)*%
X278150000Y-170177500D03*
%TO.P,U12,19,TXP_C*%
%TO.N,unconnected-(U12-TXP_C-Pad19)*%
X278650000Y-170177500D03*
%TO.P,U12,20,TXN_C*%
%TO.N,unconnected-(U12-TXN_C-Pad20)*%
X279150000Y-170177500D03*
%TO.P,U12,21,TXP_D*%
%TO.N,unconnected-(U12-TXP_D-Pad21)*%
X279650000Y-170177500D03*
%TO.P,U12,22,TXN_D*%
%TO.N,unconnected-(U12-TXN_D-Pad22)*%
X280150000Y-170177500D03*
%TO.P,U12,23,REFCLK*%
%TO.N,unconnected-(U12-REFCLK-Pad23)*%
X280650000Y-170177500D03*
%TO.P,U12,24,GND*%
%TO.N,GND*%
X281150000Y-170177500D03*
D17*
%TO.P,U12,25,VDD33*%
%TO.N,unconnected-(U12-VDD33-Pad25)*%
X281837500Y-169490000D03*
%TO.P,U12,26,VDD10*%
%TO.N,unconnected-(U12-VDD10-Pad26)*%
X281837500Y-168990000D03*
%TO.P,U12,27*%
%TO.N,N/C*%
X281837500Y-168490000D03*
%TO.P,U12,28*%
X281837500Y-167990000D03*
%TO.P,U12,29*%
X281837500Y-167490000D03*
%TO.P,U12,30*%
X281837500Y-166990000D03*
%TO.P,U12,31*%
X281837500Y-166490000D03*
%TO.P,U12,32*%
X281837500Y-165990000D03*
%TO.P,U12,33*%
X281837500Y-165490000D03*
%TO.P,U12,34*%
X281837500Y-164990000D03*
%TO.P,U12,35*%
X281837500Y-164490000D03*
%TO.P,U12,36*%
X281837500Y-163990000D03*
D18*
%TO.P,U12,37*%
X281150000Y-163302500D03*
%TO.P,U12,38*%
X280650000Y-163302500D03*
%TO.P,U12,39*%
X280150000Y-163302500D03*
%TO.P,U12,40*%
X279650000Y-163302500D03*
%TO.P,U12,41*%
X279150000Y-163302500D03*
%TO.P,U12,42*%
X278650000Y-163302500D03*
%TO.P,U12,43*%
X278150000Y-163302500D03*
%TO.P,U12,44*%
X277650000Y-163302500D03*
%TO.P,U12,45*%
X277150000Y-163302500D03*
%TO.P,U12,46*%
X276650000Y-163302500D03*
%TO.P,U12,47*%
X276150000Y-163302500D03*
%TO.P,U12,48*%
X275650000Y-163302500D03*
D37*
%TO.P,U12,49*%
X278400000Y-166740000D03*
%TD*%
D24*
%TO.P,R18,1*%
%TO.N,Net-(D15-A)*%
X66545000Y-142115000D03*
%TO.P,R18,2*%
%TO.N,GND*%
X67565000Y-142115000D03*
%TD*%
D32*
%TO.P,J3,1,VBUS*%
%TO.N,unconnected-(J3-VBUS-Pad1)*%
X269670000Y-55510000D03*
D33*
%TO.P,J3,2,D-*%
%TO.N,unconnected-(J3-D--Pad2)*%
X269670000Y-53010000D03*
%TO.P,J3,3,D+*%
%TO.N,unconnected-(J3-D+-Pad3)*%
X269670000Y-51010000D03*
%TO.P,J3,4,GND*%
%TO.N,GND*%
X269670000Y-48510000D03*
D34*
%TO.P,J3,5,SHIELD*%
%TO.N,unconnected-(J3-SHIELD-Pad5)*%
X272380000Y-58580000D03*
X272380000Y-45440000D03*
%TD*%
D41*
%TO.P,J11,1,DAT2*%
%TO.N,unconnected-(J11-DAT2-Pad1)*%
X110625000Y-45895000D03*
%TO.P,J11,2,DAT3/CD*%
%TO.N,unconnected-(J11-DAT3{slash}CD-Pad2)*%
X111725000Y-45895000D03*
%TO.P,J11,3,CMD*%
%TO.N,unconnected-(J11-CMD-Pad3)*%
X112825000Y-45895000D03*
%TO.P,J11,4,VDD*%
%TO.N,unconnected-(J11-VDD-Pad4)*%
X113925000Y-45895000D03*
%TO.P,J11,5,CLK*%
%TO.N,unconnected-(J11-CLK-Pad5)*%
X115025000Y-45895000D03*
%TO.P,J11,6,GND*%
%TO.N,unconnected-(J11-GND-Pad6)*%
X116125000Y-45895000D03*
%TO.P,J11,7,DAT0*%
%TO.N,unconnected-(J11-DAT0-Pad7)*%
X117225000Y-45895000D03*
%TO.P,J11,8,DAT1*%
%TO.N,unconnected-(J11-DAT1-Pad8)*%
X118325000Y-45895000D03*
D42*
%TO.P,J11,9,CD*%
%TO.N,unconnected-(J11-CD-Pad9)*%
X106950000Y-43295000D03*
X106950000Y-51595000D03*
X120700000Y-43295000D03*
X120700000Y-51595000D03*
%TD*%
D43*
%TO.P,SW2,1,1*%
%TO.N,unconnected-(SW2-Pad1)*%
X74280000Y-36630000D03*
X80580000Y-36630000D03*
%TO.P,SW2,2,2*%
%TO.N,unconnected-(SW2-Pad2)*%
X74280000Y-40430000D03*
X80580000Y-40430000D03*
%TD*%
D10*
%TO.P,D4,1,A*%
%TO.N,unconnected-(D4-A-Pad1)*%
X81037500Y-27445000D03*
%TO.P,D4,2,K*%
%TO.N,unconnected-(D4-K-Pad2)*%
X82612500Y-27445000D03*
%TD*%
D44*
%TO.P,U5,1,D+*%
%TO.N,unconnected-(U5-D+-Pad1)*%
X232107500Y-36310000D03*
D45*
%TO.P,U5,2,D-*%
%TO.N,unconnected-(U5-D--Pad2)*%
X232007500Y-36710000D03*
D46*
%TO.P,U5,3,D+_OUT*%
%TO.N,unconnected-(U5-D+_OUT-Pad3)*%
X232270000Y-37372500D03*
%TO.P,U5,4,D-_OUT*%
%TO.N,unconnected-(U5-D-_OUT-Pad4)*%
X232670000Y-37372500D03*
%TO.P,U5,5,GND*%
%TO.N,GND*%
X233070000Y-37372500D03*
D45*
%TO.P,U5,6,VCC*%
%TO.N,+3V3*%
X233332500Y-36710000D03*
%TO.P,U5,7*%
%TO.N,N/C*%
X233332500Y-36310000D03*
D46*
%TO.P,U5,8*%
X233070000Y-35647500D03*
%TO.P,U5,9*%
X232670000Y-35647500D03*
%TO.P,U5,10*%
X232270000Y-35647500D03*
%TD*%
D17*
%TO.P,U2,1,CLK*%
%TO.N,unconnected-(U2-CLK-Pad1)*%
X239232500Y-33760000D03*
%TO.P,U2,2,DIR*%
%TO.N,unconnected-(U2-DIR-Pad2)*%
X239232500Y-34260000D03*
%TO.P,U2,3,NXT*%
%TO.N,unconnected-(U2-NXT-Pad3)*%
X239232500Y-34760000D03*
%TO.P,U2,4,STP*%
%TO.N,unconnected-(U2-STP-Pad4)*%
X239232500Y-35260000D03*
%TO.P,U2,5,DATA0*%
%TO.N,unconnected-(U2-DATA0-Pad5)*%
X239232500Y-35760000D03*
%TO.P,U2,6,DATA1*%
%TO.N,unconnected-(U2-DATA1-Pad6)*%
X239232500Y-36260000D03*
%TO.P,U2,7,DATA2*%
%TO.N,unconnected-(U2-DATA2-Pad7)*%
X239232500Y-36760000D03*
%TO.P,U2,8,DATA3*%
%TO.N,unconnected-(U2-DATA3-Pad8)*%
X239232500Y-37260000D03*
%TO.P,U2,9,DATA4*%
%TO.N,unconnected-(U2-DATA4-Pad9)*%
X239232500Y-37760000D03*
%TO.P,U2,10,DATA5*%
%TO.N,unconnected-(U2-DATA5-Pad10)*%
X239232500Y-38260000D03*
%TO.P,U2,11,DATA6*%
%TO.N,unconnected-(U2-DATA6-Pad11)*%
X239232500Y-38760000D03*
%TO.P,U2,12,DATA7*%
%TO.N,unconnected-(U2-DATA7-Pad12)*%
X239232500Y-39260000D03*
D18*
%TO.P,U2,13,DN1_DP*%
%TO.N,unconnected-(U2-DN1_DP-Pad13)*%
X239920000Y-39947500D03*
%TO.P,U2,14,DN1_DN*%
%TO.N,unconnected-(U2-DN1_DN-Pad14)*%
X240420000Y-39947500D03*
%TO.P,U2,15,DN2_DP*%
%TO.N,unconnected-(U2-DN2_DP-Pad15)*%
X240920000Y-39947500D03*
%TO.P,U2,16,DN2_DN*%
%TO.N,unconnected-(U2-DN2_DN-Pad16)*%
X241420000Y-39947500D03*
%TO.P,U2,17,DN3_DP*%
%TO.N,unconnected-(U2-DN3_DP-Pad17)*%
X241920000Y-39947500D03*
%TO.P,U2,18,DN3_DN*%
%TO.N,unconnected-(U2-DN3_DN-Pad18)*%
X242420000Y-39947500D03*
%TO.P,U2,19,DN4_DP*%
%TO.N,unconnected-(U2-DN4_DP-Pad19)*%
X242920000Y-39947500D03*
%TO.P,U2,20,DN4_DN*%
%TO.N,unconnected-(U2-DN4_DN-Pad20)*%
X243420000Y-39947500D03*
%TO.P,U2,21,GND*%
%TO.N,GND*%
X243920000Y-39947500D03*
%TO.P,U2,22,VDD33*%
%TO.N,unconnected-(U2-VDD33-Pad22)*%
X244420000Y-39947500D03*
%TO.P,U2,23,VDD12*%
%TO.N,unconnected-(U2-VDD12-Pad23)*%
X244920000Y-39947500D03*
%TO.P,U2,24*%
%TO.N,N/C*%
X245420000Y-39947500D03*
D17*
%TO.P,U2,25*%
X246107500Y-39260000D03*
%TO.P,U2,26*%
X246107500Y-38760000D03*
%TO.P,U2,27*%
X246107500Y-38260000D03*
%TO.P,U2,28*%
X246107500Y-37760000D03*
%TO.P,U2,29*%
X246107500Y-37260000D03*
%TO.P,U2,30*%
X246107500Y-36760000D03*
%TO.P,U2,31*%
X246107500Y-36260000D03*
%TO.P,U2,32*%
X246107500Y-35760000D03*
%TO.P,U2,33*%
X246107500Y-35260000D03*
%TO.P,U2,34*%
X246107500Y-34760000D03*
%TO.P,U2,35*%
X246107500Y-34260000D03*
%TO.P,U2,36*%
X246107500Y-33760000D03*
D18*
%TO.P,U2,37*%
X245420000Y-33072500D03*
%TO.P,U2,38*%
X244920000Y-33072500D03*
%TO.P,U2,39*%
X244420000Y-33072500D03*
%TO.P,U2,40*%
X243920000Y-33072500D03*
%TO.P,U2,41*%
X243420000Y-33072500D03*
%TO.P,U2,42*%
X242920000Y-33072500D03*
%TO.P,U2,43*%
X242420000Y-33072500D03*
%TO.P,U2,44*%
X241920000Y-33072500D03*
%TO.P,U2,45*%
X241420000Y-33072500D03*
%TO.P,U2,46*%
X240920000Y-33072500D03*
%TO.P,U2,47*%
X240420000Y-33072500D03*
%TO.P,U2,48*%
X239920000Y-33072500D03*
D37*
%TO.P,U2,49*%
X242670000Y-36510000D03*
%TD*%
D44*
%TO.P,U4,1,D+*%
%TO.N,unconnected-(U4-D+-Pad1)*%
X242107500Y-66310000D03*
D45*
%TO.P,U4,2,D-*%
%TO.N,unconnected-(U4-D--Pad2)*%
X242007500Y-66710000D03*
D46*
%TO.P,U4,3,D+_OUT*%
%TO.N,unconnected-(U4-D+_OUT-Pad3)*%
X242270000Y-67372500D03*
%TO.P,U4,4,D-_OUT*%
%TO.N,unconnected-(U4-D-_OUT-Pad4)*%
X242670000Y-67372500D03*
%TO.P,U4,5,GND*%
%TO.N,GND*%
X243070000Y-67372500D03*
D45*
%TO.P,U4,6,VCC*%
%TO.N,+3V3*%
X243332500Y-66710000D03*
%TO.P,U4,7*%
%TO.N,N/C*%
X243332500Y-66310000D03*
D46*
%TO.P,U4,8*%
X243070000Y-65647500D03*
%TO.P,U4,9*%
X242670000Y-65647500D03*
%TO.P,U4,10*%
X242270000Y-65647500D03*
%TD*%
D23*
%TO.P,U10,1,VIN*%
%TO.N,+5V*%
X219865000Y-62730000D03*
%TO.P,U10,2,VOUT*%
%TO.N,unconnected-(U10-VOUT-Pad2)*%
X219865000Y-63680000D03*
%TO.P,U10,3,EN*%
%TO.N,unconnected-(U10-EN-Pad3)*%
X219865000Y-64630000D03*
%TO.P,U10,4,FAULT*%
%TO.N,unconnected-(U10-FAULT-Pad4)*%
X222140000Y-64630000D03*
%TO.P,U10,5,GND*%
%TO.N,GND*%
X222140000Y-62730000D03*
%TD*%
D24*
%TO.P,R15,1*%
%TO.N,Net-(D16-A)*%
X51545000Y-142115000D03*
%TO.P,R15,2*%
%TO.N,GND*%
X52565000Y-142115000D03*
%TD*%
D32*
%TO.P,J2,1,VBUS*%
%TO.N,unconnected-(J2-VBUS-Pad1)*%
X269670000Y-43510000D03*
D33*
%TO.P,J2,2,D-*%
%TO.N,unconnected-(J2-D--Pad2)*%
X269670000Y-41010000D03*
%TO.P,J2,3,D+*%
%TO.N,unconnected-(J2-D+-Pad3)*%
X269670000Y-39010000D03*
%TO.P,J2,4,GND*%
%TO.N,GND*%
X269670000Y-36510000D03*
D34*
%TO.P,J2,5,SHIELD*%
%TO.N,unconnected-(J2-SHIELD-Pad5)*%
X272380000Y-46580000D03*
X272380000Y-33440000D03*
%TD*%
D24*
%TO.P,R21,1*%
%TO.N,Net-(D12-A)*%
X51545000Y-147115000D03*
%TO.P,R21,2*%
%TO.N,GND*%
X52565000Y-147115000D03*
%TD*%
D32*
%TO.P,J1,1,VBUS*%
%TO.N,unconnected-(J1-VBUS-Pad1)*%
X269670000Y-31510000D03*
D33*
%TO.P,J1,2,D-*%
%TO.N,unconnected-(J1-D--Pad2)*%
X269670000Y-29010000D03*
%TO.P,J1,3,D+*%
%TO.N,unconnected-(J1-D+-Pad3)*%
X269670000Y-27010000D03*
%TO.P,J1,4,GND*%
%TO.N,GND*%
X269670000Y-24510000D03*
D34*
%TO.P,J1,5,SHIELD*%
%TO.N,unconnected-(J1-SHIELD-Pad5)*%
X272380000Y-34580000D03*
X272380000Y-21440000D03*
%TD*%
D10*
%TO.P,D14,1,K*%
%TO.N,GND*%
X20467500Y-128945000D03*
%TO.P,D14,2,A*%
%TO.N,Net-(D14-A)*%
X22042500Y-128945000D03*
%TD*%
%TO.P,D13,1,K*%
%TO.N,GND*%
X14467500Y-128945000D03*
%TO.P,D13,2,A*%
%TO.N,Net-(D13-A)*%
X16042500Y-128945000D03*
%TD*%
D35*
%TO.P,C20,1*%
%TO.N,+5V*%
X19775000Y-165945000D03*
%TO.P,C20,2*%
%TO.N,GND*%
X20735000Y-165945000D03*
%TD*%
D31*
%TO.P,U14,1,TXD*%
%TO.N,unconnected-(U14-TXD-Pad1)*%
X121350000Y-37540000D03*
%TO.P,U14,2,GND*%
%TO.N,unconnected-(U14-GND-Pad2)*%
X121350000Y-38810000D03*
%TO.P,U14,3,VCC*%
%TO.N,unconnected-(U14-VCC-Pad3)*%
X121350000Y-40080000D03*
%TO.P,U14,4,RXD*%
%TO.N,unconnected-(U14-RXD-Pad4)*%
X121350000Y-41350000D03*
%TO.P,U14,5,NC*%
%TO.N,unconnected-(U14-NC-Pad5)*%
X126300000Y-41350000D03*
%TO.P,U14,6,CANL*%
%TO.N,unconnected-(U14-CANL-Pad6)*%
X126300000Y-40080000D03*
%TO.P,U14,7,CANH*%
%TO.N,unconnected-(U14-CANH-Pad7)*%
X126300000Y-38810000D03*
%TO.P,U14,8,RS*%
%TO.N,unconnected-(U14-RS-Pad8)*%
X126300000Y-37540000D03*
%TD*%
D47*
%TO.P,U44,1,D2+*%
%TO.N,/HDMI In/Out/HDMI_IN_D2P*%
X135407500Y-375890000D03*
%TO.P,U44,2,D2-*%
%TO.N,unconnected-(U44-D2--Pad2)*%
X135407500Y-376390000D03*
%TO.P,U44,3,D1+*%
%TO.N,/HDMI In/Out/HDMI_IN_D2N*%
X135407500Y-376890000D03*
%TO.P,U44,4,D1-*%
%TO.N,unconnected-(U44-D1--Pad4)*%
X135407500Y-377390000D03*
%TO.P,U44,5,D0+*%
%TO.N,unconnected-(U44-D0+-Pad5)*%
X135407500Y-377890000D03*
%TO.P,U44,6,D0-*%
%TO.N,/HDMI In/Out/HDMI_IN_D1P*%
X135407500Y-378390000D03*
D48*
%TO.P,U44,7,CLK+*%
%TO.N,/HDMI In/Out/HDMI_IN_D1N*%
X136120000Y-379102500D03*
%TO.P,U44,8,CLK-*%
%TO.N,unconnected-(U44-CLK--Pad8)*%
X136620000Y-379102500D03*
%TO.P,U44,9,GND*%
%TO.N,unconnected-(U44-GND-Pad9)*%
X137120000Y-379102500D03*
%TO.P,U44,10,D2+_O*%
%TO.N,Net-(U43-TMDS_D0+)*%
X137620000Y-379102500D03*
%TO.P,U44,11,D2-_O*%
%TO.N,Net-(U43-TMDS_D1-)*%
X138120000Y-379102500D03*
%TO.P,U44,12,D1+_O*%
%TO.N,Net-(U43-TMDS_D2+)*%
X138620000Y-379102500D03*
D47*
%TO.P,U44,13,D1-_O*%
%TO.N,Net-(U43-TMDS_D2-)*%
X139332500Y-378390000D03*
%TO.P,U44,14,D0+_O*%
%TO.N,Net-(U43-TMDS_CLK+)*%
X139332500Y-377890000D03*
%TO.P,U44,15,D0-_O*%
%TO.N,Net-(U43-TMDS_CLK-)*%
X139332500Y-377390000D03*
%TO.P,U44,16,CLK+_O*%
%TO.N,unconnected-(U44-CLK+_O-Pad16)*%
X139332500Y-376890000D03*
%TO.P,U44,17,CLK-_O*%
%TO.N,Net-(U43-CEC)*%
X139332500Y-376390000D03*
%TO.P,U44,18*%
%TO.N,N/C*%
X139332500Y-375890000D03*
D48*
%TO.P,U44,19*%
X138620000Y-375177500D03*
%TO.P,U44,20*%
X138120000Y-375177500D03*
%TO.P,U44,21*%
X137620000Y-375177500D03*
%TO.P,U44,22*%
X137120000Y-375177500D03*
%TO.P,U44,23*%
X136620000Y-375177500D03*
%TO.P,U44,24*%
X136120000Y-375177500D03*
D49*
%TO.P,U44,25*%
X137370000Y-377140000D03*
%TD*%
D15*
%TO.P,J9,1,1*%
%TO.N,unconnected-(J9-Pad1)*%
X103825000Y-57445000D03*
D16*
%TO.P,J9,2,2*%
%TO.N,unconnected-(J9-Pad2)*%
X103825000Y-59985000D03*
%TD*%
D28*
%TO.P,U27,1,VIN*%
%TO.N,Net-(U26-VIN)*%
X27605000Y-177545000D03*
%TO.P,U27,2,OUT*%
%TO.N,Net-(D11-A)*%
X27605000Y-179245000D03*
%TO.P,U27,3,GND*%
%TO.N,GND*%
X27605000Y-180945000D03*
D29*
X36755000Y-180945000D03*
D28*
%TO.P,U27,4,FB*%
%TO.N,Net-(U27-FB)*%
X27605000Y-182645000D03*
%TO.P,U27,5,~{ON}/OFF*%
%TO.N,unconnected-(U27-~{ON}{slash}OFF-Pad5)*%
X27605000Y-184345000D03*
%TD*%
D10*
%TO.P,D2,1,A*%
%TO.N,unconnected-(D2-A-Pad1)*%
X69037500Y-27445000D03*
%TO.P,D2,2,K*%
%TO.N,unconnected-(D2-K-Pad2)*%
X70612500Y-27445000D03*
%TD*%
D43*
%TO.P,SW1,1,1*%
%TO.N,unconnected-(SW1-Pad1)*%
X64280000Y-36630000D03*
X70580000Y-36630000D03*
%TO.P,SW1,2,2*%
%TO.N,unconnected-(SW1-Pad2)*%
X64280000Y-40430000D03*
X70580000Y-40430000D03*
%TD*%
D47*
%TO.P,U45,1,D2+*%
%TO.N,Net-(U41-CEC)*%
X135407500Y-373890000D03*
%TO.P,U45,2,D2-*%
X135407500Y-374390000D03*
%TO.P,U45,3,D1+*%
X135407500Y-374890000D03*
%TO.P,U45,4,D1-*%
X135407500Y-375390000D03*
%TO.P,U45,5,D0+*%
X135407500Y-375890000D03*
%TO.P,U45,6,D0-*%
X135407500Y-376390000D03*
D48*
%TO.P,U45,7,CLK+*%
X136120000Y-377102500D03*
%TO.P,U45,8,CLK-*%
X136620000Y-377102500D03*
%TO.P,U45,9,GND*%
X137120000Y-377102500D03*
%TO.P,U45,10,D2+_O*%
%TO.N,Net-(J23-TMDS_D2+)*%
X137620000Y-377102500D03*
%TO.P,U45,11,D2-_O*%
%TO.N,Net-(J23-TMDS_D2_SH)*%
X138120000Y-377102500D03*
%TO.P,U45,12,D1+_O*%
%TO.N,Net-(J23-TMDS_D2-)*%
X138620000Y-377102500D03*
D47*
%TO.P,U45,13,D1-_O*%
%TO.N,Net-(J23-TMDS_D1+)*%
X139332500Y-376390000D03*
%TO.P,U45,14,D0+_O*%
%TO.N,Net-(J23-TMDS_D1_SH)*%
X139332500Y-375890000D03*
%TO.P,U45,15,D0-_O*%
%TO.N,Net-(J23-TMDS_D1-)*%
X139332500Y-375390000D03*
%TO.P,U45,16,CLK+_O*%
%TO.N,Net-(J23-TMDS_D0+)*%
X139332500Y-374890000D03*
%TO.P,U45,17,CLK-_O*%
%TO.N,Net-(J23-TMDS_D0_SH)*%
X139332500Y-374390000D03*
%TO.P,U45,18*%
%TO.N,N/C*%
X139332500Y-373890000D03*
D48*
%TO.P,U45,19*%
X138620000Y-373177500D03*
%TO.P,U45,20*%
X138120000Y-373177500D03*
%TO.P,U45,21*%
X137620000Y-373177500D03*
%TO.P,U45,22*%
X137120000Y-373177500D03*
%TO.P,U45,23*%
X136620000Y-373177500D03*
%TO.P,U45,24*%
X136120000Y-373177500D03*
D49*
%TO.P,U45,25*%
X137370000Y-375140000D03*
%TD*%
D20*
%TO.P,U41,1,VDD33*%
%TO.N,unconnected-(U41-VDD33-Pad1)*%
X116695000Y-358390000D03*
%TO.P,U41,2,VDD18*%
%TO.N,unconnected-(U41-VDD18-Pad2)*%
X116695000Y-358890000D03*
%TO.P,U41,3,VDD12*%
%TO.N,unconnected-(U41-VDD12-Pad3)*%
X116695000Y-359390000D03*
%TO.P,U41,4,GND*%
%TO.N,GND*%
X116695000Y-359890000D03*
%TO.P,U41,5,PCLK*%
%TO.N,unconnected-(U41-PCLK-Pad5)*%
X116695000Y-360390000D03*
%TO.P,U41,6,DE*%
%TO.N,unconnected-(U41-DE-Pad6)*%
X116695000Y-360890000D03*
%TO.P,U41,7,HSYNC*%
%TO.N,unconnected-(U41-HSYNC-Pad7)*%
X116695000Y-361390000D03*
%TO.P,U41,8,VSYNC*%
%TO.N,unconnected-(U41-VSYNC-Pad8)*%
X116695000Y-361890000D03*
%TO.P,U41,9,R[7:0]*%
%TO.N,unconnected-(U41-R[7:0]-Pad9)*%
X116695000Y-362390000D03*
%TO.P,U41,10,G[7:0]*%
%TO.N,unconnected-(U41-G[7:0]-Pad10)*%
X116695000Y-362890000D03*
%TO.P,U41,11,B[7:0]*%
%TO.N,unconnected-(U41-B[7:0]-Pad11)*%
X116695000Y-363390000D03*
%TO.P,U41,12,SCL*%
%TO.N,unconnected-(U41-SCL-Pad12)*%
X116695000Y-363890000D03*
%TO.P,U41,13,SDA*%
%TO.N,unconnected-(U41-SDA-Pad13)*%
X116695000Y-364390000D03*
%TO.P,U41,14,TMDS_D0+*%
%TO.N,unconnected-(U41-TMDS_D0+-Pad14)*%
X116695000Y-364890000D03*
%TO.P,U41,15,TMDS_D0-*%
%TO.N,unconnected-(U41-TMDS_D0--Pad15)*%
X116695000Y-365390000D03*
%TO.P,U41,16,TMDS_D1+*%
%TO.N,unconnected-(U41-TMDS_D1+-Pad16)*%
X116695000Y-365890000D03*
D21*
%TO.P,U41,17,TMDS_D1-*%
%TO.N,unconnected-(U41-TMDS_D1--Pad17)*%
X118620000Y-367815000D03*
%TO.P,U41,18,TMDS_D2+*%
%TO.N,unconnected-(U41-TMDS_D2+-Pad18)*%
X119120000Y-367815000D03*
%TO.P,U41,19,TMDS_D2-*%
%TO.N,Net-(U41-CEC)*%
X119620000Y-367815000D03*
%TO.P,U41,20,TMDS_CLK+*%
X120120000Y-367815000D03*
%TO.P,U41,21,TMDS_CLK-*%
%TO.N,unconnected-(U41-TMDS_CLK--Pad21)*%
X120620000Y-367815000D03*
%TO.P,U41,22,CEC*%
%TO.N,Net-(U41-CEC)*%
X121120000Y-367815000D03*
%TO.P,U41,23,HPD*%
X121620000Y-367815000D03*
%TO.P,U41,24,XTALIN*%
X122120000Y-367815000D03*
%TO.P,U41,25,XTALOUT*%
%TO.N,unconnected-(U41-XTALOUT-Pad25)*%
X122620000Y-367815000D03*
%TO.P,U41,26*%
%TO.N,N/C*%
X123120000Y-367815000D03*
%TO.P,U41,27*%
X123620000Y-367815000D03*
%TO.P,U41,28*%
X124120000Y-367815000D03*
%TO.P,U41,29*%
X124620000Y-367815000D03*
%TO.P,U41,30*%
X125120000Y-367815000D03*
%TO.P,U41,31*%
X125620000Y-367815000D03*
%TO.P,U41,32*%
X126120000Y-367815000D03*
D20*
%TO.P,U41,33*%
X128045000Y-365890000D03*
%TO.P,U41,34*%
X128045000Y-365390000D03*
%TO.P,U41,35*%
X128045000Y-364890000D03*
%TO.P,U41,36*%
X128045000Y-364390000D03*
%TO.P,U41,37*%
X128045000Y-363890000D03*
%TO.P,U41,38*%
X128045000Y-363390000D03*
%TO.P,U41,39*%
X128045000Y-362890000D03*
%TO.P,U41,40*%
X128045000Y-362390000D03*
%TO.P,U41,41*%
X128045000Y-361890000D03*
%TO.P,U41,42*%
X128045000Y-361390000D03*
%TO.P,U41,43*%
X128045000Y-360890000D03*
%TO.P,U41,44*%
X128045000Y-360390000D03*
%TO.P,U41,45*%
X128045000Y-359890000D03*
%TO.P,U41,46*%
X128045000Y-359390000D03*
%TO.P,U41,47*%
X128045000Y-358890000D03*
%TO.P,U41,48*%
X128045000Y-358390000D03*
D21*
%TO.P,U41,49*%
X126120000Y-356465000D03*
%TO.P,U41,50*%
X125620000Y-356465000D03*
%TO.P,U41,51*%
X125120000Y-356465000D03*
%TO.P,U41,52*%
X124620000Y-356465000D03*
%TO.P,U41,53*%
X124120000Y-356465000D03*
%TO.P,U41,54*%
X123620000Y-356465000D03*
%TO.P,U41,55*%
X123120000Y-356465000D03*
%TO.P,U41,56*%
X122620000Y-356465000D03*
%TO.P,U41,57*%
X122120000Y-356465000D03*
%TO.P,U41,58*%
X121620000Y-356465000D03*
%TO.P,U41,59*%
X121120000Y-356465000D03*
%TO.P,U41,60*%
X120620000Y-356465000D03*
%TO.P,U41,61*%
X120120000Y-356465000D03*
%TO.P,U41,62*%
X119620000Y-356465000D03*
%TO.P,U41,63*%
X119120000Y-356465000D03*
%TO.P,U41,64*%
X118620000Y-356465000D03*
%TD*%
D24*
%TO.P,R24,1*%
%TO.N,unconnected-(R24-Pad1)*%
X128620000Y-339290000D03*
%TO.P,R24,2*%
%TO.N,unconnected-(R24-Pad2)*%
X129640000Y-339290000D03*
%TD*%
D36*
%TO.P,MH1,1*%
%TO.N,GND*%
X105000000Y-105000000D03*
%TD*%
D24*
%TO.P,R19,1*%
%TO.N,+3V3*%
X41545000Y-147115000D03*
%TO.P,R19,2*%
%TO.N,Net-(U26-FB)*%
X42565000Y-147115000D03*
%TD*%
D31*
%TO.P,U15,1,RO*%
%TO.N,unconnected-(U15-RO-Pad1)*%
X91350000Y-49540000D03*
%TO.P,U15,2,~{RE}*%
%TO.N,unconnected-(U15-~{RE}-Pad2)*%
X91350000Y-50810000D03*
%TO.P,U15,3,DE*%
%TO.N,unconnected-(U15-DE-Pad3)*%
X91350000Y-52080000D03*
%TO.P,U15,4,DI*%
%TO.N,unconnected-(U15-DI-Pad4)*%
X91350000Y-53350000D03*
%TO.P,U15,5,GND*%
%TO.N,unconnected-(U15-GND-Pad5)*%
X96300000Y-53350000D03*
%TO.P,U15,6,A*%
%TO.N,unconnected-(U15-A-Pad6)*%
X96300000Y-52080000D03*
%TO.P,U15,7,B*%
%TO.N,unconnected-(U15-B-Pad7)*%
X96300000Y-50810000D03*
%TO.P,U15,8,VCC*%
%TO.N,unconnected-(U15-VCC-Pad8)*%
X96300000Y-49540000D03*
%TD*%
D50*
%TO.P,J23,1,TMDS_D2+*%
%TO.N,Net-(J23-TMDS_D2+)*%
X168720000Y-389400000D03*
%TO.P,J23,3,TMDS_D2-*%
%TO.N,Net-(J23-TMDS_D2-)*%
X168720000Y-388400000D03*
%TO.P,J23,5,TMDS_D1_SH*%
%TO.N,Net-(J23-TMDS_D1_SH)*%
X168720000Y-387400000D03*
%TO.P,J23,7,TMDS_D0+*%
%TO.N,Net-(J23-TMDS_D0+)*%
X168720000Y-386400000D03*
%TO.P,J23,9,TMDS_D0-*%
%TO.N,unconnected-(J23-TMDS_D0--Pad9)*%
X168720000Y-385400000D03*
%TO.P,J23,11,TMDS_CLK_SH*%
%TO.N,unconnected-(J23-TMDS_CLK_SH-Pad11)*%
X168720000Y-384400000D03*
%TO.P,J23,13,CEC*%
%TO.N,unconnected-(J23-CEC-Pad13)*%
X168720000Y-383400000D03*
%TO.P,J23,15,SCL*%
%TO.N,unconnected-(J23-SCL-Pad15)*%
X168720000Y-382400000D03*
%TO.P,J23,17,GND*%
%TO.N,GND*%
X168720000Y-381400000D03*
%TO.P,J23,19,HPD*%
%TO.N,unconnected-(J23-HPD-Pad19)*%
X168720000Y-380400000D03*
D51*
%TO.P,J23,SH*%
%TO.N,N/C*%
X168820000Y-391675000D03*
X168820000Y-378125000D03*
%TD*%
D44*
%TO.P,U6,1,D+*%
%TO.N,unconnected-(U6-D+-Pad1)*%
X232107500Y-51310000D03*
D45*
%TO.P,U6,2,D-*%
%TO.N,unconnected-(U6-D--Pad2)*%
X232007500Y-51710000D03*
D46*
%TO.P,U6,3,D+_OUT*%
%TO.N,unconnected-(U6-D+_OUT-Pad3)*%
X232270000Y-52372500D03*
%TO.P,U6,4,D-_OUT*%
%TO.N,unconnected-(U6-D-_OUT-Pad4)*%
X232670000Y-52372500D03*
%TO.P,U6,5,GND*%
%TO.N,GND*%
X233070000Y-52372500D03*
D45*
%TO.P,U6,6,VCC*%
%TO.N,+3V3*%
X233332500Y-51710000D03*
%TO.P,U6,7*%
%TO.N,N/C*%
X233332500Y-51310000D03*
D46*
%TO.P,U6,8*%
X233070000Y-50647500D03*
%TO.P,U6,9*%
X232670000Y-50647500D03*
%TO.P,U6,10*%
X232270000Y-50647500D03*
%TD*%
D35*
%TO.P,C22,1*%
%TO.N,Net-(U26-VIN)*%
X79030000Y-162010000D03*
%TO.P,C22,2*%
%TO.N,GND*%
X79990000Y-162010000D03*
%TD*%
D15*
%TO.P,J8,1,1*%
%TO.N,unconnected-(J8-Pad1)*%
X103825000Y-47445000D03*
D16*
%TO.P,J8,2,2*%
%TO.N,unconnected-(J8-Pad2)*%
X103825000Y-49985000D03*
%TD*%
D10*
%TO.P,D15,1,K*%
%TO.N,+3V3*%
X26467500Y-128945000D03*
%TO.P,D15,2,A*%
%TO.N,Net-(D15-A)*%
X28042500Y-128945000D03*
%TD*%
D31*
%TO.P,U16,1,RO*%
%TO.N,unconnected-(U16-RO-Pad1)*%
X106350000Y-49540000D03*
%TO.P,U16,2,~{RE}*%
%TO.N,unconnected-(U16-~{RE}-Pad2)*%
X106350000Y-50810000D03*
%TO.P,U16,3,DE*%
%TO.N,unconnected-(U16-DE-Pad3)*%
X106350000Y-52080000D03*
%TO.P,U16,4,DI*%
%TO.N,unconnected-(U16-DI-Pad4)*%
X106350000Y-53350000D03*
%TO.P,U16,5,GND*%
%TO.N,unconnected-(U16-GND-Pad5)*%
X111300000Y-53350000D03*
%TO.P,U16,6,A*%
%TO.N,unconnected-(U16-A-Pad6)*%
X111300000Y-52080000D03*
%TO.P,U16,7,B*%
%TO.N,unconnected-(U16-B-Pad7)*%
X111300000Y-50810000D03*
%TO.P,U16,8,VCC*%
%TO.N,unconnected-(U16-VCC-Pad8)*%
X111300000Y-49540000D03*
%TD*%
D35*
%TO.P,C36,1*%
%TO.N,unconnected-(C36-Pad1)*%
X99890000Y-397140000D03*
%TO.P,C36,2*%
%TO.N,GND*%
X100850000Y-397140000D03*
%TD*%
D36*
%TO.P,MH4,1*%
%TO.N,GND*%
X245000000Y-195000000D03*
%TD*%
D44*
%TO.P,U3,1,D+*%
%TO.N,unconnected-(U3-D+-Pad1)*%
X242107500Y-51310000D03*
D45*
%TO.P,U3,2,D-*%
%TO.N,unconnected-(U3-D--Pad2)*%
X242007500Y-51710000D03*
D46*
%TO.P,U3,3,D+_OUT*%
%TO.N,unconnected-(U3-D+_OUT-Pad3)*%
X242270000Y-52372500D03*
%TO.P,U3,4,D-_OUT*%
%TO.N,unconnected-(U3-D-_OUT-Pad4)*%
X242670000Y-52372500D03*
%TO.P,U3,5,GND*%
%TO.N,GND*%
X243070000Y-52372500D03*
D45*
%TO.P,U3,6,VCC*%
%TO.N,+3V3*%
X243332500Y-51710000D03*
%TO.P,U3,7*%
%TO.N,N/C*%
X243332500Y-51310000D03*
D46*
%TO.P,U3,8*%
X243070000Y-50647500D03*
%TO.P,U3,9*%
X242670000Y-50647500D03*
%TO.P,U3,10*%
X242270000Y-50647500D03*
%TD*%
D10*
%TO.P,D1,1,A*%
%TO.N,unconnected-(D1-A-Pad1)*%
X63037500Y-27445000D03*
%TO.P,D1,2,K*%
%TO.N,unconnected-(D1-K-Pad2)*%
X64612500Y-27445000D03*
%TD*%
D50*
%TO.P,J24,1,TMDS_D2+*%
%TO.N,unconnected-(J24-TMDS_D2+-Pad1)*%
X148800000Y-390815000D03*
%TO.P,J24,3,TMDS_D2-*%
%TO.N,unconnected-(J24-TMDS_D2--Pad3)*%
X148800000Y-389815000D03*
%TO.P,J24,5,TMDS_D1_SH*%
%TO.N,unconnected-(J24-TMDS_D1_SH-Pad5)*%
X148800000Y-388815000D03*
%TO.P,J24,7,TMDS_D0+*%
%TO.N,unconnected-(J24-TMDS_D0+-Pad7)*%
X148800000Y-387815000D03*
%TO.P,J24,9,TMDS_D0-*%
%TO.N,unconnected-(J24-TMDS_D0--Pad9)*%
X148800000Y-386815000D03*
%TO.P,J24,11,TMDS_CLK_SH*%
%TO.N,unconnected-(J24-TMDS_CLK_SH-Pad11)*%
X148800000Y-385815000D03*
%TO.P,J24,13,CEC*%
%TO.N,unconnected-(J24-CEC-Pad13)*%
X148800000Y-384815000D03*
%TO.P,J24,15,SCL*%
%TO.N,/HDMI In/Out/HDMI_IN_D1P*%
X148800000Y-383815000D03*
%TO.P,J24,17,GND*%
%TO.N,unconnected-(J24-GND-Pad17)*%
X148800000Y-382815000D03*
%TO.P,J24,19,HPD*%
%TO.N,unconnected-(J24-HPD-Pad19)*%
X148800000Y-381815000D03*
D51*
%TO.P,J24,SH*%
%TO.N,N/C*%
X148900000Y-393090000D03*
X148900000Y-379540000D03*
%TD*%
D36*
%TO.P,MH3,1*%
%TO.N,GND*%
X105000000Y-195000000D03*
%TD*%
D35*
%TO.P,C21,1*%
%TO.N,+3V3*%
X29775000Y-165945000D03*
%TO.P,C21,2*%
%TO.N,GND*%
X30735000Y-165945000D03*
%TD*%
D30*
%TO.P,L4,1*%
%TO.N,Net-(D11-A)*%
X18180000Y-155945000D03*
%TO.P,L4,2*%
%TO.N,+1V8*%
X22330000Y-155945000D03*
%TD*%
M02*
